SplineFontDB: 3.2
FontName: peteyscript_italic
FullName: peteyscript_italic
FamilyName: peteyscript_
Weight: Italic
Copyright: Copyright (c) 2025, wofl
UComments: "2025-3-8: Created with FontForge (http://fontforge.org)"
Version: 001.000
ItalicAngle: 0
UnderlinePosition: 0
UnderlineWidth: 0
Ascent: 2
Descent: 0
InvalidEm: 0
LayerCount: 2
Layer: 0 0 "Back" 1
Layer: 1 0 "Fore" 0
XUID: [1021 4 447193481 13186]
StyleMap: 0x0000
FSType: 0
OS2Version: 0
OS2_WeightWidthSlopeOnly: 0
OS2_UseTypoMetrics: 1
CreationTime: 1741437236
ModificationTime: 1741451347
OS2TypoAscent: 0
OS2TypoAOffset: 1
OS2TypoDescent: 0
OS2TypoDOffset: 1
OS2TypoLinegap: 0
OS2WinAscent: 0
OS2WinAOffset: 1
OS2WinDescent: 0
OS2WinDOffset: 1
HheadAscent: 0
HheadAOffset: 1
HheadDescent: 0
HheadDOffset: 1
OS2Vendor: 'wofl'
MarkAttachClasses: 1
DEI: 91125
Encoding: ISO8859-1
UnicodeInterp: none
NameList: AGL For New Fonts
DisplaySize: -48
AntiAlias: 1
FitToEm: 0
WinInfo: 0 54 20
BeginPrivate: 0
EndPrivate
BeginChars: 256 131

StartChar: uni0000
Encoding: 0 0 0
Width: 2
Flags: HW
LayerCount: 2
Back
Fore
SplineSet
0.677734375 1.337890625 m 1
 0.685546875 1.3779296875 0.6943359375 1.41796875 0.7021484375 1.4580078125 c 1
 0.7177734375 1.4580078125 0.734375 1.4580078125 0.75 1.4580078125 c 1
 0.7939453125 1.4580078125 0.7958984375 1.4580078125 0.7919921875 1.427734375 c 0
 0.765625 1.177734375 0.7822265625 1.09765625 0.8662109375 1.0478515625 c 0
 0.90234375 1.0263671875 0.9423828125 1.017578125 0.982421875 1.017578125 c 0
 1.01171875 1.017578125 1.0439453125 1.0244140625 1.07421875 1.0361328125 c 0
 1.171875 1.076171875 1.2216796875 1.162109375 1.2841796875 1.3984375 c 0
 1.2978515625 1.4560546875 1.2998046875 1.4580078125 1.34765625 1.4580078125 c 1
 1.3623046875 1.4580078125 1.3798828125 1.4580078125 1.3935546875 1.4580078125 c 1
 1.3857421875 1.41796875 1.3779296875 1.3779296875 1.3701171875 1.337890625 c 1
 1.3583984375 1.2763671875 1.3359375 1.1904296875 1.31640625 1.1484375 c 0
 1.26953125 1.0439453125 1.1484375 0.9462890625 1.0283203125 0.9140625 c 0
 1.0078125 0.908203125 1.005859375 0.90234375 0.990234375 0.8203125 c 1
 0.984375 0.7900390625 0.9775390625 0.76171875 0.9716796875 0.732421875 c 1
 1.0078125 0.732421875 1.0439453125 0.732421875 1.080078125 0.732421875 c 1
 1.1162109375 0.732421875 1.150390625 0.732421875 1.185546875 0.732421875 c 1
 1.181640625 0.7138671875 1.1796875 0.6982421875 1.17578125 0.6796875 c 1
 1.171875 0.662109375 1.169921875 0.6435546875 1.166015625 0.6259765625 c 1
 1.1298828125 0.6259765625 1.095703125 0.6259765625 1.0595703125 0.6259765625 c 1
 1.0244140625 0.6259765625 0.98828125 0.6259765625 0.9521484375 0.6259765625 c 1
 0.9462890625 0.58984375 0.935546875 0.5556640625 0.9296875 0.51953125 c 1
 0.923828125 0.484375 0.916015625 0.4501953125 0.91015625 0.4140625 c 1
 0.8916015625 0.4140625 0.8701171875 0.4140625 0.8515625 0.4140625 c 1
 0.833984375 0.4140625 0.8115234375 0.4140625 0.7939453125 0.4140625 c 1
 0.7998046875 0.4501953125 0.8095703125 0.484375 0.81640625 0.51953125 c 1
 0.822265625 0.5556640625 0.830078125 0.58984375 0.8359375 0.6259765625 c 1
 0.7958984375 0.6259765625 0.759765625 0.6259765625 0.7197265625 0.6259765625 c 1
 0.6796875 0.6259765625 0.646484375 0.6259765625 0.6064453125 0.6259765625 c 1
 0.6103515625 0.6435546875 0.6123046875 0.662109375 0.6162109375 0.6796875 c 1
 0.6201171875 0.6982421875 0.6220703125 0.7138671875 0.6259765625 0.732421875 c 1
 0.666015625 0.732421875 0.7021484375 0.732421875 0.7421875 0.732421875 c 1
 0.7822265625 0.732421875 0.81640625 0.732421875 0.8564453125 0.732421875 c 1
 0.8623046875 0.759765625 0.8662109375 0.7880859375 0.8720703125 0.81640625 c 1
 0.8779296875 0.84375 0.8837890625 0.8720703125 0.8896484375 0.900390625 c 1
 0.8662109375 0.91015625 0.83984375 0.921875 0.81640625 0.931640625 c 1
 0.73046875 0.9677734375 0.666015625 1.0537109375 0.662109375 1.146484375 c 0
 0.66015625 1.1904296875 0.666015625 1.2744140625 0.677734375 1.337890625 c 1
EndSplineSet
Validated: 33
EndChar

StartChar: exclam
Encoding: 33 33 1
Width: 1
Flags: HW
LayerCount: 2
Back
Fore
SplineSet
0.9404296875 0.994140625 m 1
 0.9619140625 1.1015625 0.984375 1.2080078125 1.005859375 1.31640625 c 1
 1.0244140625 1.31640625 1.0458984375 1.31640625 1.064453125 1.31640625 c 1
 1.08203125 1.31640625 1.103515625 1.31640625 1.1220703125 1.31640625 c 1
 1.1015625 1.2080078125 1.08203125 1.09765625 1.0615234375 0.990234375 c 1
 1.0419921875 0.8798828125 1.0224609375 0.7724609375 1.001953125 0.662109375 c 1
 1.0478515625 0.73828125 1.091796875 0.8115234375 1.1376953125 0.8876953125 c 1
 1.2744140625 1.1123046875 1.2744140625 1.1123046875 1.3056640625 1.1142578125 c 0
 1.337890625 1.1162109375 1.3623046875 1.1181640625 1.3759765625 1.1181640625 c 0
 1.3896484375 1.1181640625 1.3935546875 1.1181640625 1.3935546875 1.1162109375 c 0
 1.3916015625 1.1103515625 1.341796875 1.0283203125 1.169921875 0.767578125 c 1
 1.095703125 0.65625 1.0244140625 0.5439453125 0.9501953125 0.431640625 c 1
 1.005859375 0.431640625 1.0576171875 0.431640625 1.1142578125 0.431640625 c 1
 1.25 0.431640625 1.2822265625 0.435546875 1.2939453125 0.4560546875 c 0
 1.3037109375 0.4736328125 1.337890625 0.48828125 1.3564453125 0.48828125 c 0
 1.3662109375 0.48828125 1.3720703125 0.486328125 1.3701171875 0.4775390625 c 0
 1.3681640625 0.4697265625 1.3515625 0.43359375 1.328125 0.3857421875 c 0
 1.2822265625 0.2880859375 1.267578125 0.2724609375 1.232421875 0.2724609375 c 0
 1.2080078125 0.2724609375 1.2060546875 0.2822265625 1.2177734375 0.3095703125 c 0
 1.2177734375 0.314453125 1.2197265625 0.31640625 1.2197265625 0.318359375 c 0
 1.2236328125 0.341796875 1.18359375 0.34375 0.8603515625 0.34375 c 0
 0.50390625 0.34375 0.484375 0.34375 0.4716796875 0.31640625 c 0
 0.4599609375 0.2880859375 0.4404296875 0.2724609375 0.416015625 0.2724609375 c 1
 0.40234375 0.2724609375 0.3896484375 0.2724609375 0.3759765625 0.2724609375 c 1
 0.3935546875 0.3076171875 0.412109375 0.341796875 0.4296875 0.3779296875 c 1
 0.4755859375 0.4677734375 0.490234375 0.484375 0.5283203125 0.484375 c 0
 0.5517578125 0.484375 0.5595703125 0.4775390625 0.5517578125 0.4619140625 c 0
 0.5498046875 0.4580078125 0.5478515625 0.4541015625 0.5478515625 0.4521484375 c 0
 0.5439453125 0.43359375 0.57421875 0.431640625 0.68359375 0.431640625 c 1
 0.734375 0.431640625 0.7822265625 0.431640625 0.83203125 0.431640625 c 1
 0.818359375 0.4921875 0.8037109375 0.5537109375 0.7900390625 0.6142578125 c 1
 0.767578125 0.7099609375 0.7255859375 0.8642578125 0.7001953125 0.9599609375 c 1
 0.68359375 1.013671875 0.669921875 1.0703125 0.654296875 1.1240234375 c 1
 0.673828125 1.1220703125 0.6943359375 1.1201171875 0.7138671875 1.1181640625 c 1
 0.734375 1.1162109375 0.75390625 1.1162109375 0.7744140625 1.1142578125 c 1
 0.7919921875 1.0400390625 0.8056640625 0.9658203125 0.82421875 0.8916015625 c 1
 0.83984375 0.818359375 0.8583984375 0.74609375 0.8740234375 0.671875 c 1
 0.896484375 0.7802734375 0.91796875 0.8857421875 0.9404296875 0.994140625 c 1
EndSplineSet
Validated: 33
EndChar

StartChar: quotedbl
Encoding: 34 34 2
Width: 1
Flags: HW
LayerCount: 2
Back
Fore
SplineSet
0.6318359375 1.2158203125 m 1
 0.6337890625 1.2255859375 0.6337890625 1.236328125 0.6357421875 1.24609375 c 1
 0.67578125 1.24609375 0.7119140625 1.24609375 0.751953125 1.24609375 c 1
 0.7919921875 1.24609375 0.830078125 1.24609375 0.8701171875 1.24609375 c 1
 0.8681640625 1.236328125 0.8662109375 1.2255859375 0.8642578125 1.2158203125 c 1
 0.8583984375 1.1884765625 0.853515625 1.18359375 0.814453125 1.181640625 c 1
 0.7998046875 1.1796875 0.7861328125 1.1796875 0.7724609375 1.177734375 c 1
 0.763671875 1.1396484375 0.755859375 1.103515625 0.748046875 1.06640625 c 1
 0.73828125 1.0283203125 0.734375 0.9921875 0.7236328125 0.9541015625 c 1
 0.736328125 0.9140625 0.75 0.8740234375 0.76171875 0.833984375 c 1
 0.7802734375 0.7763671875 0.8017578125 0.7138671875 0.8037109375 0.7138671875 c 0
 0.8076171875 0.7138671875 0.8662109375 0.83984375 0.912109375 0.9462890625 c 1
 0.9462890625 1.0244140625 0.98046875 1.099609375 1.013671875 1.177734375 c 1
 1.0263671875 1.177734375 1.0380859375 1.177734375 1.0498046875 1.177734375 c 1
 1.076171875 1.177734375 1.08203125 1.17578125 1.080078125 1.16796875 c 0
 1.07421875 1.146484375 1 0.98828125 0.8681640625 0.7021484375 c 1
 0.8583984375 0.677734375 0.845703125 0.654296875 0.8359375 0.6298828125 c 1
 0.82421875 0.6318359375 0.8076171875 0.6318359375 0.7958984375 0.6337890625 c 1
 0.755859375 0.6376953125 0.75390625 0.6416015625 0.7119140625 0.763671875 c 0
 0.681640625 0.8515625 0.6796875 0.8603515625 0.677734375 0.8603515625 c 0
 0.673828125 0.8603515625 0.6259765625 0.8017578125 0.5859375 0.74609375 c 1
 0.5576171875 0.7080078125 0.5302734375 0.669921875 0.501953125 0.6318359375 c 1
 0.48828125 0.6318359375 0.4775390625 0.6318359375 0.4638671875 0.6318359375 c 1
 0.4501953125 0.6318359375 0.4384765625 0.6318359375 0.423828125 0.6318359375 c 1
 0.416015625 0.7197265625 0.412109375 0.8056640625 0.404296875 0.8935546875 c 1
 0.3984375 0.98046875 0.3857421875 1.1201171875 0.3798828125 1.16796875 c 0
 0.3779296875 1.1796875 0.3876953125 1.18359375 0.416015625 1.181640625 c 1
 0.427734375 1.1796875 0.4404296875 1.1796875 0.4521484375 1.177734375 c 1
 0.4560546875 1.1083984375 0.4638671875 1.0400390625 0.4677734375 0.9697265625 c 1
 0.4736328125 0.8818359375 0.48046875 0.7578125 0.48046875 0.7236328125 c 0
 0.48046875 0.7177734375 0.48046875 0.7119140625 0.482421875 0.7119140625 c 0
 0.48828125 0.7119140625 0.509765625 0.73828125 0.57421875 0.82421875 c 1
 0.603515625 0.8642578125 0.6357421875 0.90625 0.666015625 0.9462890625 c 1
 0.671875 0.984375 0.677734375 1.0244140625 0.68359375 1.0615234375 c 1
 0.6923828125 1.099609375 0.6982421875 1.1396484375 0.7060546875 1.177734375 c 1
 0.6943359375 1.1796875 0.677734375 1.1796875 0.666015625 1.181640625 c 1
 0.6298828125 1.18359375 0.6259765625 1.185546875 0.6318359375 1.2158203125 c 1
EndSplineSet
Validated: 1
EndChar

StartChar: parenleft
Encoding: 40 40 3
Width: 1
Flags: HW
LayerCount: 2
Back
Fore
SplineSet
0.76171875 1.009765625 m 1
 0.7744140625 1.0703125 0.7841796875 1.1298828125 0.7958984375 1.1904296875 c 1
 0.8095703125 1.1904296875 0.822265625 1.1904296875 0.8359375 1.1904296875 c 1
 0.849609375 1.1904296875 0.8603515625 1.1904296875 0.8740234375 1.1904296875 c 1
 0.8623046875 1.1298828125 0.8515625 1.0703125 0.83984375 1.009765625 c 1
 0.8076171875 0.845703125 0.8076171875 0.830078125 0.837890625 0.830078125 c 0
 0.8681640625 0.830078125 0.8720703125 0.841796875 0.904296875 1.009765625 c 1
 0.916015625 1.0703125 0.927734375 1.1298828125 0.9404296875 1.1904296875 c 1
 0.9541015625 1.1904296875 0.9638671875 1.1904296875 0.9775390625 1.1904296875 c 1
 0.9921875 1.1904296875 1.00390625 1.1904296875 1.017578125 1.1904296875 c 1
 1.005859375 1.1298828125 0.994140625 1.0703125 0.982421875 1.009765625 c 1
 0.9697265625 0.9501953125 0.9599609375 0.8896484375 0.9482421875 0.830078125 c 1
 0.9775390625 0.830078125 1.00390625 0.830078125 1.0341796875 0.830078125 c 1
 1.064453125 0.830078125 1.091796875 0.830078125 1.1220703125 0.830078125 c 1
 1.1015625 0.7236328125 1.080078125 0.6201171875 1.0595703125 0.513671875 c 1
 1.0400390625 0.408203125 1.01953125 0.3037109375 1 0.1982421875 c 1
 0.90234375 0.1982421875 0.8037109375 0.1982421875 0.7060546875 0.1982421875 c 1
 0.6083984375 0.1982421875 0.509765625 0.1982421875 0.412109375 0.1982421875 c 1
 0.431640625 0.3037109375 0.4541015625 0.408203125 0.4736328125 0.513671875 c 1
 0.494140625 0.6201171875 0.513671875 0.7236328125 0.5341796875 0.830078125 c 1
 0.56640625 0.830078125 0.59765625 0.830078125 0.6298828125 0.830078125 c 1
 0.662109375 0.830078125 0.6943359375 0.830078125 0.7255859375 0.830078125 c 1
 0.73828125 0.8896484375 0.75 0.9501953125 0.76171875 1.009765625 c 1
0.9921875 0.501953125 m 1
 1.005859375 0.580078125 1.01953125 0.658203125 1.0341796875 0.736328125 c 1
 0.9619140625 0.73828125 0.8857421875 0.740234375 0.814453125 0.7421875 c 1
 0.7421875 0.744140625 0.669921875 0.74609375 0.59765625 0.748046875 c 1
 0.58203125 0.66796875 0.568359375 0.5859375 0.5517578125 0.505859375 c 1
 0.5361328125 0.42578125 0.51953125 0.345703125 0.50390625 0.265625 c 1
 0.578125 0.265625 0.654296875 0.265625 0.7275390625 0.265625 c 1
 0.8017578125 0.265625 0.8779296875 0.265625 0.9521484375 0.265625 c 1
 0.9658203125 0.34375 0.9775390625 0.423828125 0.9921875 0.501953125 c 1
EndSplineSet
Validated: 33
EndChar

StartChar: parenright
Encoding: 41 41 4
Width: 1
Flags: HW
LayerCount: 2
Back
Fore
SplineSet
1.2255859375 0.759765625 m 0xd940
 1.259765625 0.7783203125 1.2919921875 0.7861328125 1.326171875 0.7861328125 c 0
 1.404296875 0.7861328125 1.4736328125 0.740234375 1.498046875 0.66015625 c 0
 1.505859375 0.6279296875 1.505859375 0.591796875 1.5 0.5595703125 c 0
 1.4755859375 0.4404296875 1.3603515625 0.333984375 1.248046875 0.333984375 c 0
 1.2177734375 0.333984375 1.1884765625 0.341796875 1.162109375 0.3583984375 c 0
 1.09375 0.400390625 1.07421875 0.484375 1.08984375 0.568359375 c 0
 1.103515625 0.6435546875 1.15234375 0.7197265625 1.2255859375 0.759765625 c 0xd940
1.3857421875 0.658203125 m 0
 1.3681640625 0.6796875 1.345703125 0.6904296875 1.322265625 0.6904296875 c 0
 1.2861328125 0.6904296875 1.2421875 0.66796875 1.2041015625 0.6259765625 c 0
 1.181640625 0.6015625 1.171875 0.583984375 1.16796875 0.564453125 c 0
 1.1640625 0.5439453125 1.16796875 0.5244140625 1.1796875 0.5 c 0
 1.2021484375 0.4580078125 1.236328125 0.435546875 1.2724609375 0.435546875 c 0
 1.2958984375 0.435546875 1.322265625 0.4462890625 1.34765625 0.4677734375 c 0
 1.3798828125 0.494140625 1.400390625 0.5302734375 1.40625 0.564453125 c 0
 1.412109375 0.59765625 1.40625 0.6318359375 1.3857421875 0.658203125 c 0
0.6923828125 0.76953125 m 0
 0.7197265625 0.7841796875 0.74609375 0.7900390625 0.7724609375 0.7900390625 c 0
 0.8798828125 0.7900390625 0.9599609375 0.68359375 0.935546875 0.5595703125 c 0x9a40
 0.931640625 0.5400390625 0.923828125 0.517578125 0.9140625 0.49609375 c 0
 0.8662109375 0.396484375 0.7763671875 0.33984375 0.6923828125 0.33984375 c 0
 0.6396484375 0.33984375 0.58984375 0.3623046875 0.5537109375 0.40625 c 0
 0.517578125 0.4501953125 0.505859375 0.50390625 0.515625 0.5576171875 c 0
 0.5244140625 0.59765625 0.5419921875 0.6376953125 0.57421875 0.67578125 c 0
 0.6083984375 0.7158203125 0.654296875 0.751953125 0.6923828125 0.76953125 c 0
0.826171875 0.65625 m 0xdc40
 0.8076171875 0.6796875 0.7822265625 0.6904296875 0.75390625 0.6904296875 c 0
 0.6943359375 0.6904296875 0.6259765625 0.6396484375 0.6123046875 0.564453125 c 0
 0.59765625 0.4921875 0.6376953125 0.43359375 0.7021484375 0.43359375 c 0
 0.76953125 0.43359375 0.83203125 0.5 0.84375 0.56640625 c 0xda40
 0.849609375 0.59765625 0.845703125 0.6298828125 0.826171875 0.65625 c 0xdc40
0.9755859375 1.1162109375 m 0
 1.0302734375 1.1640625 1.0517578125 1.173828125 1.103515625 1.173828125 c 0
 1.2099609375 1.173828125 1.267578125 1.1376953125 1.2919921875 1.0576171875 c 0
 1.3017578125 1.0244140625 1.3017578125 0.990234375 1.2958984375 0.9580078125 c 0
 1.2822265625 0.8857421875 1.232421875 0.8203125 1.15234375 0.767578125 c 0
 1.1123046875 0.7421875 1.080078125 0.73046875 1.0458984375 0.73046875 c 0
 1.01953125 0.73046875 0.994140625 0.736328125 0.9677734375 0.751953125 c 0
 0.8896484375 0.7958984375 0.8681640625 0.8681640625 0.8876953125 0.9755859375 c 0xbcc0
 0.900390625 1.0361328125 0.91796875 1.064453125 0.9755859375 1.1162109375 c 0
1.1943359375 1.0400390625 m 0
 1.173828125 1.06640625 1.1435546875 1.08203125 1.1064453125 1.08203125 c 0
 1.0380859375 1.08203125 0.984375 1.0244140625 0.9716796875 0.9619140625 c 0
 0.9638671875 0.921875 0.9716796875 0.8818359375 1.00390625 0.8515625 c 0
 1.0224609375 0.833984375 1.0458984375 0.828125 1.068359375 0.828125 c 0
 1.1318359375 0.828125 1.2001953125 0.8896484375 1.2119140625 0.9560546875 c 0
 1.2177734375 0.984375 1.2138671875 1.013671875 1.1943359375 1.0400390625 c 0
EndSplineSet
Validated: 33
EndChar

StartChar: comma
Encoding: 44 44 5
Width: 1
Flags: HW
CounterMasks: 1 1c
LayerCount: 2
Back
Fore
SplineSet
0.484375 0.830078125 m 1
 0.505859375 0.9462890625 0.5283203125 1.0595703125 0.5498046875 1.17578125 c 1
 0.658203125 1.17578125 0.763671875 1.17578125 0.8720703125 1.17578125 c 1
 0.9775390625 1.17578125 1.0859375 1.17578125 1.1923828125 1.17578125 c 1
 1.169921875 1.0595703125 1.1484375 0.9462890625 1.1259765625 0.830078125 c 1
 1.103515625 0.7138671875 1.080078125 0.599609375 1.0576171875 0.484375 c 1
 1.01171875 0.484375 0.9638671875 0.484375 0.91796875 0.484375 c 1
 0.8720703125 0.484375 0.82421875 0.484375 0.7783203125 0.484375 c 1
 0.7744140625 0.4638671875 0.7724609375 0.4443359375 0.767578125 0.423828125 c 1
 0.755859375 0.3623046875 l 0
 0.8984375 0.3623046875 0.90234375 0.3603515625 0.8916015625 0.3076171875 c 0
 0.8818359375 0.255859375 0.8759765625 0.25390625 0.734375 0.25390625 c 0
 0.7119140625 0.1396484375 0.7080078125 0.1298828125 0.669921875 0.1298828125 c 0
 0.6318359375 0.1298828125 0.6279296875 0.1396484375 0.6416015625 0.2119140625 c 0
 0.646484375 0.236328125 0.650390625 0.25390625 0.65234375 0.25390625 c 0
 0.509765625 0.25390625 0.50390625 0.255859375 0.513671875 0.3076171875 c 0
 0.5244140625 0.3603515625 0.5322265625 0.3623046875 0.673828125 0.3623046875 c 0
 0.671875 0.3623046875 0.677734375 0.3876953125 0.68359375 0.423828125 c 1
 0.6884765625 0.4443359375 0.6923828125 0.4638671875 0.6962890625 0.484375 c 1
 0.650390625 0.484375 0.6015625 0.484375 0.5556640625 0.484375 c 1
 0.509765625 0.484375 0.4619140625 0.484375 0.416015625 0.484375 c 1
 0.4384765625 0.599609375 0.4619140625 0.7138671875 0.484375 0.830078125 c 1
1.0439453125 0.830078125 m 1
 1.0595703125 0.916015625 1.078125 1 1.09375 1.0859375 c 1
 1.013671875 1.0859375 0.935546875 1.0859375 0.8564453125 1.0859375 c 1
 0.7763671875 1.0859375 0.6962890625 1.0859375 0.6162109375 1.0859375 c 1
 0.599609375 1 0.58203125 0.916015625 0.56640625 0.830078125 c 1
 0.5498046875 0.744140625 0.5322265625 0.66015625 0.515625 0.57421875 c 1
 0.595703125 0.57421875 0.67578125 0.57421875 0.755859375 0.57421875 c 1
 0.8359375 0.57421875 0.9140625 0.57421875 0.994140625 0.57421875 c 1
 1.009765625 0.66015625 1.0283203125 0.744140625 1.0439453125 0.830078125 c 1
EndSplineSet
Validated: 33
EndChar

StartChar: period
Encoding: 46 46 6
Width: 1
Flags: HW
LayerCount: 2
Back
Fore
SplineSet
0.658203125 1.1376953125 m 0xfa80
 0.7275390625 1.166015625 0.7880859375 1.177734375 0.845703125 1.1796875 c 0
 0.84765625 1.1796875 0.8515625 1.1796875 0.853515625 1.1796875 c 0
 1.013671875 1.1796875 1.078125 1.087890625 1.0439453125 0.908203125 c 0
 1.0244140625 0.7998046875 0.98046875 0.74609375 0.7763671875 0.5615234375 c 1
 0.7158203125 0.5078125 0.65625 0.4541015625 0.595703125 0.400390625 c 1
 0.666015625 0.400390625 0.740234375 0.400390625 0.8095703125 0.400390625 c 1
 0.8798828125 0.400390625 0.9541015625 0.400390625 1.0244140625 0.400390625 c 1
 1.0419921875 0.4921875 1.0595703125 0.5859375 1.078125 0.677734375 c 1
 1.095703125 0.76953125 1.1142578125 0.8642578125 1.1318359375 0.9560546875 c 1
 1.1484375 0.9560546875 1.1640625 0.9560546875 1.1796875 0.9560546875 c 1
 1.1962890625 0.9560546875 1.2138671875 0.9560546875 1.23046875 0.9560546875 c 1
 1.2119140625 0.8642578125 1.1943359375 0.76953125 1.17578125 0.677734375 c 1
 1.158203125 0.5859375 1.1376953125 0.4921875 1.1201171875 0.400390625 c 1
 1.1904296875 0.400390625 1.263671875 0.400390625 1.333984375 0.400390625 c 1
 1.40625 0.400390625 1.4775390625 0.400390625 1.5498046875 0.400390625 c 1
 1.509765625 0.4541015625 1.4716796875 0.505859375 1.431640625 0.5595703125 c 1
 1.3662109375 0.650390625 1.3095703125 0.75 1.2958984375 0.7958984375 c 0
 1.2880859375 0.828125 1.2900390625 0.8720703125 1.2978515625 0.916015625 c 0
 1.3095703125 0.98046875 1.337890625 1.0478515625 1.3740234375 1.08984375 c 0
 1.423828125 1.1484375 1.5 1.177734375 1.583984375 1.177734375 c 0
 1.65234375 1.177734375 1.73046875 1.15625 1.8037109375 1.1162109375 c 0
 1.8359375 1.09765625 1.8359375 1.091796875 1.826171875 1.0361328125 c 1
 1.822265625 1.015625 1.818359375 0.994140625 1.814453125 0.9736328125 c 1
 1.7919921875 0.9921875 1.76953125 1.0078125 1.748046875 1.0263671875 c 1
 1.7021484375 1.0615234375 1.6484375 1.080078125 1.599609375 1.080078125 c 0
 1.50390625 1.080078125 1.41796875 1.013671875 1.396484375 0.900390625 c 0
 1.3818359375 0.826171875 1.408203125 0.7744140625 1.5419921875 0.58984375 c 0
 1.654296875 0.435546875 1.6923828125 0.3662109375 1.685546875 0.330078125 c 0
 1.681640625 0.3056640625 1.67578125 0.3037109375 1.3896484375 0.2998046875 c 1
 1.2919921875 0.2978515625 1.1982421875 0.2978515625 1.099609375 0.2958984375 c 1
 1.09375 0.265625 1.08984375 0.23828125 1.083984375 0.2080078125 c 1
 1.068359375 0.1220703125 1.06640625 0.1220703125 1.017578125 0.1220703125 c 0
 0.9697265625 0.1220703125 0.9697265625 0.1220703125 0.986328125 0.2080078125 c 1
 0.9921875 0.23828125 0.998046875 0.265625 1.00390625 0.2958984375 c 1
 0.908203125 0.2978515625 0.8115234375 0.2978515625 0.7158203125 0.2998046875 c 1
 0.7080078125 0.2998046875 0.7001953125 0.2998046875 0.6923828125 0.2998046875 c 0
 0.486328125 0.3037109375 0.41015625 0.3037109375 0.416015625 0.337890625 c 0
 0.419921875 0.3583984375 0.4580078125 0.3896484375 0.515625 0.4443359375 c 0
 0.51953125 0.4482421875 0.5224609375 0.4501953125 0.5263671875 0.4541015625 c 0
 0.74609375 0.65234375 0.8779296875 0.7783203125 0.912109375 0.830078125 c 0
 0.927734375 0.8515625 0.935546875 0.8798828125 0.9423828125 0.908203125 c 0
 0.9521484375 0.9638671875 0.9462890625 1.0224609375 0.919921875 1.0498046875 c 0
 0.900390625 1.0703125 0.8662109375 1.080078125 0.826171875 1.080078125 c 0
 0.751953125 1.080078125 0.65234375 1.0478515625 0.580078125 0.990234375 c 0
 0.5556640625 0.9697265625 0.5537109375 0.9716796875 0.5595703125 1.00390625 c 0
 0.576171875 1.08984375 0.591796875 1.1123046875 0.658203125 1.1376953125 c 0xfa80
1.1484375 1.232421875 m 0
 1.177734375 1.255859375 1.2138671875 1.26953125 1.244140625 1.26953125 c 0
 1.2763671875 1.26953125 1.3017578125 1.255859375 1.32421875 1.232421875 c 0
 1.3515625 1.2021484375 1.3564453125 1.162109375 1.34765625 1.1220703125 c 0
 1.333984375 1.0458984375 1.267578125 0.9736328125 1.18359375 0.9736328125 c 0
 1.1015625 0.9736328125 1.06640625 1.0458984375 1.080078125 1.1220703125 c 0xf7
 1.087890625 1.162109375 1.1083984375 1.2021484375 1.1484375 1.232421875 c 0
1.26953125 1.18359375 m 0
 1.259765625 1.1923828125 1.24609375 1.1962890625 1.232421875 1.1962890625 c 0
 1.1923828125 1.1962890625 1.1416015625 1.1640625 1.1337890625 1.1240234375 c 0
 1.1259765625 1.083984375 1.15625 1.0439453125 1.1962890625 1.0439453125 c 0
 1.23828125 1.0439453125 1.2783203125 1.087890625 1.2861328125 1.1298828125 c 0
 1.2900390625 1.150390625 1.2841796875 1.171875 1.26953125 1.18359375 c 0
EndSplineSet
Validated: 33
EndChar

StartChar: zero
Encoding: 48 48 7
Width: 1
Flags: HW
CounterMasks: 1 38
LayerCount: 2
Back
Fore
SplineSet
0.7041015625 1.087890625 m 0
 0.7099609375 1.1142578125 0.748046875 1.1181640625 0.9755859375 1.1181640625 c 0
 1.2041015625 1.1181640625 1.244140625 1.1142578125 1.23828125 1.087890625 c 0
 1.234375 1.068359375 1.2099609375 1.0615234375 1.1298828125 1.0615234375 c 1
 1.09375 1.0615234375 1.0595703125 1.0615234375 1.0244140625 1.0615234375 c 1
 1.009765625 0.986328125 0.994140625 0.908203125 0.98046875 0.83203125 c 1
 0.9541015625 0.7001953125 0.9384765625 0.599609375 0.9443359375 0.599609375 c 0
 0.9462890625 0.599609375 0.9677734375 0.6103515625 0.9921875 0.6220703125 c 0
 1.0322265625 0.6416015625 1.0517578125 0.650390625 1.07421875 0.650390625 c 0
 1.0859375 0.650390625 1.095703125 0.646484375 1.1083984375 0.6416015625 c 0
 1.2041015625 0.6064453125 1.2763671875 0.484375 1.255859375 0.3857421875 c 0
 1.25 0.349609375 1.234375 0.33984375 1.1923828125 0.33984375 c 0
 1.154296875 0.33984375 1.1435546875 0.34765625 1.150390625 0.3740234375 c 0
 1.15625 0.40625 1.150390625 0.4521484375 1.1337890625 0.490234375 c 0
 1.1142578125 0.5361328125 1.083984375 0.5595703125 1.0498046875 0.5595703125 c 0
 0.998046875 0.5595703125 0.9384765625 0.501953125 0.8916015625 0.400390625 c 0
 0.8720703125 0.3515625 0.8603515625 0.33984375 0.826171875 0.33984375 c 0
 0.7919921875 0.33984375 0.7822265625 0.3515625 0.7802734375 0.400390625 c 0
 0.7744140625 0.501953125 0.73828125 0.5595703125 0.685546875 0.5595703125 c 0
 0.65234375 0.5595703125 0.6142578125 0.5361328125 0.576171875 0.490234375 c 0
 0.5439453125 0.4521484375 0.51953125 0.40625 0.513671875 0.3740234375 c 0
 0.5078125 0.34765625 0.49609375 0.33984375 0.4521484375 0.33984375 c 0
 0.412109375 0.33984375 0.404296875 0.345703125 0.41015625 0.3759765625 c 0
 0.4296875 0.482421875 0.5419921875 0.603515625 0.65625 0.6416015625 c 0
 0.669921875 0.646484375 0.68359375 0.650390625 0.6962890625 0.650390625 c 0
 0.7177734375 0.650390625 0.73828125 0.6396484375 0.767578125 0.6220703125 c 0
 0.7880859375 0.6103515625 0.8037109375 0.599609375 0.8056640625 0.599609375 c 0
 0.8115234375 0.599609375 0.8359375 0.7001953125 0.8623046875 0.83203125 c 1
 0.8759765625 0.908203125 0.8916015625 0.986328125 0.90625 1.0615234375 c 1
 0.8701171875 1.0615234375 0.837890625 1.0615234375 0.8017578125 1.0615234375 c 1
 0.7216796875 1.0615234375 0.7001953125 1.068359375 0.7041015625 1.087890625 c 0
EndSplineSet
Validated: 33
EndChar

StartChar: one
Encoding: 49 49 8
Width: 1
Flags: HW
LayerCount: 2
Back
Fore
SplineSet
0.7041015625 1.2744140625 m 0
 0.7421875 1.3017578125 0.7783203125 1.31640625 0.814453125 1.31640625 c 0
 0.8564453125 1.31640625 0.896484375 1.2958984375 0.9384765625 1.25390625 c 0
 0.9462890625 1.24609375 0.9482421875 1.24609375 0.9541015625 1.251953125 c 0
 0.998046875 1.2939453125 1.0380859375 1.314453125 1.078125 1.314453125 c 0
 1.1181640625 1.314453125 1.158203125 1.2939453125 1.1962890625 1.25390625 c 0
 1.2021484375 1.248046875 1.2021484375 1.248046875 1.2119140625 1.255859375 c 0
 1.259765625 1.2919921875 1.3095703125 1.3076171875 1.349609375 1.3076171875 c 0
 1.4443359375 1.3076171875 1.509765625 1.2197265625 1.501953125 1.072265625 c 0
 1.501953125 1.0498046875 1.498046875 1.0302734375 1.494140625 1.0078125 c 0
 1.4521484375 0.7958984375 1.2744140625 0.587890625 1.0556640625 0.513671875 c 0
 1.005859375 0.498046875 0.998046875 0.486328125 0.9775390625 0.4140625 c 1
 0.9697265625 0.3857421875 0.9638671875 0.3603515625 0.9560546875 0.33203125 c 1
 0.98046875 0.33203125 1.0078125 0.33203125 1.0322265625 0.33203125 c 1
 1.0859375 0.33203125 1.103515625 0.32421875 1.099609375 0.3017578125 c 0
 1.095703125 0.2822265625 1.078125 0.2744140625 1.0224609375 0.2744140625 c 1
 0.998046875 0.2744140625 0.9716796875 0.2744140625 0.9482421875 0.2744140625 c 1
 0.9423828125 0.248046875 0.9384765625 0.2197265625 0.931640625 0.1943359375 c 1
 0.916015625 0.1162109375 0.916015625 0.1142578125 0.8515625 0.1142578125 c 0
 0.7880859375 0.1142578125 0.7880859375 0.1142578125 0.8037109375 0.1943359375 c 1
 0.8095703125 0.2197265625 0.814453125 0.248046875 0.8203125 0.2744140625 c 1
 0.7958984375 0.2744140625 0.767578125 0.2744140625 0.744140625 0.2744140625 c 1
 0.6884765625 0.2744140625 0.673828125 0.2822265625 0.677734375 0.3017578125 c 0
 0.681640625 0.32421875 0.7041015625 0.33203125 0.7578125 0.33203125 c 1
 0.7822265625 0.33203125 0.8076171875 0.33203125 0.83203125 0.33203125 c 1
 0.8359375 0.3603515625 0.83984375 0.3876953125 0.84375 0.416015625 c 1
 0.8515625 0.48828125 0.849609375 0.5 0.8115234375 0.509765625 c 0
 0.6142578125 0.568359375 0.515625 0.818359375 0.5556640625 1.0283203125 c 0
 0.576171875 1.1259765625 0.6240234375 1.2158203125 0.7041015625 1.2744140625 c 0
0.8720703125 1.1982421875 m 0
 0.8603515625 1.2138671875 0.84375 1.2236328125 0.826171875 1.2236328125 c 0
 0.7783203125 1.2236328125 0.7158203125 1.16796875 0.7021484375 1.091796875 c 1
 0.6982421875 1.076171875 0.6962890625 1.0615234375 0.6923828125 1.0458984375 c 1
 0.8056640625 1.0458984375 0.91796875 1.0458984375 1.0322265625 1.0458984375 c 1
 1.146484375 1.0458984375 1.259765625 1.0458984375 1.3740234375 1.0458984375 c 1
 1.3779296875 1.0615234375 1.3798828125 1.078125 1.3837890625 1.09375 c 1
 1.3896484375 1.1201171875 1.3818359375 1.16015625 1.3681640625 1.185546875 c 0
 1.353515625 1.2099609375 1.333984375 1.2216796875 1.3115234375 1.2216796875 c 0
 1.2744140625 1.2216796875 1.234375 1.1904296875 1.2099609375 1.1337890625 c 0
 1.1923828125 1.09375 1.166015625 1.068359375 1.15234375 1.068359375 c 0
 1.1435546875 1.068359375 1.1396484375 1.076171875 1.1435546875 1.095703125 c 0
 1.15625 1.158203125 1.1162109375 1.2236328125 1.06640625 1.2236328125 c 0
 1.0224609375 1.2236328125 0.9638671875 1.171875 0.9443359375 1.1162109375 c 0
 0.931640625 1.0859375 0.916015625 1.0703125 0.90234375 1.0703125 c 0
 0.8896484375 1.0703125 0.8818359375 1.08203125 0.8876953125 1.1103515625 c 0
 0.8935546875 1.1416015625 0.8876953125 1.17578125 0.8720703125 1.1982421875 c 0
1.34375 0.921875 m 1
 1.3515625 0.9443359375 1.3603515625 0.9638671875 1.3681640625 0.986328125 c 1
 1.251953125 0.986328125 1.1376953125 0.986328125 1.0224609375 0.986328125 c 1
 1 0.986328125 0.98046875 0.986328125 0.9619140625 0.986328125 c 0
 0.9462890625 0.986328125 0.92578125 0.986328125 0.912109375 0.986328125 c 0
 0.7158203125 0.986328125 0.673828125 0.984375 0.66796875 0.9580078125 c 0
 0.666015625 0.9501953125 0.66796875 0.9404296875 0.669921875 0.92578125 c 0
 0.671875 0.921875 0.669921875 0.91796875 0.671875 0.9140625 c 0
 0.7099609375 0.7236328125 0.82421875 0.6123046875 0.9580078125 0.6123046875 c 0
 1.001953125 0.6123046875 1.0498046875 0.6259765625 1.09765625 0.65234375 c 0
 1.1982421875 0.7060546875 1.3076171875 0.826171875 1.34375 0.921875 c 1
EndSplineSet
Validated: 33
EndChar

StartChar: two
Encoding: 50 50 9
Width: 1
Flags: HW
LayerCount: 2
Back
Fore
SplineSet
1.3076171875 1.4658203125 m 0
 1.34375 1.4736328125 1.3798828125 1.4775390625 1.4140625 1.4775390625 c 0
 1.5615234375 1.4775390625 1.6884765625 1.3984375 1.767578125 1.25 c 0
 1.7998046875 1.1904296875 1.8017578125 1.16015625 1.7744140625 1.01171875 c 0
 1.744140625 0.8583984375 1.7275390625 0.822265625 1.6435546875 0.7216796875 c 1
 1.6123046875 0.68359375 1.578125 0.646484375 1.5458984375 0.6083984375 c 1
 1.578125 0.5263671875 1.6103515625 0.4423828125 1.6416015625 0.3603515625 c 1
 1.73046875 0.1376953125 1.74609375 0.1123046875 1.8203125 0.1123046875 c 0
 1.8642578125 0.1123046875 1.8701171875 0.099609375 1.8583984375 0.0361328125 c 1
 1.8515625 0.009765625 1.84765625 -0.015625 1.841796875 -0.0419921875 c 1
 1.7763671875 -0.0419921875 1.7060546875 -0.0419921875 1.6396484375 -0.0419921875 c 1
 1.57421875 -0.0419921875 1.50390625 -0.0419921875 1.4384765625 -0.0419921875 c 1
 1.4443359375 -0.015625 1.4462890625 0.009765625 1.4521484375 0.0361328125 c 1
 1.4638671875 0.1015625 1.48046875 0.1123046875 1.5458984375 0.1123046875 c 0
 1.5595703125 0.1123046875 1.568359375 0.1142578125 1.5703125 0.1240234375 c 0
 1.57421875 0.1435546875 1.5556640625 0.1943359375 1.505859375 0.32421875 c 1
 1.4775390625 0.3935546875 1.4521484375 0.4658203125 1.423828125 0.5361328125 c 1
 1.3623046875 0.5361328125 1.2998046875 0.5361328125 1.23828125 0.5361328125 c 1
 1.173828125 0.5361328125 1.1142578125 0.5361328125 1.0498046875 0.5361328125 c 1
 0.99609375 0.4658203125 0.9423828125 0.3935546875 0.8876953125 0.32421875 c 1
 0.7900390625 0.1962890625 0.751953125 0.1435546875 0.748046875 0.1240234375 c 0
 0.74609375 0.1123046875 0.755859375 0.1123046875 0.76953125 0.1123046875 c 0
 0.8359375 0.1123046875 0.84375 0.1015625 0.83203125 0.0361328125 c 1
 0.826171875 0.009765625 0.82421875 -0.015625 0.818359375 -0.0419921875 c 1
 0.751953125 -0.0419921875 0.6796875 -0.0419921875 0.6142578125 -0.0419921875 c 1
 0.5478515625 -0.0419921875 0.4775390625 -0.0419921875 0.412109375 -0.0419921875 c 1
 0.41796875 -0.015625 0.421875 0.009765625 0.427734375 0.0361328125 c 1
 0.4404296875 0.1015625 0.4482421875 0.1123046875 0.4921875 0.1123046875 c 0
 0.56640625 0.1123046875 0.599609375 0.1396484375 0.767578125 0.3623046875 c 1
 0.830078125 0.4462890625 0.896484375 0.5283203125 0.9580078125 0.6123046875 c 1
 0.9404296875 0.6484375 0.92578125 0.68359375 0.908203125 0.7197265625 c 1
 0.8662109375 0.8115234375 0.8583984375 0.912109375 0.8779296875 1.009765625 c 0
 0.91796875 1.2197265625 1.08203125 1.4140625 1.3076171875 1.4658203125 c 0
1.57421875 1.2763671875 m 0
 1.5263671875 1.33203125 1.4921875 1.34375 1.3876953125 1.34375 c 0
 1.2880859375 1.34375 1.26171875 1.333984375 1.1962890625 1.2763671875 c 0
 1.083984375 1.17578125 1.0244140625 1.083984375 1.005859375 0.994140625 c 0
 0.998046875 0.9501953125 1 0.904296875 1.01171875 0.8583984375 c 0
 1.0478515625 0.7216796875 1.146484375 0.654296875 1.2578125 0.654296875 c 0
 1.3759765625 0.654296875 1.505859375 0.7275390625 1.595703125 0.8759765625 c 0
 1.6259765625 0.923828125 1.646484375 0.9697265625 1.654296875 1.013671875 c 0
 1.671875 1.1064453125 1.646484375 1.1943359375 1.57421875 1.2763671875 c 0
EndSplineSet
Validated: 33
EndChar

StartChar: three
Encoding: 51 51 10
Width: 1
Flags: HW
LayerCount: 2
Back
Fore
SplineSet
0.4423828125 0.751953125 m 1
 0.4716796875 0.908203125 0.501953125 1.064453125 0.5322265625 1.2197265625 c 1
 0.677734375 1.2197265625 0.8203125 1.2197265625 0.9658203125 1.2197265625 c 1
 1.1123046875 1.2197265625 1.25390625 1.2197265625 1.400390625 1.2197265625 c 1
 1.3701171875 1.064453125 1.33984375 0.908203125 1.3095703125 0.751953125 c 1
 1.2802734375 0.595703125 1.25 0.4423828125 1.2197265625 0.2861328125 c 1
 1.1796875 0.2861328125 1.1337890625 0.2861328125 1.09375 0.2861328125 c 1
 1.0537109375 0.2861328125 1.009765625 0.2861328125 0.9697265625 0.2861328125 c 1
 0.9638671875 0.25390625 0.9580078125 0.2216796875 0.9521484375 0.1904296875 c 1
 0.9462890625 0.158203125 0.9384765625 0.1279296875 0.931640625 0.095703125 c 1
 0.8701171875 0.095703125 0.8076171875 0.095703125 0.74609375 0.095703125 c 1
 0.68359375 0.095703125 0.6220703125 0.095703125 0.5595703125 0.095703125 c 1
 0.56640625 0.1279296875 0.57421875 0.158203125 0.580078125 0.1904296875 c 1
 0.5859375 0.2216796875 0.591796875 0.25390625 0.59765625 0.2861328125 c 1
 0.5576171875 0.2861328125 0.515625 0.2861328125 0.4755859375 0.2861328125 c 1
 0.435546875 0.2861328125 0.3896484375 0.2861328125 0.349609375 0.2861328125 c 1
 0.3798828125 0.4423828125 0.412109375 0.595703125 0.4423828125 0.751953125 c 1
1.2197265625 0.751953125 m 1
 1.244140625 0.8759765625 1.267578125 1 1.2919921875 1.1240234375 c 1
 1.1796875 1.1240234375 1.0703125 1.1240234375 0.9580078125 1.1240234375 c 1
 0.7841796875 1.1240234375 0.6181640625 1.1181640625 0.6123046875 1.1123046875 c 0
 0.6064453125 1.1064453125 0.564453125 0.9296875 0.5283203125 0.740234375 c 1
 0.50390625 0.6201171875 0.482421875 0.5 0.4580078125 0.3798828125 c 1
 0.498046875 0.3798828125 0.5400390625 0.3798828125 0.580078125 0.3798828125 c 1
 0.6201171875 0.3798828125 0.666015625 0.3798828125 0.7060546875 0.3798828125 c 1
 0.7001953125 0.34765625 0.6943359375 0.318359375 0.6884765625 0.2861328125 c 1
 0.681640625 0.25390625 0.673828125 0.2216796875 0.66796875 0.1904296875 c 1
 0.7001953125 0.1904296875 0.734375 0.1904296875 0.765625 0.1904296875 c 1
 0.7998046875 0.1904296875 0.830078125 0.1904296875 0.8642578125 0.1904296875 c 1
 0.8701171875 0.2216796875 0.8759765625 0.25390625 0.8818359375 0.2861328125 c 1
 0.8876953125 0.318359375 0.8935546875 0.34765625 0.900390625 0.3798828125 c 1
 0.9404296875 0.3798828125 0.984375 0.3798828125 1.0244140625 0.3798828125 c 1
 1.064453125 0.3798828125 1.1083984375 0.3798828125 1.1484375 0.3798828125 c 1
 1.171875 0.50390625 1.1962890625 0.6279296875 1.2197265625 0.751953125 c 1
EndSplineSet
Validated: 1
EndChar

StartChar: four
Encoding: 52 52 11
Width: 1
Flags: HW
LayerCount: 2
Back
Fore
SplineSet
1.48046875 1.171875 m 0
 1.837890625 1.4140625 2.087890625 1.578125 2.099609375 1.578125 c 0
 2.103515625 1.578125 2.1083984375 1.5615234375 2.1103515625 1.5517578125 c 0
 2.1123046875 1.5478515625 2.1123046875 1.5439453125 2.1123046875 1.5400390625 c 0
 2.103515625 1.498046875 2.0302734375 1.40234375 1.8681640625 1.2158203125 c 0
 1.7421875 1.0703125 1.6220703125 0.92578125 1.6240234375 0.921875 c 0
 1.6259765625 0.921875 l 0
 1.6396484375 0.921875 1.7822265625 0.9697265625 1.9638671875 1.0400390625 c 0
 2.1796875 1.1201171875 2.2841796875 1.15625 2.31640625 1.15625 c 0
 2.326171875 1.15625 2.326171875 1.154296875 2.326171875 1.150390625 c 0
 2.3095703125 1.072265625 1.0595703125 0.15625 0.8740234375 0.0859375 c 0
 0.8583984375 0.080078125 0.841796875 0.078125 0.826171875 0.078125 c 0
 0.6923828125 0.078125 0.5859375 0.2802734375 0.6181640625 0.4482421875 c 0
 0.6240234375 0.484375 0.6396484375 0.51953125 0.66015625 0.5498046875 c 0
 0.73046875 0.650390625 0.91796875 0.7919921875 1.48046875 1.171875 c 0
1.564453125 0.98828125 m 0
 1.56640625 0.990234375 1.751953125 1.2197265625 1.740234375 1.2197265625 c 0
 1.73046875 1.2197265625 1.587890625 1.1298828125 1.40625 1.0078125 c 1
 1.2958984375 0.93359375 1.1884765625 0.8623046875 1.078125 0.7880859375 c 1
 1.099609375 0.7744140625 1.1201171875 0.7578125 1.1416015625 0.744140625 c 1
 1.2216796875 0.685546875 1.2763671875 0.568359375 1.2578125 0.48046875 c 0
 1.25390625 0.4580078125 1.251953125 0.427734375 1.255859375 0.427734375 c 0
 1.267578125 0.427734375 1.833984375 0.833984375 1.8916015625 0.8837890625 c 0
 1.896484375 0.8876953125 1.90234375 0.8916015625 1.90234375 0.8935546875 c 0
 1.90234375 0.896484375 1.900390625 0.900390625 1.8935546875 0.900390625 c 0
 1.8642578125 0.900390625 1.751953125 0.8662109375 1.5322265625 0.7919921875 c 0
 1.4580078125 0.767578125 1.40234375 0.75 1.3935546875 0.75 c 0
 1.3916015625 0.75 1.3896484375 0.751953125 1.3896484375 0.755859375 c 0
 1.3935546875 0.7763671875 1.4521484375 0.8515625 1.564453125 0.98828125 c 0
1.0595703125 0.658203125 m 0
 1.0380859375 0.67578125 1.015625 0.681640625 0.99609375 0.681640625 c 0
 0.9775390625 0.681640625 0.9580078125 0.67578125 0.93359375 0.6640625 c 0
 0.826171875 0.6123046875 0.759765625 0.515625 0.7421875 0.42578125 c 0
 0.7216796875 0.318359375 0.76953125 0.2197265625 0.8935546875 0.2197265625 c 0
 1.01953125 0.2197265625 1.1142578125 0.32421875 1.1357421875 0.435546875 c 0
 1.15234375 0.517578125 1.1318359375 0.603515625 1.0595703125 0.658203125 c 0
EndSplineSet
Validated: 33
EndChar

StartChar: five
Encoding: 53 53 12
Width: 1
Flags: HW
LayerCount: 2
Back
Fore
SplineSet
0.8037109375 0.9716796875 m 0
 0.8017578125 0.9775390625 0.7998046875 0.982421875 0.7998046875 0.986328125 c 0
 0.8017578125 0.99609375 0.818359375 0.998046875 0.8603515625 0.998046875 c 0
 0.9296875 0.998046875 0.935546875 0.994140625 0.990234375 0.8818359375 c 0
 1.07421875 0.7158203125 1.1298828125 0.6103515625 1.1396484375 0.6103515625 c 0
 1.1484375 0.6103515625 1.171875 0.6962890625 1.1923828125 0.8037109375 c 1
 1.2041015625 0.8681640625 1.2158203125 0.93359375 1.2275390625 0.998046875 c 1
 1.24609375 0.998046875 1.263671875 0.998046875 1.2822265625 0.998046875 c 1
 1.2978515625 0.998046875 1.318359375 0.998046875 1.333984375 0.998046875 c 1
 1.32421875 0.931640625 1.3115234375 0.8662109375 1.3017578125 0.7998046875 c 1
 1.2919921875 0.734375 1.2783203125 0.66796875 1.267578125 0.6015625 c 1
 1.326171875 0.66796875 1.3857421875 0.734375 1.4443359375 0.7998046875 c 1
 1.501953125 0.8662109375 1.5595703125 0.9296875 1.6181640625 0.99609375 c 1
 1.6435546875 0.99609375 1.671875 0.998046875 1.6982421875 0.998046875 c 1
 1.748046875 0.998046875 1.765625 0.998046875 1.763671875 0.990234375 c 0
 1.763671875 0.986328125 1.7578125 0.98046875 1.751953125 0.9736328125 c 0
 1.7255859375 0.9501953125 1.6396484375 0.853515625 1.51953125 0.7255859375 c 1
 1.4560546875 0.658203125 1.396484375 0.58984375 1.33203125 0.5224609375 c 1
 1.3896484375 0.51953125 1.4462890625 0.517578125 1.50390625 0.515625 c 1
 1.5615234375 0.513671875 1.6181640625 0.51171875 1.67578125 0.509765625 c 1
 1.671875 0.48828125 1.666015625 0.4658203125 1.662109375 0.4443359375 c 1
 1.658203125 0.421875 1.654296875 0.400390625 1.650390625 0.3779296875 c 1
 1.591796875 0.3759765625 1.5322265625 0.3740234375 1.4736328125 0.3720703125 c 1
 1.4140625 0.3701171875 1.3564453125 0.3681640625 1.2958984375 0.3662109375 c 1
 1.314453125 0.337890625 1.3359375 0.3076171875 1.353515625 0.2802734375 c 1
 1.42578125 0.171875 1.576171875 -0.099609375 1.572265625 -0.1162109375 c 0
 1.5703125 -0.1240234375 1.5263671875 -0.1279296875 1.4599609375 -0.1279296875 c 0
 1.4580078125 -0.1279296875 l 0
 1.41796875 -0.1279296875 1.41796875 -0.1259765625 1.3779296875 -0.0380859375 c 0
 1.2900390625 0.150390625 1.232421875 0.26171875 1.2158203125 0.26953125 c 0
 1.2119140625 0.26953125 l 0
 1.1982421875 0.26953125 1.185546875 0.2158203125 1.158203125 0.07421875 c 1
 1.1435546875 0.005859375 1.1318359375 -0.0595703125 1.1181640625 -0.1279296875 c 1
 1.099609375 -0.1279296875 1.08203125 -0.1279296875 1.064453125 -0.1279296875 c 1
 1.0458984375 -0.1279296875 1.0283203125 -0.1279296875 1.009765625 -0.1279296875 c 1
 1.0244140625 -0.0595703125 1.0361328125 0.009765625 1.0498046875 0.078125 c 1
 1.078125 0.2216796875 1.0859375 0.2763671875 1.072265625 0.2763671875 c 0
 1.0703125 0.2763671875 l 0
 1.0537109375 0.2724609375 0.98046875 0.1923828125 0.8720703125 0.068359375 c 1
 0.814453125 0.001953125 0.759765625 -0.0615234375 0.7021484375 -0.1279296875 c 1
 0.673828125 -0.1279296875 0.6484375 -0.1279296875 0.6201171875 -0.1279296875 c 1
 0.59375 -0.1279296875 0.56640625 -0.1279296875 0.5400390625 -0.1279296875 c 1
 0.587890625 -0.076171875 0.6298828125 -0.0263671875 0.677734375 0.0263671875 c 1
 0.736328125 0.08984375 0.8359375 0.1943359375 0.916015625 0.2724609375 c 1
 0.9482421875 0.3037109375 0.982421875 0.333984375 1.013671875 0.3662109375 c 1
 0.9560546875 0.3681640625 0.90234375 0.3701171875 0.84375 0.3720703125 c 1
 0.7861328125 0.3740234375 0.732421875 0.3759765625 0.673828125 0.3779296875 c 1
 0.677734375 0.400390625 0.68359375 0.421875 0.6884765625 0.4443359375 c 1
 0.6923828125 0.4658203125 0.6962890625 0.48828125 0.7001953125 0.509765625 c 1
 0.755859375 0.51171875 0.814453125 0.513671875 0.8701171875 0.515625 c 1
 0.927734375 0.517578125 0.986328125 0.51953125 1.0439453125 0.5224609375 c 1
 1.005859375 0.58984375 0.9677734375 0.658203125 0.9296875 0.7255859375 c 1
 0.8720703125 0.830078125 0.814453125 0.9423828125 0.8037109375 0.9716796875 c 0
EndSplineSet
Validated: 33
EndChar

StartChar: six
Encoding: 54 54 13
Width: 1
Flags: HW
LayerCount: 2
Back
Fore
SplineSet
0.4736328125 0.3603515625 m 0
 0.509765625 0.3916015625 0.5458984375 0.408203125 0.583984375 0.408203125 c 0
 0.6376953125 0.408203125 0.6904296875 0.3759765625 0.73828125 0.314453125 c 0
 0.751953125 0.2939453125 0.75390625 0.2939453125 0.935546875 0.2939453125 c 0
 1.1201171875 0.2939453125 1.1240234375 0.2958984375 1.150390625 0.3203125 c 0
 1.2119140625 0.3779296875 1.2763671875 0.40625 1.328125 0.40625 c 0
 1.40625 0.40625 1.4580078125 0.345703125 1.4384765625 0.23828125 c 0
 1.41796875 0.1357421875 1.341796875 0.076171875 1.232421875 0.076171875 c 0
 1.1796875 0.076171875 1.16015625 0.095703125 1.103515625 0.185546875 c 0
 1.099609375 0.1943359375 1.078125 0.1943359375 0.9140625 0.1943359375 c 0
 0.73828125 0.1943359375 0.7275390625 0.1923828125 0.7060546875 0.169921875 c 0
 0.6318359375 0.09375 0.6015625 0.076171875 0.5576171875 0.076171875 c 0
 0.4462890625 0.076171875 0.3857421875 0.158203125 0.404296875 0.24609375 c 0
 0.412109375 0.2861328125 0.435546875 0.326171875 0.4736328125 0.3603515625 c 0
0.658203125 0.26953125 m 0
 0.65234375 0.3095703125 0.6181640625 0.33203125 0.580078125 0.33203125 c 0
 0.5576171875 0.33203125 0.5361328125 0.32421875 0.517578125 0.3076171875 c 0
 0.5 0.2919921875 0.48828125 0.2724609375 0.484375 0.25 c 0
 0.4775390625 0.2177734375 0.486328125 0.18359375 0.509765625 0.1640625 c 0
 0.5224609375 0.15234375 0.5380859375 0.146484375 0.5537109375 0.146484375 c 0
 0.59765625 0.146484375 0.646484375 0.1884765625 0.65625 0.23828125 c 0
 0.658203125 0.248046875 0.66015625 0.259765625 0.658203125 0.26953125 c 0
1.3583984375 0.3056640625 m 0
 1.345703125 0.322265625 1.322265625 0.33203125 1.2958984375 0.33203125 c 0
 1.248046875 0.33203125 1.2099609375 0.2958984375 1.2001953125 0.240234375 c 0
 1.1884765625 0.181640625 1.2138671875 0.1416015625 1.255859375 0.1416015625 c 0
 1.265625 0.1416015625 1.2783203125 0.1435546875 1.2880859375 0.1484375 c 0
 1.328125 0.162109375 1.3603515625 0.2060546875 1.3681640625 0.24609375 c 0
 1.3720703125 0.267578125 1.3701171875 0.2900390625 1.3583984375 0.3056640625 c 0
EndSplineSet
Validated: 33
EndChar

StartChar: seven
Encoding: 55 55 14
Width: 1
Flags: HW
LayerCount: 2
Back
Fore
SplineSet
0.927734375 1.236328125 m 0
 0.9296875 1.2421875 0.927734375 1.248046875 0.9296875 1.25390625 c 0
 0.935546875 1.2822265625 0.9482421875 1.2919921875 0.9697265625 1.2919921875 c 0
 1.017578125 1.2919921875 1.099609375 1.2421875 1.150390625 1.181640625 c 0
 1.16015625 1.169921875 1.166015625 1.162109375 1.173828125 1.162109375 c 0
 1.181640625 1.162109375 1.1904296875 1.16796875 1.2060546875 1.1796875 c 0
 1.2783203125 1.236328125 1.396484375 1.2919921875 1.4482421875 1.2919921875 c 0
 1.4736328125 1.2919921875 1.482421875 1.2783203125 1.4736328125 1.240234375 c 0
 1.4658203125 1.1962890625 1.4501953125 1.1796875 1.3984375 1.166015625 c 0
 1.2939453125 1.1357421875 1.2236328125 1.078125 1.2138671875 1.0224609375 c 0
 1.2060546875 0.984375 1.2255859375 0.9462890625 1.2783203125 0.921875 c 0
 1.349609375 0.8876953125 1.421875 0.7978515625 1.4443359375 0.7216796875 c 0
 1.4580078125 0.67578125 1.4580078125 0.6181640625 1.4462890625 0.5576171875 c 0
 1.4296875 0.4775390625 1.396484375 0.3935546875 1.345703125 0.33203125 c 0
 1.259765625 0.2236328125 1.0859375 0.1279296875 0.9736328125 0.1279296875 c 0
 0.8681640625 0.1279296875 0.748046875 0.2138671875 0.6796875 0.333984375 c 0
 0.65234375 0.3857421875 0.650390625 0.412109375 0.673828125 0.5361328125 c 0
 0.7001953125 0.671875 0.7119140625 0.7001953125 0.755859375 0.748046875 c 0
 0.822265625 0.818359375 0.91015625 0.8857421875 0.98046875 0.919921875 c 1
 1.017578125 0.9384765625 1.0556640625 0.9580078125 1.09375 0.9755859375 c 1
 1.087890625 1.001953125 1.08203125 1.0263671875 1.076171875 1.0517578125 c 1
 1.0615234375 1.1064453125 1.0322265625 1.1357421875 0.98046875 1.154296875 c 0
 0.935546875 1.169921875 0.923828125 1.1904296875 0.927734375 1.236328125 c 0
1.181640625 0.833984375 m 0
 1.154296875 0.841796875 1.1259765625 0.84765625 1.09765625 0.84765625 c 0
 1.0859375 0.84765625 1.078125 0.84765625 1.068359375 0.845703125 c 0
 0.935546875 0.830078125 0.8203125 0.7080078125 0.7900390625 0.5517578125 c 0
 0.75390625 0.3662109375 0.8583984375 0.240234375 0.998046875 0.240234375 c 0
 1.0556640625 0.240234375 1.1201171875 0.26171875 1.18359375 0.3095703125 c 0
 1.263671875 0.3720703125 1.314453125 0.4580078125 1.330078125 0.5419921875 c 0
 1.353515625 0.669921875 1.3056640625 0.7939453125 1.181640625 0.833984375 c 0
EndSplineSet
Validated: 33
EndChar

StartChar: eight
Encoding: 56 56 15
Width: 1
Flags: HW
LayerCount: 2
Back
Fore
SplineSet
0.759765625 1.177734375 m 0xdf
 0.7763671875 1.1923828125 0.8017578125 1.2001953125 0.833984375 1.2001953125 c 0xdf
 0.9501953125 1.2001953125 1.150390625 1.1123046875 1.2841796875 0.9921875 c 1
 1.3017578125 0.9736328125 1.32421875 0.9580078125 1.341796875 0.9404296875 c 1
 1.3837890625 0.9677734375 1.427734375 0.994140625 1.4697265625 1.0224609375 c 1
 1.6337890625 1.1279296875 1.845703125 1.2021484375 1.9521484375 1.2021484375 c 0
 1.984375 1.2021484375 2.005859375 1.1962890625 2.015625 1.181640625 c 0
 2.017578125 1.177734375 2.017578125 1.173828125 2.017578125 1.169921875 c 0
 2.013671875 1.154296875 1.9775390625 1.1376953125 1.8916015625 1.1123046875 c 0xef
 1.7099609375 1.0576171875 1.5595703125 0.9921875 1.4462890625 0.912109375 c 1
 1.42578125 0.900390625 1.41015625 0.8876953125 1.3896484375 0.8759765625 c 1
 1.412109375 0.841796875 1.431640625 0.8076171875 1.4541015625 0.7744140625 c 1
 1.4921875 0.7158203125 1.5361328125 0.6201171875 1.5595703125 0.5439453125 c 0
 1.580078125 0.484375 1.59375 0.4599609375 1.6162109375 0.4599609375 c 0
 1.6201171875 0.4599609375 1.6240234375 0.4599609375 1.6279296875 0.4619140625 c 0
 1.6337890625 0.4638671875 1.6416015625 0.4658203125 1.65234375 0.4658203125 c 0
 1.67578125 0.4658203125 1.7099609375 0.4560546875 1.73828125 0.4423828125 c 0
 1.830078125 0.3935546875 1.8642578125 0.3017578125 1.845703125 0.2060546875 c 0
 1.828125 0.1103515625 1.75390625 0.009765625 1.6396484375 -0.0419921875 c 0
 1.603515625 -0.0576171875 1.572265625 -0.068359375 1.5419921875 -0.068359375 c 0
 1.509765625 -0.068359375 1.482421875 -0.0556640625 1.4521484375 -0.0380859375 c 0
 1.3681640625 0.015625 1.3359375 0.1142578125 1.353515625 0.2099609375 c 0
 1.3662109375 0.267578125 1.3935546875 0.322265625 1.4443359375 0.3662109375 c 1
 1.4638671875 0.3837890625 1.482421875 0.400390625 1.501953125 0.41796875 c 1
 1.494140625 0.4501953125 1.482421875 0.482421875 1.4736328125 0.513671875 c 1
 1.4599609375 0.568359375 1.41796875 0.658203125 1.3857421875 0.7099609375 c 1
 1.3642578125 0.744140625 1.34375 0.7763671875 1.322265625 0.8095703125 c 1
 1.2939453125 0.7861328125 1.263671875 0.759765625 1.236328125 0.736328125 c 1
 1.1943359375 0.7001953125 1.1181640625 0.6162109375 1.06640625 0.5478515625 c 1
 1.0380859375 0.509765625 1.0078125 0.4716796875 0.98046875 0.43359375 c 1
 0.9921875 0.412109375 1.005859375 0.3896484375 1.017578125 0.3681640625 c 1
 1.0380859375 0.33203125 1.0556640625 0.2822265625 1.0556640625 0.248046875 c 0
 1.0576171875 0.236328125 1.0537109375 0.2236328125 1.0517578125 0.2119140625 c 0
 1.0322265625 0.103515625 0.912109375 -0.0322265625 0.7998046875 -0.0595703125 c 0
 0.7841796875 -0.064453125 0.767578125 -0.06640625 0.75390625 -0.06640625 c 0
 0.6318359375 -0.06640625 0.5224609375 0.0576171875 0.5478515625 0.1904296875 c 0
 0.572265625 0.318359375 0.740234375 0.4697265625 0.83984375 0.4697265625 c 0
 0.849609375 0.4697265625 0.8583984375 0.4677734375 0.8662109375 0.4658203125 c 0
 0.8720703125 0.4638671875 0.8759765625 0.4619140625 0.8818359375 0.4619140625 c 0
 0.90625 0.4619140625 0.927734375 0.484375 0.9716796875 0.5458984375 c 0
 1.0341796875 0.6318359375 1.1181640625 0.7275390625 1.173828125 0.7822265625 c 1
 1.2060546875 0.814453125 1.240234375 0.84375 1.2724609375 0.8759765625 c 1
 1.259765625 0.8876953125 1.244140625 0.90234375 1.232421875 0.9140625 c 1
 1.16796875 0.982421875 0.990234375 1.07421875 0.828125 1.1259765625 c 0
 0.7744140625 1.1435546875 0.751953125 1.15625 0.75390625 1.16796875 c 0
 0.75390625 1.171875 0.755859375 1.173828125 0.759765625 1.177734375 c 0xdf
0.9501953125 0.2978515625 m 0
 0.9140625 0.345703125 0.8779296875 0.3681640625 0.8359375 0.3681640625 c 0
 0.7939453125 0.3681640625 0.744140625 0.34375 0.68359375 0.2958984375 c 0
 0.65234375 0.26953125 0.6376953125 0.25390625 0.6337890625 0.23046875 c 0
 0.6318359375 0.2216796875 0.6318359375 0.2119140625 0.6318359375 0.2001953125 c 0
 0.6318359375 0.091796875 0.671875 0.0380859375 0.759765625 0.0380859375 c 0
 0.84765625 0.0380859375 0.923828125 0.09375 0.9638671875 0.185546875 c 0
 0.9697265625 0.2001953125 0.9716796875 0.2099609375 0.9736328125 0.2197265625 c 0
 0.98046875 0.24609375 0.9716796875 0.267578125 0.9501953125 0.2978515625 c 0
1.744140625 0.2958984375 m 0
 1.7080078125 0.34375 1.669921875 0.3681640625 1.6259765625 0.3681640625 c 0
 1.587890625 0.3681640625 1.5478515625 0.349609375 1.501953125 0.31640625 c 0
 1.4580078125 0.2822265625 1.43359375 0.25 1.42578125 0.2119140625 c 0
 1.421875 0.1884765625 1.423828125 0.162109375 1.43359375 0.1318359375 c 0
 1.4541015625 0.06640625 1.4921875 0.0400390625 1.56640625 0.0400390625 c 0
 1.6416015625 0.0400390625 1.6884765625 0.06640625 1.73828125 0.1376953125 c 0
 1.755859375 0.166015625 1.767578125 0.1884765625 1.7724609375 0.2080078125 c 0
 1.7783203125 0.23828125 1.767578125 0.263671875 1.744140625 0.2958984375 c 0
EndSplineSet
Validated: 33
EndChar

StartChar: nine
Encoding: 57 57 16
Width: 1
Flags: HW
LayerCount: 2
Back
Fore
SplineSet
0.671875 0.84765625 m 0
 0.7138671875 0.8662109375 0.9775390625 0.8740234375 1.4658203125 0.8740234375 c 0
 1.7099609375 0.8740234375 1.73828125 0.8701171875 1.7900390625 0.83984375 c 0
 1.8740234375 0.7900390625 1.896484375 0.732421875 1.8837890625 0.6181640625 c 0
 1.8837890625 0.603515625 1.8818359375 0.591796875 1.8798828125 0.580078125 c 0
 1.8583984375 0.4638671875 1.7978515625 0.3916015625 1.67578125 0.333984375 c 0
 1.6396484375 0.31640625 1.6083984375 0.3095703125 1.3935546875 0.3095703125 c 0
 1.2783203125 0.3095703125 1.1083984375 0.3095703125 0.8583984375 0.314453125 c 0
 0.58984375 0.318359375 0.576171875 0.3203125 0.5400390625 0.353515625 c 0
 0.4716796875 0.41796875 0.4501953125 0.509765625 0.4677734375 0.59765625 c 0
 0.482421875 0.669921875 0.5244140625 0.740234375 0.587890625 0.7939453125 c 0
 0.6123046875 0.81640625 0.654296875 0.83984375 0.671875 0.84765625 c 0
0.853515625 0.751953125 m 0
 0.83203125 0.76953125 0.8056640625 0.7783203125 0.7783203125 0.7783203125 c 0
 0.7099609375 0.7783203125 0.6318359375 0.73046875 0.576171875 0.6435546875 c 0
 0.56640625 0.6259765625 0.5576171875 0.6142578125 0.5556640625 0.599609375 c 0
 0.5537109375 0.587890625 0.5537109375 0.57421875 0.5556640625 0.5537109375 c 0
 0.56640625 0.4775390625 0.580078125 0.4501953125 0.6376953125 0.416015625 c 0
 0.66015625 0.404296875 0.673828125 0.3984375 0.6884765625 0.3984375 c 0
 0.6982421875 0.3984375 0.7060546875 0.400390625 0.7197265625 0.404296875 c 0
 0.82421875 0.4384765625 0.8876953125 0.5078125 0.904296875 0.587890625 c 0
 0.908203125 0.6064453125 0.91015625 0.6259765625 0.908203125 0.6435546875 c 0
 0.904296875 0.6904296875 0.8837890625 0.7275390625 0.853515625 0.751953125 c 0
1.4296875 0.7421875 m 1
 1.4423828125 0.755859375 1.4541015625 0.7724609375 1.4658203125 0.7861328125 c 1
 1.3857421875 0.7861328125 1.3056640625 0.7861328125 1.2255859375 0.7861328125 c 1
 1.080078125 0.7861328125 0.984375 0.7802734375 0.982421875 0.767578125 c 0
 0.982421875 0.763671875 0.98828125 0.744140625 0.9921875 0.73046875 c 0
 1.00390625 0.6943359375 1.001953125 0.6416015625 0.9921875 0.58984375 c 0
 0.982421875 0.5400390625 0.9658203125 0.490234375 0.9404296875 0.4560546875 c 0
 0.9296875 0.4423828125 0.9140625 0.41796875 0.9140625 0.4140625 c 0
 0.912109375 0.40234375 1.001953125 0.396484375 1.15234375 0.396484375 c 0
 1.2744140625 0.396484375 1.3701171875 0.400390625 1.3720703125 0.40625 c 0
 1.3720703125 0.408203125 1.3642578125 0.4404296875 1.3623046875 0.4560546875 c 0
 1.353515625 0.5 1.3583984375 0.5478515625 1.3662109375 0.59375 c 0
 1.3759765625 0.650390625 1.3984375 0.7021484375 1.4296875 0.7421875 c 1
1.7158203125 0.767578125 m 0
 1.6982421875 0.7763671875 1.677734375 0.7802734375 1.65625 0.7802734375 c 0
 1.646484375 0.7802734375 1.6357421875 0.7802734375 1.6240234375 0.7783203125 c 0
 1.591796875 0.7724609375 1.56640625 0.759765625 1.5380859375 0.73046875 c 0
 1.49609375 0.685546875 1.4716796875 0.6357421875 1.4619140625 0.587890625 c 0
 1.4443359375 0.4921875 1.48828125 0.40625 1.587890625 0.40625 c 0
 1.66796875 0.40625 1.748046875 0.4619140625 1.7841796875 0.5458984375 c 0
 1.7900390625 0.5615234375 1.7939453125 0.578125 1.7978515625 0.59375 c 0
 1.8115234375 0.669921875 1.7841796875 0.736328125 1.7158203125 0.767578125 c 0
EndSplineSet
Validated: 33
EndChar

StartChar: question
Encoding: 63 63 17
Width: 1
Flags: HW
LayerCount: 2
Back
Fore
SplineSet
0.677734375 1.337890625 m 1
 0.685546875 1.3779296875 0.6943359375 1.41796875 0.7021484375 1.4580078125 c 1
 0.7177734375 1.4580078125 0.734375 1.4580078125 0.75 1.4580078125 c 1
 0.7939453125 1.4580078125 0.7958984375 1.4580078125 0.7919921875 1.427734375 c 0
 0.765625 1.177734375 0.7822265625 1.09765625 0.8662109375 1.0478515625 c 0
 0.90234375 1.0263671875 0.9423828125 1.017578125 0.982421875 1.017578125 c 0
 1.01171875 1.017578125 1.0439453125 1.0244140625 1.07421875 1.0361328125 c 0
 1.171875 1.076171875 1.2216796875 1.162109375 1.2841796875 1.3984375 c 0
 1.2978515625 1.4560546875 1.2998046875 1.4580078125 1.34765625 1.4580078125 c 1
 1.3623046875 1.4580078125 1.3798828125 1.4580078125 1.3935546875 1.4580078125 c 1
 1.3857421875 1.41796875 1.3779296875 1.3779296875 1.3701171875 1.337890625 c 1
 1.3583984375 1.2763671875 1.3359375 1.1904296875 1.31640625 1.1484375 c 0
 1.26953125 1.0439453125 1.1484375 0.9462890625 1.0283203125 0.9140625 c 0
 1.0078125 0.908203125 1.005859375 0.90234375 0.990234375 0.8203125 c 1
 0.984375 0.7900390625 0.9775390625 0.76171875 0.9716796875 0.732421875 c 1
 1.0078125 0.732421875 1.0439453125 0.732421875 1.080078125 0.732421875 c 1
 1.1162109375 0.732421875 1.150390625 0.732421875 1.185546875 0.732421875 c 1
 1.181640625 0.7138671875 1.1796875 0.6982421875 1.17578125 0.6796875 c 1
 1.171875 0.662109375 1.169921875 0.6435546875 1.166015625 0.6259765625 c 1
 1.1298828125 0.6259765625 1.095703125 0.6259765625 1.0595703125 0.6259765625 c 1
 1.0244140625 0.6259765625 0.98828125 0.6259765625 0.9521484375 0.6259765625 c 1
 0.9462890625 0.58984375 0.935546875 0.5556640625 0.9296875 0.51953125 c 1
 0.923828125 0.484375 0.916015625 0.4501953125 0.91015625 0.4140625 c 1
 0.8916015625 0.4140625 0.8701171875 0.4140625 0.8515625 0.4140625 c 1
 0.833984375 0.4140625 0.8115234375 0.4140625 0.7939453125 0.4140625 c 1
 0.7998046875 0.4501953125 0.8095703125 0.484375 0.81640625 0.51953125 c 1
 0.822265625 0.5556640625 0.830078125 0.58984375 0.8359375 0.6259765625 c 1
 0.7958984375 0.6259765625 0.759765625 0.6259765625 0.7197265625 0.6259765625 c 1
 0.6796875 0.6259765625 0.646484375 0.6259765625 0.6064453125 0.6259765625 c 1
 0.6103515625 0.6435546875 0.6123046875 0.662109375 0.6162109375 0.6796875 c 1
 0.6201171875 0.6982421875 0.6220703125 0.7138671875 0.6259765625 0.732421875 c 1
 0.666015625 0.732421875 0.7021484375 0.732421875 0.7421875 0.732421875 c 1
 0.7822265625 0.732421875 0.81640625 0.732421875 0.8564453125 0.732421875 c 1
 0.8623046875 0.759765625 0.8662109375 0.7880859375 0.8720703125 0.81640625 c 1
 0.8779296875 0.84375 0.8837890625 0.8720703125 0.8896484375 0.900390625 c 1
 0.8662109375 0.91015625 0.83984375 0.921875 0.81640625 0.931640625 c 1
 0.73046875 0.9677734375 0.666015625 1.0537109375 0.662109375 1.146484375 c 0
 0.66015625 1.1904296875 0.666015625 1.2744140625 0.677734375 1.337890625 c 1
EndSplineSet
Validated: 33
EndChar

StartChar: A
Encoding: 65 65 18
Width: 1
Flags: HW
LayerCount: 2
Back
Fore
SplineSet
1.4404296875 0.6904296875 m 1xbb80
 1.4677734375 0.83203125 1.494140625 0.9736328125 1.5224609375 1.1162109375 c 1
 1.603515625 1.1162109375 1.68359375 1.1162109375 1.765625 1.1162109375 c 1
 1.84765625 1.1162109375 1.9296875 1.1162109375 2.01171875 1.1162109375 c 1
 2.0078125 1.095703125 2.00390625 1.07421875 2 1.0537109375 c 1
 1.99609375 1.0341796875 1.9921875 1.013671875 1.98828125 0.994140625 c 1
 1.927734375 0.994140625 1.8701171875 0.994140625 1.8095703125 0.994140625 c 1
 1.75 0.994140625 1.6904296875 0.994140625 1.6298828125 0.994140625 c 1
 1.6240234375 0.9638671875 1.6201171875 0.93359375 1.6142578125 0.904296875 c 1
 1.6083984375 0.8740234375 1.6015625 0.841796875 1.595703125 0.8115234375 c 1
 1.6416015625 0.8115234375 1.6904296875 0.8115234375 1.736328125 0.8115234375 c 1
 1.7822265625 0.8115234375 1.830078125 0.8115234375 1.8759765625 0.8115234375 c 1
 1.8720703125 0.7919921875 1.8681640625 0.7724609375 1.8642578125 0.751953125 c 1
 1.8603515625 0.732421875 1.8564453125 0.7099609375 1.8515625 0.6904296875 c 1
 1.8056640625 0.6904296875 1.7578125 0.6904296875 1.7119140625 0.6904296875 c 1
 1.666015625 0.6904296875 1.6181640625 0.6904296875 1.572265625 0.6904296875 c 1
 1.5615234375 0.6396484375 1.5517578125 0.58984375 1.5419921875 0.5400390625 c 1
 1.5322265625 0.490234375 1.5224609375 0.4384765625 1.51171875 0.3876953125 c 1
 1.572265625 0.3876953125 1.6318359375 0.3876953125 1.6923828125 0.3876953125 c 1
 1.751953125 0.3876953125 1.8095703125 0.3876953125 1.8701171875 0.3876953125 c 1
 1.8662109375 0.3681640625 1.8623046875 0.34765625 1.8583984375 0.328125 c 1
 1.853515625 0.3076171875 1.849609375 0.2861328125 1.845703125 0.265625 c 1
 1.763671875 0.265625 1.681640625 0.265625 1.599609375 0.265625 c 1
 1.517578125 0.265625 1.4404296875 0.265625 1.3583984375 0.265625 c 1
 1.3857421875 0.408203125 1.412109375 0.5478515625 1.4404296875 0.6904296875 c 1xbb80
0.9541015625 1.103515625 m 0
 1.005859375 1.1220703125 1.06640625 1.1279296875 1.1220703125 1.1279296875 c 0
 1.1298828125 1.1279296875 1.1396484375 1.1298828125 1.1484375 1.1298828125 c 0
 1.3359375 1.1201171875 1.421875 0.990234375 1.3857421875 0.8037109375 c 0
 1.3779296875 0.759765625 1.3623046875 0.7138671875 1.33984375 0.6640625 c 0
 1.26171875 0.49609375 1.1103515625 0.33203125 0.98046875 0.2802734375 c 0
 0.9541015625 0.267578125 0.9384765625 0.259765625 0.935546875 0.24609375 c 0
 0.93359375 0.232421875 0.9423828125 0.2158203125 0.9599609375 0.1923828125 c 0
 0.998046875 0.1396484375 1.0302734375 0.1259765625 1.1142578125 0.1259765625 c 0
 1.150390625 0.1259765625 1.158203125 0.1240234375 1.154296875 0.1015625 c 0
 1.15234375 0.095703125 1.15234375 0.087890625 1.150390625 0.080078125 c 0
 1.1337890625 0.0244140625 1.1220703125 0.013671875 1.080078125 0.009765625 c 0
 1.068359375 0.0078125 1.0556640625 0.0078125 1.0439453125 0.0078125 c 0
 0.9599609375 0.0078125 0.900390625 0.0439453125 0.849609375 0.1279296875 c 0
 0.814453125 0.1884765625 0.7724609375 0.2255859375 0.744140625 0.2255859375 c 0xd780
 0.73046875 0.2255859375 0.7119140625 0.236328125 0.7099609375 0.2421875 c 0
 0.7080078125 0.25 0.6796875 0.26953125 0.6484375 0.2880859375 c 0
 0.5478515625 0.341796875 0.5244140625 0.421875 0.5556640625 0.583984375 c 0
 0.6083984375 0.84765625 0.751953125 1.0380859375 0.9541015625 1.103515625 c 0
1.2119140625 0.98046875 m 0
 1.18359375 1.001953125 1.1376953125 1.01171875 1.087890625 1.01171875 c 0
 1.0263671875 1.01171875 0.9541015625 0.998046875 0.90234375 0.9658203125 c 0
 0.7919921875 0.90234375 0.7080078125 0.751953125 0.681640625 0.6201171875 c 0
 0.666015625 0.5341796875 0.673828125 0.4560546875 0.7158203125 0.4140625 c 0
 0.74609375 0.3818359375 0.8017578125 0.3662109375 0.8623046875 0.3662109375 c 0
 0.91796875 0.3662109375 0.9736328125 0.3818359375 1.0224609375 0.41015625 c 0
 1.1318359375 0.4736328125 1.2197265625 0.6357421875 1.24609375 0.7744140625 c 0
 1.263671875 0.8642578125 1.2578125 0.9443359375 1.2119140625 0.98046875 c 0
EndSplineSet
Validated: 33
EndChar

StartChar: B
Encoding: 66 66 19
Width: 1
Flags: HW
LayerCount: 2
Back
Fore
SplineSet
1.2080078125 1.2080078125 m 1xd0
 1.267578125 1.2978515625 1.33203125 1.3876953125 1.3916015625 1.4775390625 c 1
 1.421875 1.4775390625 1.4501953125 1.4775390625 1.48046875 1.4775390625 c 1
 1.564453125 1.4775390625 1.568359375 1.4736328125 1.583984375 1.3818359375 c 0
 1.603515625 1.2724609375 1.6201171875 1.2099609375 1.6298828125 1.2099609375 c 0
 1.6396484375 1.2099609375 1.666015625 1.1337890625 1.6904296875 1.0400390625 c 1
 1.7041015625 0.982421875 1.7177734375 0.92578125 1.732421875 0.8681640625 c 1
 1.7861328125 0.8681640625 1.83984375 0.8681640625 1.8935546875 0.8681640625 c 1xb0
 1.99609375 0.8681640625 2.0703125 0.8818359375 2.099609375 0.908203125 c 0
 2.103515625 0.912109375 2.1064453125 0.912109375 2.1083984375 0.912109375 c 0
 2.1162109375 0.912109375 2.1142578125 0.8876953125 2.103515625 0.83203125 c 0
 2.09375 0.7763671875 2.0859375 0.75390625 2.076171875 0.75390625 c 0xd0
 2.07421875 0.75390625 2.0703125 0.755859375 2.068359375 0.759765625 c 0
 2.0498046875 0.7802734375 2.00390625 0.7900390625 1.93359375 0.7900390625 c 0
 1.919921875 0.7900390625 1.908203125 0.7900390625 1.8935546875 0.7900390625 c 1
 1.84765625 0.7880859375 1.8017578125 0.7841796875 1.755859375 0.7822265625 c 1
 1.7880859375 0.658203125 1.8203125 0.5341796875 1.8515625 0.41015625 c 1
 1.8837890625 0.2861328125 1.916015625 0.1640625 1.9482421875 0.0400390625 c 1
 1.6982421875 0.0400390625 1.4501953125 0.0400390625 1.2001953125 0.0400390625 c 1
 0.9501953125 0.0400390625 0.7041015625 0.0400390625 0.4541015625 0.0400390625 c 1
 0.5341796875 0.1640625 0.6142578125 0.2861328125 0.6943359375 0.41015625 c 1
 0.7744140625 0.5341796875 0.8564453125 0.658203125 0.935546875 0.7822265625 c 1
 0.8896484375 0.7841796875 0.84375 0.7880859375 0.7978515625 0.7900390625 c 1
 0.7841796875 0.7900390625 0.7744140625 0.7900390625 0.759765625 0.7900390625 c 0xb0
 0.6904296875 0.7900390625 0.6376953125 0.7802734375 0.6123046875 0.759765625 c 0
 0.6083984375 0.755859375 0.603515625 0.75390625 0.6015625 0.75390625 c 0
 0.591796875 0.75390625 0.595703125 0.7763671875 0.6064453125 0.83203125 c 0
 0.6162109375 0.8876953125 0.6220703125 0.912109375 0.6318359375 0.912109375 c 0
 0.6337890625 0.912109375 0.6376953125 0.91015625 0.6396484375 0.90625 c 0
 0.658203125 0.8818359375 0.7119140625 0.8701171875 0.7744140625 0.8701171875 c 0
 0.83203125 0.8701171875 0.8935546875 0.8798828125 0.9443359375 0.900390625 c 0
 1.01171875 0.927734375 1.0498046875 0.9736328125 1.2080078125 1.2080078125 c 1xd0
1.3701171875 0.8740234375 m 1
 1.42578125 0.8759765625 1.484375 0.8779296875 1.5400390625 0.8798828125 c 1
 1.5224609375 0.9482421875 1.501953125 1.013671875 1.484375 1.08203125 c 1
 1.4658203125 1.150390625 1.4462890625 1.2177734375 1.427734375 1.2861328125 c 1
 1.3857421875 1.2197265625 1.34375 1.15625 1.3017578125 1.08984375 c 1
 1.23828125 0.990234375 1.1904296875 0.90625 1.185546875 0.8837890625 c 0
 1.185546875 0.8818359375 1.185546875 0.8798828125 1.185546875 0.8798828125 c 0
 1.1884765625 0.8759765625 1.2275390625 0.8720703125 1.2802734375 0.8720703125 c 0
 1.3056640625 0.8720703125 1.337890625 0.8720703125 1.3701171875 0.8740234375 c 1
1.654296875 0.49609375 m 1
 1.6279296875 0.595703125 1.603515625 0.6962890625 1.578125 0.7958984375 c 1
 1.501953125 0.7958984375 1.421875 0.7958984375 1.345703125 0.7958984375 c 1
 1.26953125 0.7958984375 1.1943359375 0.7958984375 1.1181640625 0.7958984375 c 1
 1.0537109375 0.6962890625 0.990234375 0.595703125 0.92578125 0.49609375 c 1
 0.8623046875 0.396484375 0.7978515625 0.2978515625 0.734375 0.1982421875 c 1
 0.818359375 0.1962890625 0.8984375 0.1923828125 0.982421875 0.1904296875 c 1
 1.0498046875 0.1884765625 1.1396484375 0.1884765625 1.23046875 0.1884765625 c 0
 1.3203125 0.1884765625 1.41015625 0.1884765625 1.48046875 0.1904296875 c 1
 1.564453125 0.1923828125 1.6484375 0.1962890625 1.732421875 0.1982421875 c 1
 1.7060546875 0.2978515625 1.6796875 0.396484375 1.654296875 0.49609375 c 1
EndSplineSet
Validated: 33
EndChar

StartChar: C
Encoding: 67 67 20
Width: 1
Flags: HW
LayerCount: 2
Back
Fore
SplineSet
0.8701171875 0.7119140625 m 1
 1.0078125 0.92578125 1.1484375 1.1416015625 1.2861328125 1.3564453125 c 1
 1.314453125 1.353515625 1.341796875 1.349609375 1.3701171875 1.34765625 c 1
 1.4384765625 1.341796875 1.4541015625 1.333984375 1.4560546875 1.2998046875 c 0
 1.4619140625 1.2421875 1.51953125 0.994140625 1.6279296875 0.5556640625 c 0
 1.6484375 0.4755859375 1.6640625 0.396484375 1.68359375 0.322265625 c 0
 1.7216796875 0.166015625 1.75390625 0.0439453125 1.75390625 0.0400390625 c 0
 1.751953125 0.0322265625 1.4619140625 0.0263671875 1.1259765625 0.0263671875 c 0
 0.6943359375 0.0263671875 0.4384765625 0.0380859375 0.4462890625 0.0537109375 c 0
 0.4482421875 0.0576171875 0.5224609375 0.169921875 0.6298828125 0.337890625 c 0
 0.6982421875 0.4443359375 0.7822265625 0.57421875 0.8701171875 0.7119140625 c 1
1.3623046875 1.0517578125 m 0
 1.349609375 1.09765625 1.330078125 1.150390625 1.326171875 1.150390625 c 0
 1.3115234375 1.150390625 0.7021484375 0.2099609375 0.6962890625 0.181640625 c 0
 0.6943359375 0.169921875 0.8515625 0.162109375 1.1201171875 0.162109375 c 1
 1.263671875 0.162109375 1.404296875 0.162109375 1.5478515625 0.162109375 c 1
 1.5458984375 0.177734375 1.5458984375 0.1962890625 1.5439453125 0.2119140625 c 1
 1.5419921875 0.2421875 1.5078125 0.3779296875 1.4775390625 0.490234375 c 0
 1.4404296875 0.6259765625 1.408203125 0.7783203125 1.3984375 0.8564453125 c 0
 1.3916015625 0.91015625 1.3740234375 1.001953125 1.3623046875 1.0517578125 c 0
EndSplineSet
Validated: 33
EndChar

StartChar: D
Encoding: 68 68 21
Width: 1
Flags: HW
LayerCount: 2
Back
Fore
SplineSet
0.673828125 1.2783203125 m 0x50
 0.67578125 1.2841796875 0.986328125 1.2880859375 1.40625 1.2880859375 c 0
 1.8759765625 1.2880859375 2.2216796875 1.2822265625 2.2197265625 1.2744140625 c 0
 2.2197265625 1.26953125 2.1123046875 1.099609375 2.01171875 0.9423828125 c 0
 1.845703125 0.6796875 1.73046875 0.490234375 1.7255859375 0.4736328125 c 0
 1.7236328125 0.4599609375 1.755859375 0.4541015625 1.8037109375 0.4541015625 c 0
 1.8896484375 0.4541015625 2.01953125 0.4736328125 2.0498046875 0.5 c 0
 2.0517578125 0.501953125 2.0556640625 0.50390625 2.0576171875 0.50390625 c 0
 2.06640625 0.50390625 2.06640625 0.482421875 2.0556640625 0.43359375 c 0
 2.0458984375 0.3857421875 2.0380859375 0.3603515625 2.0302734375 0.3603515625 c 0x90
 2.0283203125 0.3603515625 2.0283203125 0.3623046875 2.0263671875 0.3662109375 c 0
 2.017578125 0.3896484375 1.9638671875 0.400390625 1.900390625 0.400390625 c 0
 1.822265625 0.400390625 1.73046875 0.3837890625 1.681640625 0.353515625 c 0
 1.6298828125 0.322265625 1.5419921875 0.2099609375 1.423828125 0.0283203125 c 1
 1.3662109375 -0.0615234375 1.3076171875 -0.154296875 1.25 -0.244140625 c 1
 1.2177734375 -0.244140625 1.185546875 -0.244140625 1.154296875 -0.244140625 c 1
 1.1220703125 -0.244140625 1.091796875 -0.244140625 1.0595703125 -0.244140625 c 1
 1.0322265625 -0.1357421875 1.00390625 -0.0283203125 0.9755859375 0.080078125 c 1
 0.9482421875 0.1884765625 0.921875 0.2978515625 0.8935546875 0.40625 c 1x30
 0.837890625 0.40625 0.7841796875 0.40625 0.7275390625 0.40625 c 1x50
 0.6240234375 0.40625 0.5458984375 0.3896484375 0.515625 0.3642578125 c 0
 0.51171875 0.3603515625 0.5078125 0.3583984375 0.505859375 0.3583984375 c 0
 0.498046875 0.3583984375 0.5 0.3779296875 0.509765625 0.427734375 c 0
 0.51953125 0.4775390625 0.5244140625 0.5 0.5341796875 0.5 c 0
 0.5380859375 0.5 0.5419921875 0.498046875 0.5439453125 0.494140625 c 0
 0.564453125 0.4716796875 0.6142578125 0.4619140625 0.6884765625 0.4619140625 c 0
 0.7021484375 0.4619140625 0.7158203125 0.4619140625 0.73046875 0.4619140625 c 1x30
 0.7783203125 0.4638671875 0.828125 0.4677734375 0.8759765625 0.4697265625 c 1
 0.841796875 0.603515625 0.8095703125 0.736328125 0.7763671875 0.8701171875 c 1
 0.7119140625 1.1240234375 0.673828125 1.2763671875 0.673828125 1.2783203125 c 0x50
1.91796875 1.099609375 m 0
 1.921875 1.1240234375 1.826171875 1.1318359375 1.513671875 1.1318359375 c 0
 1.154296875 1.1318359375 0.91015625 1.1220703125 0.908203125 1.1083984375 c 0
 0.90625 1.09765625 0.9482421875 0.91796875 0.986328125 0.7744140625 c 1
 1.013671875 0.66796875 1.0380859375 0.5595703125 1.06640625 0.4541015625 c 1
 1.1396484375 0.4560546875 1.2197265625 0.4599609375 1.2939453125 0.4619140625 c 1x30
 1.3681640625 0.4638671875 1.4462890625 0.4677734375 1.51953125 0.4697265625 c 1x50
 1.5859375 0.5703125 1.650390625 0.66796875 1.7158203125 0.767578125 c 1
 1.7177734375 0.7724609375 1.912109375 1.0703125 1.91796875 1.099609375 c 0
1.4677734375 0.3916015625 m 0
 1.4697265625 0.400390625 1.3818359375 0.40625 1.2763671875 0.40625 c 0
 1.1640625 0.40625 1.08203125 0.3984375 1.080078125 0.3896484375 c 0
 1.078125 0.3837890625 1.1015625 0.2919921875 1.1357421875 0.16796875 c 1
 1.15625 0.09765625 1.173828125 0.0283203125 1.1943359375 -0.0419921875 c 1
 1.240234375 0.0283203125 1.2841796875 0.099609375 1.330078125 0.169921875 c 1
 1.396484375 0.2744140625 1.4658203125 0.3857421875 1.4677734375 0.3916015625 c 0
EndSplineSet
Validated: 33
EndChar

StartChar: E
Encoding: 69 69 22
Width: 1
Flags: HW
LayerCount: 2
Back
Fore
SplineSet
0.7861328125 0.82421875 m 1
 0.740234375 1.005859375 0.6904296875 1.1884765625 0.6435546875 1.3701171875 c 1
 0.8740234375 1.3701171875 1.1064453125 1.3701171875 1.3359375 1.3701171875 c 1
 1.56640625 1.3701171875 1.7998046875 1.3701171875 2.0302734375 1.3701171875 c 1
 1.9521484375 1.25 1.8759765625 1.1279296875 1.7978515625 1.0078125 c 1
 1.59765625 0.6962890625 1.4501953125 0.4638671875 1.3642578125 0.330078125 c 1
 1.2958984375 0.2236328125 1.23046875 0.1201171875 1.162109375 0.013671875 c 1
 1.1318359375 0.013671875 1.103515625 0.013671875 1.07421875 0.013671875 c 1
 0.984375 0.013671875 0.984375 0.013671875 0.9716796875 0.0703125 c 0
 0.9462890625 0.1904296875 0.8896484375 0.4140625 0.7861328125 0.82421875 c 1
1.759765625 1.2060546875 m 0
 1.767578125 1.2216796875 1.603515625 1.232421875 1.314453125 1.232421875 c 1
 1.16015625 1.232421875 1.00390625 1.232421875 0.849609375 1.232421875 c 1
 0.853515625 1.2138671875 0.8564453125 1.1982421875 0.8603515625 1.1796875 c 1
 0.8681640625 1.1435546875 0.93359375 0.8740234375 0.98828125 0.66015625 c 1
 1.0283203125 0.50390625 1.068359375 0.345703125 1.1083984375 0.1904296875 c 1
 1.2138671875 0.3564453125 1.32421875 0.5244140625 1.4296875 0.6904296875 c 1
 1.583984375 0.927734375 1.755859375 1.1982421875 1.759765625 1.2060546875 c 0
EndSplineSet
Validated: 33
EndChar

StartChar: F
Encoding: 70 70 23
Width: 1
Flags: HW
LayerCount: 2
Back
Fore
SplineSet
2.4755859375 0.828125 m 0
 2.494140625 0.8720703125 2.515625 0.91796875 2.51953125 0.91796875 c 0
 2.5263671875 0.91796875 2.5078125 0.81640625 2.4697265625 0.6201171875 c 0
 2.427734375 0.408203125 2.41015625 0.32421875 2.3984375 0.32421875 c 0
 2.3935546875 0.32421875 2.3916015625 0.330078125 2.3896484375 0.341796875 c 0
 2.3798828125 0.396484375 2.3876953125 0.4921875 2.408203125 0.591796875 c 0
 2.423828125 0.67578125 2.4482421875 0.76171875 2.4755859375 0.828125 c 0
0.7822265625 1.26953125 m 0
 0.7841796875 1.2841796875 1.1416015625 1.2939453125 1.68359375 1.2939453125 c 1
 1.984375 1.2939453125 2.2822265625 1.2939453125 2.58203125 1.2939453125 c 1
 2.578125 1.26953125 2.572265625 1.248046875 2.568359375 1.2236328125 c 1
 2.564453125 1.2001953125 2.5576171875 1.17578125 2.5537109375 1.15234375 c 1
 2.48046875 1.15234375 2.40234375 1.15234375 2.328125 1.15234375 c 1
 2.25390625 1.15234375 2.1796875 1.15234375 2.1064453125 1.15234375 c 1
 2.0498046875 1.0703125 1.99609375 0.98828125 1.9423828125 0.90625 c 1
 1.8857421875 0.82421875 1.833984375 0.740234375 1.7783203125 0.658203125 c 1
 1.84375 0.658203125 1.91015625 0.658203125 1.9755859375 0.658203125 c 1
 2.0419921875 0.658203125 2.1083984375 0.658203125 2.173828125 0.658203125 c 1
 2.169921875 0.6337890625 2.1640625 0.6123046875 2.16015625 0.587890625 c 1
 2.15625 0.564453125 2.150390625 0.5419921875 2.146484375 0.517578125 c 1
 2.0703125 0.517578125 1.99609375 0.517578125 1.919921875 0.517578125 c 1
 1.84375 0.517578125 1.767578125 0.517578125 1.6923828125 0.517578125 c 1
 1.6259765625 0.416015625 1.5615234375 0.314453125 1.49609375 0.2119140625 c 1
 1.4296875 0.1103515625 1.3623046875 0.0078125 1.2958984375 -0.09375 c 1
 1.267578125 -0.09375 1.240234375 -0.09375 1.2119140625 -0.09375 c 1
 1.18359375 -0.09375 1.154296875 -0.09375 1.1259765625 -0.09375 c 1
 1.068359375 0.1298828125 1.009765625 0.3564453125 0.9521484375 0.580078125 c 1
 0.8662109375 0.912109375 0.7802734375 1.259765625 0.7822265625 1.26953125 c 0
1.91796875 1.1396484375 m 0
 1.919921875 1.1484375 1.7880859375 1.15234375 1.5322265625 1.15234375 c 0
 1.150390625 1.15234375 0.998046875 1.1435546875 0.994140625 1.1201171875 c 0
 0.984375 1.068359375 1.244140625 0.095703125 1.263671875 0.1142578125 c 0
 1.2802734375 0.1279296875 1.916015625 1.1259765625 1.91796875 1.1396484375 c 0
EndSplineSet
Validated: 33
EndChar

StartChar: G
Encoding: 71 71 24
Width: 1
Flags: HW
LayerCount: 2
Back
Fore
SplineSet
2.08984375 1.333984375 m 0xa2
 2.091796875 1.33984375 2.1416015625 1.34765625 2.1962890625 1.34765625 c 0
 2.251953125 1.34765625 2.259765625 1.341796875 2.25390625 1.3076171875 c 0x12
 2.24609375 1.263671875 2.251953125 1.2021484375 2.265625 1.154296875 c 0
 2.2822265625 1.095703125 2.2822265625 1.01953125 2.267578125 0.9482421875 c 0x18
 2.2578125 0.8916015625 2.23828125 0.837890625 2.2119140625 0.7998046875 c 0
 2.2080078125 0.7939453125 2.2041015625 0.7900390625 2.2041015625 0.7861328125 c 0x14
 2.2021484375 0.7724609375 2.2236328125 0.7724609375 2.2998046875 0.7724609375 c 1
 2.3359375 0.7724609375 2.3720703125 0.7724609375 2.408203125 0.7724609375 c 1
 2.40234375 0.74609375 2.3984375 0.7177734375 2.3916015625 0.6923828125 c 1
 2.3857421875 0.666015625 2.3818359375 0.6376953125 2.3759765625 0.6123046875 c 1
 2.333984375 0.6123046875 2.2900390625 0.6123046875 2.248046875 0.6123046875 c 1
 2.2060546875 0.6123046875 2.162109375 0.6123046875 2.1201171875 0.6123046875 c 1x52
 2.1123046875 0.572265625 2.103515625 0.5341796875 2.095703125 0.494140625 c 1
 2.076171875 0.3916015625 2.083984375 0.353515625 2.15234375 0.171875 c 1
 2.177734375 0.103515625 2.2041015625 0.0361328125 2.23046875 -0.0322265625 c 1
 2.2021484375 -0.0322265625 2.171875 -0.0322265625 2.1435546875 -0.0322265625 c 1
 2.080078125 -0.0322265625 2.0556640625 -0.017578125 2.0380859375 0.017578125 c 1
 2.0302734375 0.0341796875 2.0224609375 0.0517578125 2.013671875 0.068359375 c 1
 2.009765625 0.0517578125 2.0078125 0.0341796875 2.00390625 0.017578125 c 1
 1.99609375 -0.0263671875 1.982421875 -0.0322265625 1.908203125 -0.0322265625 c 1
 1.8798828125 -0.0322265625 1.853515625 -0.0322265625 1.826171875 -0.0322265625 c 1
 1.83984375 0.0380859375 1.849609375 0.1103515625 1.8642578125 0.1796875 c 1
 1.8935546875 0.330078125 1.896484375 0.41015625 1.8681640625 0.4619140625 c 0
 1.837890625 0.517578125 1.76953125 0.5419921875 1.6376953125 0.5419921875 c 1
 1.591796875 0.5419921875 1.5439453125 0.5400390625 1.498046875 0.5400390625 c 1
 1.435546875 0.4443359375 1.3779296875 0.349609375 1.31640625 0.25390625 c 1
 1.25390625 0.158203125 1.1962890625 0.064453125 1.1337890625 -0.0322265625 c 1
 1.1064453125 -0.0322265625 1.078125 -0.0322265625 1.0498046875 -0.0322265625 c 1
 1.0224609375 -0.0322265625 0.99609375 -0.0322265625 0.9677734375 -0.0322265625 c 1
 0.91015625 0.1884765625 0.853515625 0.40625 0.7958984375 0.6259765625 c 1
 0.6982421875 1.0078125 0.6279296875 1.2939453125 0.6298828125 1.3037109375 c 0
 0.6318359375 1.31640625 0.822265625 1.322265625 1.1220703125 1.322265625 c 0
 1.2001953125 1.322265625 1.2861328125 1.3203125 1.3779296875 1.3203125 c 0
 1.4697265625 1.3203125 1.5556640625 1.318359375 1.6318359375 1.318359375 c 0
 1.9140625 1.318359375 2.087890625 1.32421875 2.08984375 1.333984375 c 0xa2
1.73828125 1.17578125 m 0
 1.740234375 1.18359375 1.6103515625 1.185546875 1.3623046875 1.185546875 c 0x20
 0.990234375 1.185546875 0.83984375 1.17578125 0.8359375 1.154296875 c 0
 0.826171875 1.103515625 1.080078125 0.15625 1.09765625 0.173828125 c 0
 1.1123046875 0.185546875 1.736328125 1.1640625 1.73828125 1.17578125 c 0
2.013671875 1.1640625 m 0
 1.99609375 1.1640625 1.9599609375 1.16796875 1.9541015625 1.171875 c 0
 1.9521484375 1.171875 1.9521484375 1.171875 1.9501953125 1.171875 c 0
 1.923828125 1.171875 1.8603515625 1.091796875 1.73046875 0.8935546875 c 0
 1.65625 0.7822265625 1.6015625 0.6923828125 1.599609375 0.6904296875 c 1
 1.59765625 0.68359375 1.6201171875 0.6796875 1.65625 0.6796875 c 0
 1.740234375 0.6796875 1.8935546875 0.6962890625 1.9501953125 0.7177734375 c 0
 1.9697265625 0.7255859375 1.9736328125 0.736328125 2.005859375 0.90234375 c 0x88
 2.0537109375 1.1435546875 2.0537109375 1.1640625 2.013671875 1.1640625 c 0
EndSplineSet
Validated: 33
EndChar

StartChar: H
Encoding: 72 72 25
Width: 1
Flags: HW
LayerCount: 2
Back
Fore
SplineSet
1.162109375 0.919921875 m 1
 1.2421875 1.0439453125 1.3203125 1.169921875 1.400390625 1.2939453125 c 1
 1.5302734375 1.2900390625 1.66015625 1.2880859375 1.7900390625 1.2841796875 c 1
 2.1142578125 1.2763671875 2.1943359375 1.263671875 2.259765625 1.2216796875 c 0
 2.3564453125 1.158203125 2.3916015625 1.0419921875 2.3603515625 0.8798828125 c 0
 2.326171875 0.7041015625 2.236328125 0.58203125 2.08984375 0.51171875 c 1
 2.0576171875 0.49609375 2.0224609375 0.48046875 1.990234375 0.4638671875 c 1
 2.005859375 0.4443359375 2.0244140625 0.423828125 2.0400390625 0.404296875 c 1
 2.1357421875 0.2822265625 2.24609375 -0.080078125 2.2236328125 -0.1962890625 c 0
 2.2177734375 -0.2275390625 2.2021484375 -0.244140625 2.1796875 -0.244140625 c 0
 2.1337890625 -0.244140625 2.09375 -0.171875 2.01171875 0.0478515625 c 0
 1.8984375 0.3564453125 1.8564453125 0.40625 1.6904296875 0.40625 c 1
 1.65625 0.40625 1.6240234375 0.40625 1.58984375 0.40625 c 1
 1.5703125 0.2978515625 1.5478515625 0.1884765625 1.5283203125 0.080078125 c 1
 1.5078125 -0.0283203125 1.484375 -0.1357421875 1.4638671875 -0.244140625 c 1
 1.435546875 -0.244140625 1.408203125 -0.244140625 1.3798828125 -0.244140625 c 1
 1.3515625 -0.244140625 1.322265625 -0.244140625 1.2939453125 -0.244140625 c 1
 1.314453125 -0.1357421875 1.337890625 -0.0283203125 1.3583984375 0.080078125 c 1
 1.3779296875 0.1884765625 1.40234375 0.2978515625 1.421875 0.40625 c 1
 1.3564453125 0.40625 1.2880859375 0.40625 1.2216796875 0.40625 c 1
 1.15625 0.40625 1.08984375 0.40625 1.0244140625 0.40625 c 1
 0.9521484375 0.2978515625 0.8818359375 0.1884765625 0.8095703125 0.080078125 c 1
 0.73828125 -0.0283203125 0.66796875 -0.1357421875 0.595703125 -0.244140625 c 1
 0.564453125 -0.244140625 0.5302734375 -0.244140625 0.498046875 -0.244140625 c 1
 0.4658203125 -0.244140625 0.43359375 -0.244140625 0.40234375 -0.244140625 c 1
 0.490234375 -0.1123046875 0.576171875 0.01953125 0.6640625 0.15234375 c 1
 0.7998046875 0.3564453125 1.01953125 0.6982421875 1.162109375 0.919921875 c 1
1.505859375 0.845703125 m 2
 1.5556640625 1.1083984375 1.5576171875 1.1318359375 1.517578125 1.1318359375 c 0
 1.4755859375 1.1318359375 1.4501953125 1.09765625 1.234375 0.75 c 1
 1.1962890625 0.6884765625 1.154296875 0.6240234375 1.1162109375 0.5615234375 c 1
 1.171875 0.5615234375 1.2275390625 0.5615234375 1.2841796875 0.5615234375 c 1
 1.33984375 0.5615234375 1.396484375 0.5615234375 1.4521484375 0.5615234375 c 1
 1.4697265625 0.65625 1.48828125 0.751953125 1.505859375 0.845703125 c 2
2.0595703125 1.1064453125 m 0
 2.0078125 1.1201171875 1.9140625 1.1318359375 1.845703125 1.1318359375 c 1
 1.8056640625 1.1318359375 1.7724609375 1.1318359375 1.732421875 1.1318359375 c 1
 1.7138671875 1.0361328125 1.6943359375 0.9423828125 1.67578125 0.845703125 c 1
 1.658203125 0.751953125 1.6376953125 0.65625 1.6201171875 0.5615234375 c 1
 1.6640625 0.5615234375 1.7099609375 0.5615234375 1.75390625 0.5615234375 c 1
 2.00390625 0.5615234375 2.1484375 0.662109375 2.1884765625 0.8642578125 c 0
 2.2138671875 0.998046875 2.171875 1.07421875 2.0595703125 1.1064453125 c 0
EndSplineSet
Validated: 33
EndChar

StartChar: I
Encoding: 73 73 26
Width: 1
Flags: HW
LayerCount: 2
Back
Fore
SplineSet
0.6240234375 1.1923828125 m 0xec
 0.6259765625 1.2060546875 0.6416015625 1.2119140625 0.68359375 1.2119140625 c 1
 0.7041015625 1.2119140625 0.7275390625 1.2119140625 0.748046875 1.2119140625 c 1
 0.7578125 1.1357421875 0.765625 1.0595703125 0.7763671875 0.984375 c 1
 0.7822265625 0.9443359375 0.7880859375 0.8916015625 0.7958984375 0.837890625 c 0
 0.8115234375 0.7236328125 0.828125 0.58984375 0.83984375 0.4921875 c 1
 0.849609375 0.404296875 0.8642578125 0.31640625 0.8740234375 0.2275390625 c 1
 0.9599609375 0.3916015625 1.0478515625 0.5556640625 1.1337890625 0.7197265625 c 1
 1.2197265625 0.8837890625 1.3056640625 1.0478515625 1.3916015625 1.2119140625 c 1
 1.4140625 1.2119140625 1.435546875 1.2119140625 1.4580078125 1.2119140625 c 1
 1.48046875 1.2119140625 1.50390625 1.2119140625 1.5263671875 1.2119140625 c 1
 1.494140625 1.15234375 1.4619140625 1.091796875 1.4296875 1.0322265625 c 1
 1.2939453125 0.7783203125 1.2041015625 0.6103515625 1.1259765625 0.4638671875 c 1
 1.0556640625 0.333984375 0.984375 0.2060546875 0.9140625 0.076171875 c 1
 0.8896484375 0.07421875 0.8662109375 0.072265625 0.841796875 0.0703125 c 1
 0.8203125 0.068359375 0.7939453125 0.06640625 0.7724609375 0.064453125 c 1
 0.748046875 0.244140625 0.7197265625 0.421875 0.6962890625 0.6015625 c 1
 0.6962890625 0.6083984375 0.6181640625 1.16015625 0.6240234375 1.1923828125 c 0xec
0.984375 1.2001953125 m 0
 1.015625 1.23046875 1.064453125 1.24609375 1.103515625 1.24609375 c 0
 1.1083984375 1.24609375 1.169921875 1.244140625 1.162109375 1.2041015625 c 0
 1.158203125 1.1884765625 1.1396484375 1.181640625 1.099609375 1.181640625 c 0xdc
 1.0458984375 1.181640625 1.017578125 1.16796875 1.013671875 1.146484375 c 0
 1.009765625 1.1240234375 1.0283203125 1.095703125 1.068359375 1.0615234375 c 0
 1.1201171875 1.01953125 1.1376953125 0.98046875 1.1298828125 0.9423828125 c 0
 1.1279296875 0.93359375 1.1279296875 0.927734375 1.1240234375 0.919921875 c 0
 1.095703125 0.8662109375 1.0263671875 0.8359375 0.9716796875 0.8359375 c 0
 0.9296875 0.8359375 0.8984375 0.8564453125 0.90625 0.896484375 c 0
 0.91015625 0.916015625 0.91796875 0.91796875 0.9443359375 0.90625 c 0
 0.9658203125 0.896484375 0.986328125 0.8916015625 1.001953125 0.8916015625 c 0
 1.0322265625 0.8916015625 1.0498046875 0.90625 1.0537109375 0.927734375 c 0
 1.0595703125 0.9541015625 1.0458984375 0.990234375 1.00390625 1.0244140625 c 0
 0.9599609375 1.0595703125 0.9423828125 1.1015625 0.9501953125 1.1416015625 c 0
 0.9541015625 1.162109375 0.9658203125 1.181640625 0.984375 1.2001953125 c 0
EndSplineSet
Validated: 33
EndChar

StartChar: J
Encoding: 74 74 27
Width: 1
Flags: HW
LayerCount: 2
Back
Fore
SplineSet
0.7236328125 1.333984375 m 0
 0.7763671875 1.3798828125 0.826171875 1.40234375 0.8720703125 1.40234375 c 0
 0.91796875 1.40234375 0.9619140625 1.3798828125 1.00390625 1.3359375 c 0
 1.0439453125 1.2919921875 1.0517578125 1.259765625 1.0400390625 1.1982421875 c 0
 1.0283203125 1.1396484375 1.00390625 1.078125 0.98046875 1.0517578125 c 0
 0.9716796875 1.0419921875 0.9677734375 1.0322265625 0.9638671875 1.013671875 c 0
 0.9541015625 0.9638671875 0.9619140625 0.8564453125 1 0.5537109375 c 0
 1.0244140625 0.3603515625 1.0400390625 0.2578125 1.078125 0.2578125 c 0
 1.1201171875 0.2578125 1.1904296875 0.3896484375 1.337890625 0.673828125 c 0
 1.4423828125 0.8720703125 1.48046875 0.9482421875 1.490234375 0.998046875 c 0
 1.49609375 1.0263671875 1.494140625 1.0458984375 1.486328125 1.07421875 c 0
 1.4716796875 1.1318359375 1.4658203125 1.166015625 1.4716796875 1.1943359375 c 0
 1.4755859375 1.2158203125 1.484375 1.234375 1.501953125 1.255859375 c 0
 1.572265625 1.345703125 1.662109375 1.3935546875 1.73828125 1.3935546875 c 0
 1.8076171875 1.3935546875 1.8642578125 1.353515625 1.8876953125 1.2744140625 c 0
 1.896484375 1.2421875 1.8984375 1.2080078125 1.8916015625 1.173828125 c 0
 1.8759765625 1.091796875 1.81640625 1.013671875 1.734375 0.984375 c 0
 1.66015625 0.9560546875 1.6181640625 0.904296875 1.4921875 0.671875 c 0
 1.337890625 0.3896484375 1.2724609375 0.236328125 1.248046875 0.1103515625 c 0
 1.244140625 0.09375 1.240234375 0.080078125 1.23828125 0.064453125 c 0
 1.236328125 0.0537109375 1.23828125 0.0458984375 1.236328125 0.0380859375 c 0
 1.2255859375 -0.015625 1.2041015625 -0.0498046875 1.15625 -0.087890625 c 0
 1.103515625 -0.1298828125 1.0498046875 -0.150390625 1.001953125 -0.150390625 c 0
 0.9462890625 -0.150390625 0.896484375 -0.1240234375 0.8515625 -0.0703125 c 0
 0.830078125 -0.0419921875 0.826171875 -0.0244140625 0.837890625 0.0400390625 c 0
 0.83984375 0.0517578125 0.84375 0.064453125 0.84765625 0.080078125 c 0
 0.8515625 0.09765625 0.853515625 0.1142578125 0.8583984375 0.1298828125 c 0
 0.8837890625 0.263671875 0.8779296875 0.34375 0.83984375 0.59765625 c 0
 0.7958984375 0.8916015625 0.7763671875 0.9658203125 0.736328125 0.9658203125 c 0
 0.6796875 0.9658203125 0.6162109375 1.1103515625 0.6318359375 1.1962890625 c 0
 0.6396484375 1.2421875 0.673828125 1.2900390625 0.7236328125 1.333984375 c 0
0.9404296875 1.2041015625 m 0
 0.927734375 1.255859375 0.8916015625 1.2802734375 0.853515625 1.2802734375 c 0
 0.8056640625 1.2802734375 0.75390625 1.240234375 0.740234375 1.16796875 c 0
 0.7275390625 1.103515625 0.7578125 1.068359375 0.8017578125 1.068359375 c 0
 0.833984375 1.068359375 0.8701171875 1.0859375 0.91015625 1.1240234375 c 0
 0.927734375 1.1416015625 0.9384765625 1.154296875 0.9423828125 1.169921875 c 0
 0.9443359375 1.1796875 0.9443359375 1.1923828125 0.9404296875 1.2041015625 c 0
1.7783203125 1.24609375 m 0
 1.765625 1.267578125 1.732421875 1.2822265625 1.7001953125 1.2822265625 c 0
 1.6435546875 1.2822265625 1.595703125 1.240234375 1.5859375 1.18359375 c 0
 1.583984375 1.173828125 1.583984375 1.166015625 1.583984375 1.15625 c 0
 1.5859375 1.103515625 1.6240234375 1.068359375 1.666015625 1.068359375 c 0
 1.67578125 1.068359375 1.685546875 1.0703125 1.6962890625 1.07421875 c 0
 1.73828125 1.08984375 1.7744140625 1.1416015625 1.7822265625 1.1884765625 c 0
 1.7861328125 1.2099609375 1.7861328125 1.23046875 1.7783203125 1.24609375 c 0
1.087890625 0.177734375 m 0
 1.076171875 0.185546875 1.068359375 0.1884765625 1.0556640625 0.1884765625 c 0
 1.0400390625 0.1884765625 1.01953125 0.177734375 0.998046875 0.15625 c 0
 0.9638671875 0.1240234375 0.9462890625 0.091796875 0.9404296875 0.064453125 c 0
 0.93359375 0.0302734375 0.9482421875 -0.00390625 0.982421875 -0.0322265625 c 0
 0.994140625 -0.0439453125 1.00390625 -0.0498046875 1.015625 -0.0498046875 c 0
 1.0283203125 -0.0498046875 1.0380859375 -0.0439453125 1.0517578125 -0.0341796875 c 0
 1.095703125 -0.00390625 1.1240234375 0.0341796875 1.1318359375 0.072265625 c 0
 1.1396484375 0.1123046875 1.1259765625 0.15234375 1.087890625 0.177734375 c 0
EndSplineSet
Validated: 33
EndChar

StartChar: K
Encoding: 75 75 28
Width: 1
Flags: HW
LayerCount: 2
Back
Fore
SplineSet
1.2158203125 1.23046875 m 1xd980
 1.2177734375 1.251953125 1.2197265625 1.2724609375 1.2216796875 1.2939453125 c 1
 1.2861328125 1.2939453125 1.345703125 1.2939453125 1.41015625 1.2939453125 c 1
 1.4716796875 1.2939453125 1.5341796875 1.2939453125 1.595703125 1.2939453125 c 1
 1.591796875 1.26953125 1.5859375 1.248046875 1.58203125 1.2236328125 c 1xdc80
 1.5703125 1.1640625 1.5576171875 1.15234375 1.513671875 1.15234375 c 1
 1.49609375 1.15234375 1.4775390625 1.15234375 1.4599609375 1.15234375 c 1xd980
 1.4443359375 1.0703125 1.427734375 0.98828125 1.412109375 0.90625 c 1xda80
 1.396484375 0.82421875 1.3798828125 0.740234375 1.3642578125 0.658203125 c 1
 1.435546875 0.658203125 1.509765625 0.658203125 1.58203125 0.658203125 c 1
 1.654296875 0.658203125 1.73046875 0.658203125 1.8017578125 0.658203125 c 1xb980
 1.8056640625 0.681640625 1.8115234375 0.7060546875 1.81640625 0.73046875 c 1
 1.828125 0.7939453125 1.833984375 0.7998046875 1.8935546875 0.7998046875 c 1
 1.916015625 0.7998046875 1.9384765625 0.7998046875 1.9599609375 0.7998046875 c 1
 1.9482421875 0.734375 1.931640625 0.666015625 1.919921875 0.599609375 c 1
 1.908203125 0.5341796875 1.8935546875 0.4658203125 1.8818359375 0.400390625 c 1
 1.8603515625 0.400390625 1.837890625 0.400390625 1.81640625 0.400390625 c 1xd980
 1.755859375 0.400390625 1.751953125 0.40625 1.763671875 0.4697265625 c 1
 1.767578125 0.494140625 1.7744140625 0.517578125 1.7783203125 0.5419921875 c 1
 1.7060546875 0.5419921875 1.6318359375 0.5419921875 1.5595703125 0.5419921875 c 1
 1.48828125 0.5419921875 1.4140625 0.5419921875 1.341796875 0.5419921875 c 1xb980
 1.326171875 0.4560546875 1.3076171875 0.3681640625 1.2919921875 0.2822265625 c 1xba80
 1.2763671875 0.1962890625 1.255859375 0.1103515625 1.240234375 0.0244140625 c 1xb980
 1.2578125 0.0244140625 1.2763671875 0.0244140625 1.2939453125 0.0244140625 c 1
 1.337890625 0.0244140625 1.345703125 0.009765625 1.33203125 -0.0615234375 c 0
 1.328125 -0.08203125 1.326171875 -0.09375 1.32421875 -0.09375 c 0
 0.9658203125 -0.09375 0.9541015625 -0.09375 0.9619140625 -0.0556640625 c 0xbc80
 0.9736328125 0.009765625 0.98828125 0.0224609375 1.0498046875 0.0283203125 c 1
 1.07421875 0.0302734375 1.09765625 0.0341796875 1.1220703125 0.0361328125 c 1
 1.1376953125 0.1181640625 1.154296875 0.2001953125 1.169921875 0.2822265625 c 1
 1.185546875 0.3642578125 1.2021484375 0.4482421875 1.2177734375 0.5302734375 c 1
 1.1416015625 0.5302734375 1.064453125 0.5302734375 0.98828125 0.5302734375 c 1
 0.912109375 0.5302734375 0.8359375 0.5302734375 0.759765625 0.5302734375 c 1
 0.75390625 0.5078125 0.744140625 0.486328125 0.73828125 0.4638671875 c 1
 0.7216796875 0.41015625 0.7080078125 0.400390625 0.650390625 0.400390625 c 0
 0.6142578125 0.400390625 0.6142578125 0.40625 0.65234375 0.599609375 c 0
 0.6904296875 0.7919921875 0.6923828125 0.7998046875 0.7236328125 0.7998046875 c 0
 0.7900390625 0.7998046875 0.7978515625 0.7919921875 0.7861328125 0.7275390625 c 1
 0.7822265625 0.7041015625 0.7763671875 0.6796875 0.7724609375 0.65625 c 1
 0.849609375 0.658203125 0.9296875 0.662109375 1.0078125 0.6640625 c 1
 1.0859375 0.666015625 1.16796875 0.66796875 1.24609375 0.669921875 c 1xda80
 1.263671875 0.75 1.2802734375 0.830078125 1.2978515625 0.91015625 c 1
 1.31640625 0.990234375 1.333984375 1.0703125 1.3515625 1.150390625 c 1
 1.328125 1.15234375 1.3037109375 1.15625 1.2802734375 1.158203125 c 1
 1.2216796875 1.1640625 1.2119140625 1.17578125 1.2158203125 1.23046875 c 1xd980
EndSplineSet
Validated: 33
EndChar

StartChar: L
Encoding: 76 76 29
Width: 1
Flags: HW
LayerCount: 2
Back
Fore
SplineSet
1.173828125 0.32421875 m 0xf0
 1.1982421875 0.345703125 1.2236328125 0.3564453125 1.2421875 0.3564453125 c 0
 1.2783203125 0.3564453125 1.2998046875 0.3203125 1.2939453125 0.2578125 c 0
 1.2919921875 0.251953125 1.2939453125 0.248046875 1.2919921875 0.2421875 c 0
 1.2822265625 0.185546875 1.248046875 0.154296875 1.2099609375 0.154296875 c 0
 1.1943359375 0.154296875 1.177734375 0.16015625 1.16015625 0.173828125 c 0
 1.1337890625 0.1962890625 1.1220703125 0.2216796875 1.1279296875 0.251953125 c 0
 1.1318359375 0.2763671875 1.150390625 0.3017578125 1.173828125 0.32421875 c 0xf0
0.6796875 0.337890625 m 0
 0.7001953125 0.349609375 0.7158203125 0.3564453125 0.732421875 0.3564453125 c 0
 0.7744140625 0.3564453125 0.7998046875 0.31640625 0.7880859375 0.251953125 c 0
 0.7763671875 0.1923828125 0.73828125 0.154296875 0.6982421875 0.154296875 c 0
 0.681640625 0.154296875 0.6640625 0.16015625 0.650390625 0.171875 c 0
 0.6240234375 0.1943359375 0.6162109375 0.2236328125 0.6220703125 0.255859375 c 0xf8
 0.6279296875 0.2861328125 0.6484375 0.31640625 0.6796875 0.337890625 c 0
1.24609375 0.828125 m 0
 1.2744140625 0.8720703125 1.3095703125 0.8916015625 1.341796875 0.8916015625 c 0
 1.3818359375 0.8916015625 1.4140625 0.8603515625 1.40234375 0.8017578125 c 0
 1.396484375 0.765625 1.3759765625 0.744140625 1.328125 0.7216796875 c 0
 1.31640625 0.7158203125 1.3056640625 0.7138671875 1.2978515625 0.7138671875 c 0
 1.2841796875 0.7138671875 1.2744140625 0.7216796875 1.255859375 0.74609375 c 0
 1.23828125 0.76953125 1.23046875 0.7861328125 1.234375 0.8017578125 c 0xf1
 1.236328125 0.8095703125 1.240234375 0.818359375 1.24609375 0.828125 c 0
0.755859375 0.8642578125 m 0
 0.7744140625 0.8798828125 0.8037109375 0.8916015625 0.830078125 0.8916015625 c 0
 0.8818359375 0.8916015625 0.90234375 0.853515625 0.8935546875 0.8115234375 c 0
 0.8876953125 0.7783203125 0.8623046875 0.7421875 0.8203125 0.7216796875 c 0
 0.8095703125 0.7177734375 0.7998046875 0.7138671875 0.7919921875 0.7138671875 c 0
 0.7783203125 0.7138671875 0.767578125 0.7197265625 0.755859375 0.734375 c 0
 0.734375 0.76171875 0.7236328125 0.7919921875 0.73046875 0.8203125 c 0xf8
 0.734375 0.8359375 0.7421875 0.8515625 0.755859375 0.8642578125 c 0
0.9521484375 1.080078125 m 1
 0.9541015625 1.09765625 0.9560546875 1.1181640625 0.9580078125 1.1357421875 c 1
 1.013671875 1.1357421875 1.072265625 1.1357421875 1.1279296875 1.1357421875 c 1
 1.185546875 1.1357421875 1.240234375 1.1357421875 1.2978515625 1.1357421875 c 1
 1.2939453125 1.1162109375 1.2900390625 1.09375 1.2861328125 1.07421875 c 1xf4
 1.2763671875 1.01953125 1.267578125 1.013671875 1.2177734375 1.013671875 c 1
 1.2001953125 1.013671875 1.1796875 1.013671875 1.162109375 1.013671875 c 1
 1.1298828125 0.849609375 1.09765625 0.68359375 1.06640625 0.51953125 c 1
 1.0341796875 0.353515625 1 0.1904296875 0.9677734375 0.0244140625 c 1xf2
 0.986328125 0.0244140625 1.0078125 0.0244140625 1.0263671875 0.0244140625 c 1
 1.07421875 0.0244140625 1.080078125 0.013671875 1.068359375 -0.0478515625 c 0
 1.0615234375 -0.076171875 1.064453125 -0.076171875 0.8935546875 -0.076171875 c 0
 0.7236328125 -0.076171875 0.7236328125 -0.076171875 0.73046875 -0.0498046875 c 0xf4
 0.7421875 0.009765625 0.751953125 0.0224609375 0.8056640625 0.0283203125 c 1
 0.826171875 0.0302734375 0.84765625 0.0322265625 0.8681640625 0.0341796875 c 1
 0.90234375 0.1982421875 0.93359375 0.3603515625 0.9677734375 0.5244140625 c 1xf2
 1.001953125 0.685546875 1.0341796875 0.849609375 1.068359375 1.01171875 c 1
 1.0478515625 1.013671875 1.0283203125 1.015625 1.0078125 1.017578125 c 1
 0.9580078125 1.0244140625 0.9482421875 1.0341796875 0.9521484375 1.080078125 c 1
EndSplineSet
Validated: 33
EndChar

StartChar: M
Encoding: 77 77 30
Width: 1
Flags: HW
LayerCount: 2
Back
Fore
SplineSet
1.572265625 0.4736328125 m 0xcf30
 1.58984375 0.486328125 1.6015625 0.4921875 1.6142578125 0.4921875 c 0
 1.6259765625 0.4921875 1.6357421875 0.486328125 1.6484375 0.4736328125 c 0
 1.681640625 0.4462890625 1.6962890625 0.4140625 1.6904296875 0.3798828125 c 0
 1.68359375 0.3515625 1.6640625 0.322265625 1.6318359375 0.2919921875 c 0
 1.6103515625 0.26953125 1.587890625 0.2578125 1.572265625 0.2578125 c 0
 1.5556640625 0.2578125 1.5419921875 0.267578125 1.5263671875 0.2880859375 c 0
 1.5 0.3203125 1.490234375 0.349609375 1.49609375 0.3798828125 c 0
 1.501953125 0.412109375 1.5283203125 0.4443359375 1.572265625 0.4736328125 c 0xcf30
0.9482421875 0.4658203125 m 0
 0.9716796875 0.484375 0.986328125 0.494140625 1 0.494140625 c 0
 1.01171875 0.494140625 1.0224609375 0.48828125 1.0341796875 0.4775390625 c 0
 1.0703125 0.4482421875 1.080078125 0.41015625 1.07421875 0.3740234375 c 0
 1.068359375 0.34765625 1.0517578125 0.3203125 1.0244140625 0.2978515625 c 0
 0.998046875 0.2783203125 0.9736328125 0.267578125 0.9521484375 0.267578125 c 0
 0.912109375 0.267578125 0.8818359375 0.2978515625 0.8798828125 0.3564453125 c 0
 0.8798828125 0.3662109375 0.8779296875 0.3740234375 0.8798828125 0.3818359375 c 0
 0.8857421875 0.41015625 0.90625 0.43359375 0.9482421875 0.4658203125 c 0
1.65234375 1.099609375 m 0
 1.669921875 1.1201171875 1.7119140625 1.1357421875 1.744140625 1.1357421875 c 0
 1.7998046875 1.1357421875 1.828125 1.091796875 1.818359375 1.0361328125 c 0
 1.81640625 1.0263671875 1.8115234375 1.013671875 1.8076171875 1.00390625 c 0
 1.7841796875 0.9482421875 1.736328125 0.919921875 1.6962890625 0.919921875 c 0
 1.65625 0.919921875 1.6240234375 0.9482421875 1.6220703125 1 c 0
 1.6220703125 1.01171875 1.6220703125 1.0244140625 1.6240234375 1.0361328125 c 0
 1.6298828125 1.0615234375 1.6376953125 1.0859375 1.65234375 1.099609375 c 0
1.0478515625 1.1064453125 m 0
 1.0703125 1.1279296875 1.095703125 1.1376953125 1.1220703125 1.1376953125 c 0
 1.173828125 1.1376953125 1.2216796875 1.099609375 1.2119140625 1.0439453125 c 0xcfb0
 1.2001953125 0.986328125 1.1279296875 0.92578125 1.076171875 0.92578125 c 0
 1.068359375 0.92578125 1.0615234375 0.92578125 1.0537109375 0.927734375 c 0
 1.017578125 0.9423828125 1.00390625 0.994140625 1.013671875 1.0419921875 c 0
 1.017578125 1.06640625 1.0322265625 1.087890625 1.0478515625 1.1064453125 c 0
1.2724609375 1.3564453125 m 1
 1.2763671875 1.3798828125 1.2822265625 1.40625 1.2861328125 1.4296875 c 1xdfb0
 1.353515625 1.4296875 1.423828125 1.4296875 1.4921875 1.4296875 c 1
 1.5595703125 1.4296875 1.6298828125 1.4296875 1.6982421875 1.4296875 c 1
 1.6923828125 1.408203125 1.68359375 1.3837890625 1.677734375 1.3623046875 c 1
 1.662109375 1.3076171875 1.646484375 1.2939453125 1.59375 1.2880859375 c 1
 1.57421875 1.2861328125 1.5498046875 1.2822265625 1.5302734375 1.2802734375 c 1
 1.513671875 1.1962890625 1.49609375 1.1103515625 1.48046875 1.0263671875 c 1
 1.4638671875 0.9404296875 1.4462890625 0.8564453125 1.4296875 0.76953125 c 1
 1.509765625 0.76953125 1.587890625 0.76953125 1.66796875 0.76953125 c 1
 1.748046875 0.76953125 1.826171875 0.76953125 1.90625 0.76953125 c 1xdf70
 1.91015625 0.7939453125 1.916015625 0.8203125 1.919921875 0.84375 c 1
 1.931640625 0.90625 1.9482421875 0.91796875 2.013671875 0.91796875 c 0
 2.0498046875 0.91796875 2.0478515625 0.916015625 2.0078125 0.7099609375 c 0
 1.9677734375 0.50390625 1.9677734375 0.501953125 1.931640625 0.501953125 c 0xef70
 1.8662109375 0.501953125 1.8564453125 0.513671875 1.8681640625 0.576171875 c 1
 1.8720703125 0.599609375 1.8779296875 0.6240234375 1.8818359375 0.6484375 c 1
 1.8017578125 0.6484375 1.7236328125 0.6484375 1.6435546875 0.6484375 c 1
 1.564453125 0.6484375 1.486328125 0.6484375 1.40625 0.6484375 c 1
 1.3876953125 0.5576171875 1.3720703125 0.4697265625 1.353515625 0.3798828125 c 1
 1.3359375 0.2900390625 1.3203125 0.2021484375 1.3017578125 0.1123046875 c 1xdf70
 1.32421875 0.1123046875 1.349609375 0.1123046875 1.3720703125 0.1123046875 c 1
 1.431640625 0.1123046875 1.43359375 0.09765625 1.4140625 -0.0078125 c 0
 1.4140625 -0.009765625 1.33203125 -0.009765625 1.2119140625 -0.009765625 c 0
 1.013671875 -0.009765625 1.0078125 -0.0078125 1.013671875 0.0244140625 c 0xdfb0
 1.0283203125 0.099609375 1.0400390625 0.1123046875 1.09765625 0.1123046875 c 1
 1.1201171875 0.1123046875 1.1435546875 0.1123046875 1.166015625 0.1123046875 c 1
 1.18359375 0.2021484375 1.2001953125 0.2900390625 1.2177734375 0.3798828125 c 1
 1.236328125 0.4697265625 1.251953125 0.5576171875 1.26953125 0.6484375 c 1
 1.1904296875 0.6484375 1.1123046875 0.6484375 1.0322265625 0.6484375 c 1
 0.9521484375 0.6484375 0.8740234375 0.6484375 0.7939453125 0.6484375 c 1xdf70
 0.7900390625 0.6240234375 0.7841796875 0.599609375 0.7802734375 0.576171875 c 1
 0.767578125 0.513671875 0.75390625 0.501953125 0.6884765625 0.501953125 c 0
 0.65234375 0.501953125 0.654296875 0.50390625 0.6943359375 0.7099609375 c 0
 0.734375 0.916015625 0.732421875 0.91796875 0.767578125 0.91796875 c 0xef70
 0.833984375 0.91796875 0.84375 0.90625 0.83203125 0.84375 c 1
 0.828125 0.8203125 0.822265625 0.7939453125 0.818359375 0.76953125 c 1
 0.8984375 0.76953125 0.9755859375 0.76953125 1.0556640625 0.76953125 c 1
 1.1357421875 0.76953125 1.2138671875 0.76953125 1.2939453125 0.76953125 c 1
 1.3095703125 0.8564453125 1.328125 0.9404296875 1.34375 1.0263671875 c 1
 1.3603515625 1.1123046875 1.3779296875 1.1962890625 1.3935546875 1.2822265625 c 1xdf70
 1.3720703125 1.2822265625 1.34765625 1.2822265625 1.326171875 1.2822265625 c 1
 1.263671875 1.2822265625 1.259765625 1.2900390625 1.2724609375 1.3564453125 c 1
EndSplineSet
Validated: 33
EndChar

StartChar: N
Encoding: 78 78 31
Width: 1
Flags: HW
LayerCount: 2
Back
Fore
SplineSet
0.91015625 1.087890625 m 2
 1.103515625 1.318359375 1.26171875 1.49609375 1.26953125 1.49609375 c 0
 1.2861328125 1.49609375 1.650390625 0.7080078125 1.6435546875 0.681640625 c 0
 1.6416015625 0.671875 1.5400390625 0.6640625 1.412109375 0.6640625 c 1
 1.3359375 0.6640625 1.2578125 0.6640625 1.181640625 0.6640625 c 1
 1.173828125 0.6220703125 1.1640625 0.578125 1.15625 0.5361328125 c 1
 1.1484375 0.4921875 1.1396484375 0.4501953125 1.1318359375 0.40625 c 1
 1.1640625 0.40625 1.1962890625 0.40625 1.2275390625 0.40625 c 1
 1.3203125 0.40625 1.32421875 0.40234375 1.3095703125 0.328125 c 0
 1.2958984375 0.25390625 1.2900390625 0.25 1.1982421875 0.25 c 1
 1.166015625 0.25 1.1337890625 0.25 1.1015625 0.25 c 1
 1.091796875 0.1982421875 1.080078125 0.146484375 1.0703125 0.09375 c 1
 1.0595703125 0.0419921875 1.0498046875 -0.009765625 1.0400390625 -0.0615234375 c 1
 1.015625 -0.0615234375 0.9921875 -0.0615234375 0.9677734375 -0.0615234375 c 1
 0.9443359375 -0.0615234375 0.921875 -0.0615234375 0.8984375 -0.0615234375 c 1
 0.908203125 -0.009765625 0.91796875 0.0419921875 0.927734375 0.09375 c 1
 0.9384765625 0.146484375 0.9482421875 0.1982421875 0.9580078125 0.25 c 1
 0.92578125 0.25 0.8935546875 0.25 0.8623046875 0.25 c 1
 0.76953125 0.25 0.765625 0.25390625 0.7802734375 0.328125 c 0
 0.7939453125 0.40234375 0.7998046875 0.40625 0.8916015625 0.40625 c 1
 0.923828125 0.40625 0.9560546875 0.40625 0.98828125 0.40625 c 1
 0.99609375 0.4482421875 1.005859375 0.4921875 1.013671875 0.5341796875 c 1
 1.0224609375 0.576171875 1.0302734375 0.6201171875 1.0380859375 0.662109375 c 1
 0.9580078125 0.6640625 0.8818359375 0.66796875 0.8017578125 0.669921875 c 1
 0.7216796875 0.671875 0.6435546875 0.67578125 0.564453125 0.677734375 c 1
 0.6796875 0.814453125 0.7939453125 0.9521484375 0.91015625 1.087890625 c 2
1.353515625 1.01171875 m 0
 1.2919921875 1.150390625 1.236328125 1.26171875 1.2255859375 1.26171875 c 0
 1.2119140625 1.26171875 0.826171875 0.8115234375 0.822265625 0.7900390625 c 0
 0.8203125 0.7763671875 0.9443359375 0.767578125 1.1416015625 0.767578125 c 0
 1.314453125 0.767578125 1.4443359375 0.7763671875 1.4462890625 0.7841796875 c 0
 1.4482421875 0.7900390625 1.404296875 0.904296875 1.353515625 1.01171875 c 0
EndSplineSet
Validated: 33
EndChar

StartChar: O
Encoding: 79 79 32
Width: 1
Flags: HW
LayerCount: 2
Back
Fore
SplineSet
0.7861328125 0.9716796875 m 2xd4
 0.982421875 1.2080078125 1.099609375 1.33984375 1.103515625 1.333984375 c 0
 1.1064453125 1.330078125 1.2041015625 1.1142578125 1.2724609375 0.9638671875 c 1
 1.326171875 0.841796875 1.3837890625 0.7216796875 1.4384765625 0.599609375 c 1
 1.3681640625 0.59765625 1.2998046875 0.595703125 1.23046875 0.59375 c 1
 1.099609375 0.58984375 1.0341796875 0.576171875 1.0302734375 0.5517578125 c 0xd4
 1.0224609375 0.509765625 1.2802734375 0.091796875 1.32421875 0.072265625 c 0
 1.341796875 0.064453125 1.345703125 0.0322265625 1.3359375 -0.017578125 c 0
 1.330078125 -0.0537109375 1.322265625 -0.0556640625 1.1884765625 -0.0556640625 c 1
 1.1416015625 -0.0556640625 1.09765625 -0.0556640625 1.0517578125 -0.0556640625 c 1
 1.0556640625 -0.0322265625 1.0595703125 -0.009765625 1.064453125 0.013671875 c 1
 1.072265625 0.0576171875 1.08984375 0.08203125 1.1083984375 0.08203125 c 0
 1.1162109375 0.08203125 1.1181640625 0.0859375 1.1201171875 0.091796875 c 0
 1.1240234375 0.1103515625 1.1064453125 0.15625 1.064453125 0.234375 c 0
 1.0302734375 0.2978515625 0.98828125 0.3662109375 0.982421875 0.3701171875 c 0
 0.98046875 0.3720703125 l 0
 0.9677734375 0.3720703125 0.9501953125 0.3076171875 0.9296875 0.2041015625 c 0xcc
 0.91015625 0.1064453125 0.912109375 0.0859375 0.9443359375 0.076171875 c 0
 0.9755859375 0.06640625 0.986328125 0.0439453125 0.9736328125 -0.013671875 c 0
 0.9658203125 -0.0537109375 0.9599609375 -0.0556640625 0.826171875 -0.0556640625 c 0
 0.6923828125 -0.0556640625 0.685546875 -0.0537109375 0.6943359375 -0.013671875 c 0xe4
 0.7060546875 0.0439453125 0.7197265625 0.06640625 0.7578125 0.076171875 c 0
 0.7939453125 0.0859375 0.8037109375 0.1064453125 0.826171875 0.2197265625 c 0xcc
 0.84375 0.31640625 0.853515625 0.3818359375 0.84765625 0.3818359375 c 0
 0.841796875 0.3818359375 0.7802734375 0.318359375 0.7197265625 0.251953125 c 0
 0.6484375 0.171875 0.6083984375 0.1181640625 0.603515625 0.095703125 c 0
 0.6015625 0.08984375 0.603515625 0.087890625 0.6083984375 0.0859375 c 0
 0.6181640625 0.08203125 0.6201171875 0.0478515625 0.6142578125 0.01171875 c 1
 0.6103515625 -0.009765625 0.6064453125 -0.0341796875 0.6015625 -0.0556640625 c 1
 0.5556640625 -0.0556640625 0.5078125 -0.0556640625 0.4619140625 -0.0556640625 c 1
 0.416015625 -0.0556640625 0.3681640625 -0.0556640625 0.322265625 -0.0556640625 c 1
 0.328125 -0.0341796875 0.333984375 -0.013671875 0.33984375 0.0078125 c 1
 0.349609375 0.0419921875 0.3701171875 0.07421875 0.3857421875 0.076171875 c 0
 0.427734375 0.08203125 0.8642578125 0.515625 0.8720703125 0.5595703125 c 0
 0.8759765625 0.576171875 0.7978515625 0.58984375 0.67578125 0.59375 c 1
 0.6103515625 0.595703125 0.5419921875 0.59765625 0.4755859375 0.599609375 c 1
 0.580078125 0.7236328125 0.681640625 0.84765625 0.7861328125 0.9716796875 c 2xd4
1.154296875 0.9296875 m 0
 1.1123046875 1.0361328125 1.0703125 1.1181640625 1.0576171875 1.1181640625 c 0
 1.0439453125 1.1181640625 0.935546875 0.994140625 0.767578125 0.7880859375 c 1
 0.73828125 0.751953125 0.7099609375 0.7158203125 0.6796875 0.6796875 c 1
 0.7763671875 0.6796875 0.8759765625 0.6796875 0.9716796875 0.6796875 c 1
 1.068359375 0.6796875 1.166015625 0.6796875 1.26171875 0.6796875 c 1
 1.25390625 0.7021484375 1.2421875 0.7216796875 1.234375 0.744140625 c 1
 1.2177734375 0.7783203125 1.17578125 0.8779296875 1.154296875 0.9296875 c 0
EndSplineSet
Validated: 33
EndChar

StartChar: P
Encoding: 80 80 33
Width: 1
Flags: HW
LayerCount: 2
Back
Fore
SplineSet
1.1318359375 1.26953125 m 1
 1.1416015625 1.326171875 1.154296875 1.3798828125 1.1640625 1.435546875 c 1
 1.185546875 1.435546875 1.2099609375 1.435546875 1.232421875 1.435546875 c 1
 1.25390625 1.435546875 1.2744140625 1.435546875 1.2958984375 1.435546875 c 1
 1.2861328125 1.3798828125 1.2744140625 1.326171875 1.263671875 1.26953125 c 1
 1.25390625 1.2158203125 1.2421875 1.16015625 1.232421875 1.1064453125 c 1
 1.2763671875 1.1064453125 1.3203125 1.1064453125 1.3642578125 1.1064453125 c 1
 1.48046875 1.1064453125 1.494140625 1.099609375 1.486328125 1.0576171875 c 0
 1.4775390625 1.015625 1.4638671875 1.01171875 1.345703125 1.01171875 c 1
 1.3017578125 1.01171875 1.2578125 1.01171875 1.2138671875 1.01171875 c 1
 1.2099609375 0.98828125 1.2041015625 0.9658203125 1.2001953125 0.9423828125 c 1
 1.1962890625 0.91796875 1.1904296875 0.8935546875 1.185546875 0.8701171875 c 1
 1.23046875 0.8701171875 1.2744140625 0.8701171875 1.318359375 0.8701171875 c 1
 1.435546875 0.8701171875 1.4482421875 0.8662109375 1.4404296875 0.82421875 c 0
 1.431640625 0.7822265625 1.416015625 0.7763671875 1.2998046875 0.7763671875 c 1
 1.255859375 0.7763671875 1.2119140625 0.7763671875 1.16796875 0.7763671875 c 1
 1.16015625 0.73828125 1.154296875 0.7001953125 1.146484375 0.662109375 c 1
 1.1376953125 0.6240234375 1.1318359375 0.5859375 1.1240234375 0.5478515625 c 1
 1.1640625 0.5517578125 1.2060546875 0.5537109375 1.24609375 0.5576171875 c 1
 1.2783203125 0.5595703125 1.3017578125 0.5615234375 1.3203125 0.5615234375 c 0
 1.3662109375 0.5615234375 1.3818359375 0.5498046875 1.404296875 0.51953125 c 0
 1.4619140625 0.4423828125 1.48046875 0.3662109375 1.4658203125 0.2919921875 c 0
 1.4541015625 0.234375 1.421875 0.1796875 1.3681640625 0.1318359375 c 0
 1.3017578125 0.07421875 1.2255859375 0.0458984375 1.158203125 0.0458984375 c 0
 1.1083984375 0.0458984375 1.0576171875 0.0615234375 1.0263671875 0.095703125 c 1
 1.009765625 0.1123046875 0.99609375 0.1279296875 0.98046875 0.1435546875 c 1
 0.9580078125 0.1279296875 0.935546875 0.1123046875 0.9140625 0.095703125 c 1
 0.8701171875 0.064453125 0.8115234375 0.0478515625 0.7578125 0.0478515625 c 0
 0.6982421875 0.0478515625 0.6416015625 0.068359375 0.6064453125 0.103515625 c 0
 0.5615234375 0.150390625 0.5458984375 0.2197265625 0.5615234375 0.2978515625 c 0
 0.5703125 0.337890625 0.5859375 0.3798828125 0.6103515625 0.421875 c 0
 0.666015625 0.517578125 0.73828125 0.5615234375 0.841796875 0.5615234375 c 0
 0.8564453125 0.5615234375 0.8720703125 0.5615234375 0.8857421875 0.5595703125 c 1
 0.919921875 0.5556640625 0.9580078125 0.5517578125 0.9921875 0.5478515625 c 1
 1 0.5859375 1.005859375 0.6240234375 1.013671875 0.662109375 c 1
 1.0224609375 0.7001953125 1.0283203125 0.73828125 1.0361328125 0.7763671875 c 1
 0.994140625 0.7763671875 0.9482421875 0.7763671875 0.90625 0.7763671875 c 1
 0.7900390625 0.7763671875 0.7763671875 0.7822265625 0.7841796875 0.82421875 c 0
 0.7919921875 0.8662109375 0.8056640625 0.8701171875 0.923828125 0.8701171875 c 1
 0.9658203125 0.8701171875 1.01171875 0.8701171875 1.0537109375 0.8701171875 c 1
 1.0576171875 0.8935546875 1.064453125 0.91796875 1.068359375 0.9423828125 c 1
 1.072265625 0.9658203125 1.078125 0.98828125 1.08203125 1.01171875 c 1
 1.0400390625 1.01171875 0.994140625 1.01171875 0.9521484375 1.01171875 c 1
 0.833984375 1.01171875 0.8203125 1.015625 0.828125 1.0576171875 c 0
 0.8359375 1.099609375 0.853515625 1.1064453125 0.9697265625 1.1064453125 c 1
 1.01171875 1.1064453125 1.0576171875 1.1064453125 1.099609375 1.1064453125 c 1
 1.1103515625 1.16015625 1.1220703125 1.2158203125 1.1318359375 1.26953125 c 1
0.92578125 0.408203125 m 0
 0.90625 0.43359375 0.8740234375 0.4462890625 0.837890625 0.4462890625 c 0
 0.7900390625 0.4462890625 0.734375 0.421875 0.6943359375 0.3740234375 c 0
 0.67578125 0.3515625 0.666015625 0.33203125 0.662109375 0.3095703125 c 0
 0.65625 0.2744140625 0.66796875 0.236328125 0.6982421875 0.1943359375 c 0
 0.7236328125 0.158203125 0.748046875 0.1416015625 0.7744140625 0.1416015625 c 0
 0.7978515625 0.1416015625 0.82421875 0.158203125 0.8564453125 0.185546875 c 0
 0.90625 0.23046875 0.935546875 0.2783203125 0.9443359375 0.322265625 c 0
 0.9501953125 0.353515625 0.9462890625 0.3837890625 0.92578125 0.408203125 c 0
1.345703125 0.3896484375 m 0
 1.330078125 0.431640625 1.3037109375 0.4482421875 1.2578125 0.4482421875 c 0
 1.166015625 0.4482421875 1.103515625 0.3857421875 1.08984375 0.314453125 c 0
 1.080078125 0.2578125 1.09765625 0.1943359375 1.158203125 0.154296875 c 0
 1.171875 0.146484375 1.1796875 0.1416015625 1.1923828125 0.1416015625 c 0
 1.2060546875 0.1416015625 1.2177734375 0.1484375 1.240234375 0.162109375 c 0
 1.3056640625 0.2041015625 1.34375 0.251953125 1.353515625 0.3056640625 c 0
 1.3603515625 0.333984375 1.3583984375 0.3623046875 1.345703125 0.3896484375 c 0
EndSplineSet
Validated: 33
EndChar

StartChar: Q
Encoding: 81 81 34
Width: 1
Flags: HW
LayerCount: 2
Back
Fore
SplineSet
1.0078125 -0.0439453125 m 1xf380
 1.01171875 -0.0244140625 1.015625 -0.005859375 1.01953125 0.013671875 c 1
 1.15234375 0.013671875 1.2822265625 0.013671875 1.4140625 0.013671875 c 1
 1.5458984375 0.013671875 1.677734375 0.013671875 1.8095703125 0.013671875 c 1
 1.8056640625 -0.005859375 1.8037109375 -0.0244140625 1.7998046875 -0.0439453125 c 1
 1.7958984375 -0.064453125 1.7919921875 -0.08203125 1.7880859375 -0.1015625 c 1
 1.65625 -0.1015625 1.5244140625 -0.1015625 1.3916015625 -0.1015625 c 1
 1.259765625 -0.1015625 1.1298828125 -0.1015625 0.998046875 -0.1015625 c 1
 1.001953125 -0.08203125 1.00390625 -0.064453125 1.0078125 -0.0439453125 c 1xf380
0.7421875 1.5859375 m 0xf780
 0.75 1.59375 0.7744140625 1.599609375 0.7939453125 1.599609375 c 0
 0.83203125 1.599609375 0.849609375 1.576171875 0.8564453125 1.51171875 c 0xfb80
 0.8701171875 1.3583984375 0.9501953125 1.2783203125 1.08984375 1.2783203125 c 0
 1.2197265625 1.2783203125 1.33203125 1.349609375 1.3916015625 1.4716796875 c 0
 1.42578125 1.5439453125 1.498046875 1.599609375 1.5380859375 1.599609375 c 0
 1.5517578125 1.599609375 1.564453125 1.591796875 1.568359375 1.57421875 c 0
 1.568359375 1.568359375 1.568359375 1.5615234375 1.56640625 1.5537109375 c 0
 1.5556640625 1.505859375 1.51171875 1.4140625 1.486328125 1.396484375 c 0
 1.4755859375 1.3896484375 1.431640625 1.349609375 1.3798828125 1.2978515625 c 1
 1.3515625 1.26953125 1.322265625 1.244140625 1.2939453125 1.2158203125 c 1
 1.318359375 1.1796875 1.34375 1.1435546875 1.3681640625 1.1083984375 c 1
 1.427734375 1.017578125 1.4521484375 0.919921875 1.43359375 0.828125 c 0
 1.427734375 0.7978515625 1.419921875 0.76953125 1.40625 0.7421875 c 0
 1.341796875 0.6181640625 1.171875 0.4775390625 1.017578125 0.41796875 c 0
 0.9716796875 0.400390625 0.9658203125 0.3876953125 0.9521484375 0.3203125 c 1
 0.9462890625 0.2939453125 0.9423828125 0.26953125 0.935546875 0.244140625 c 1
 0.9921875 0.244140625 1.0478515625 0.244140625 1.103515625 0.244140625 c 1
 1.26171875 0.244140625 1.2744140625 0.248046875 1.3017578125 0.2861328125 c 0
 1.3583984375 0.3681640625 1.43359375 0.404296875 1.5439453125 0.404296875 c 0
 1.6142578125 0.404296875 1.646484375 0.3876953125 1.6884765625 0.33203125 c 0
 1.732421875 0.2724609375 1.7763671875 0.244140625 1.818359375 0.244140625 c 0
 1.849609375 0.244140625 1.8515625 0.2236328125 1.8359375 0.1435546875 c 0
 1.83203125 0.1220703125 1.828125 0.1064453125 1.826171875 0.1064453125 c 0
 1.6015625 0.1064453125 1.59375 0.1083984375 1.599609375 0.1376953125 c 0
 1.6181640625 0.23046875 1.572265625 0.2880859375 1.505859375 0.2880859375 c 0
 1.4755859375 0.2880859375 1.4443359375 0.2763671875 1.41015625 0.24609375 c 0
 1.3759765625 0.2158203125 1.349609375 0.17578125 1.34375 0.1416015625 c 0
 1.337890625 0.1103515625 1.3203125 0.1064453125 1.1240234375 0.1064453125 c 1
 1.0537109375 0.1064453125 0.98046875 0.1064453125 0.91015625 0.1064453125 c 1
 0.904296875 0.072265625 0.896484375 0.0361328125 0.8896484375 0.001953125 c 1
 0.8720703125 -0.091796875 0.8642578125 -0.1015625 0.81640625 -0.1015625 c 0
 0.767578125 -0.1015625 0.763671875 -0.091796875 0.7822265625 0.001953125 c 1
 0.7880859375 0.0361328125 0.7958984375 0.072265625 0.8017578125 0.1064453125 c 1
 0.76953125 0.1064453125 0.73828125 0.1064453125 0.7060546875 0.1064453125 c 1
 0.6142578125 0.1064453125 0.6123046875 0.1083984375 0.6240234375 0.173828125 c 0
 0.6357421875 0.240234375 0.6435546875 0.244140625 0.828125 0.244140625 c 0
 0.853515625 0.3798828125 0.8515625 0.396484375 0.7978515625 0.427734375 c 0
 0.6240234375 0.5283203125 0.5595703125 0.654296875 0.595703125 0.8359375 c 0xf780
 0.6201171875 0.9619140625 0.685546875 1.072265625 0.7880859375 1.15625 c 1
 0.8095703125 1.173828125 0.830078125 1.1923828125 0.8515625 1.2099609375 c 1
 0.83203125 1.240234375 0.8115234375 1.26953125 0.7919921875 1.2998046875 c 1
 0.7578125 1.3515625 0.734375 1.423828125 0.732421875 1.4736328125 c 0
 0.732421875 1.484375 0.732421875 1.5078125 0.73046875 1.5322265625 c 0xfb80
 0.7275390625 1.5576171875 0.734375 1.578125 0.7421875 1.5859375 c 0xf780
1.07421875 1.16015625 m 0
 1.072265625 1.16015625 1.072265625 1.16015625 1.0703125 1.16015625 c 0
 1.0556640625 1.1640625 1.0556640625 1.166015625 1.0380859375 1.16015625 c 0
 1.0361328125 1.16015625 1.0361328125 1.158203125 1.0341796875 1.158203125 c 0
 0.8662109375 1.1064453125 0.73828125 0.982421875 0.7119140625 0.845703125 c 0xf780
 0.681640625 0.6904296875 0.7978515625 0.51953125 0.935546875 0.51953125 c 0
 1.0263671875 0.51953125 1.154296875 0.58984375 1.2197265625 0.673828125 c 0
 1.248046875 0.7099609375 1.265625 0.75 1.2763671875 0.8017578125 c 0
 1.2783203125 0.8115234375 1.2802734375 0.822265625 1.2822265625 0.833984375 c 0
 1.3037109375 1.005859375 1.2421875 1.103515625 1.07421875 1.16015625 c 0
EndSplineSet
Validated: 33
EndChar

StartChar: R
Encoding: 82 82 35
Width: 1
Flags: HW
LayerCount: 2
Back
Fore
SplineSet
0.7236328125 1.1357421875 m 0xfa
 0.734375 1.18359375 0.734375 1.18359375 0.83984375 1.18359375 c 0
 0.9462890625 1.18359375 0.9482421875 1.18359375 0.9501953125 1.15625 c 0
 0.9541015625 1.08203125 0.9697265625 1.0498046875 1.01171875 1.0341796875 c 0
 1.0263671875 1.0283203125 1.0419921875 1.0263671875 1.0556640625 1.0263671875 c 0
 1.1142578125 1.0263671875 1.16796875 1.0703125 1.2060546875 1.154296875 c 0
 1.2177734375 1.181640625 1.2236328125 1.18359375 1.3359375 1.18359375 c 1
 1.3759765625 1.18359375 1.412109375 1.18359375 1.4521484375 1.18359375 c 1
 1.4482421875 1.1640625 1.4443359375 1.1435546875 1.4404296875 1.1240234375 c 1xfb
 1.4296875 1.068359375 1.4296875 1.06640625 1.3916015625 1.06640625 c 0
 1.3095703125 1.06640625 1.2822265625 1.0576171875 1.25390625 1.0224609375 c 0
 1.23046875 0.9921875 1.1923828125 0.9638671875 1.15625 0.9521484375 c 0
 1.1376953125 0.9462890625 1.1298828125 0.9404296875 1.1279296875 0.931640625 c 0
 1.1259765625 0.919921875 1.1396484375 0.908203125 1.171875 0.8896484375 c 0
 1.3037109375 0.818359375 1.3515625 0.6943359375 1.328125 0.56640625 c 0
 1.3095703125 0.4697265625 1.25 0.3720703125 1.1435546875 0.2958984375 c 0
 1.08984375 0.255859375 1.0263671875 0.2236328125 0.986328125 0.2158203125 c 0
 0.9560546875 0.2099609375 0.9462890625 0.1962890625 0.935546875 0.1396484375 c 0
 0.927734375 0.09765625 0.931640625 0.095703125 0.998046875 0.095703125 c 0
 1.08984375 0.095703125 1.091796875 0.091796875 1.083984375 0.0458984375 c 0
 1.07421875 -0.001953125 1.064453125 -0.00390625 0.908203125 -0.00390625 c 0
 0.8818359375 -0.1337890625 0.8779296875 -0.1416015625 0.826171875 -0.1416015625 c 0
 0.7744140625 -0.1416015625 0.7744140625 -0.1357421875 0.7998046875 -0.00390625 c 0
 0.6435546875 -0.00390625 0.6337890625 -0.001953125 0.6435546875 0.0458984375 c 0
 0.65234375 0.091796875 0.658203125 0.095703125 0.75 0.095703125 c 0
 0.81640625 0.095703125 0.818359375 0.09765625 0.826171875 0.1376953125 c 0
 0.837890625 0.1962890625 0.83203125 0.2099609375 0.8017578125 0.2158203125 c 0
 0.7138671875 0.236328125 0.6318359375 0.337890625 0.6142578125 0.4521484375 c 0
 0.6083984375 0.490234375 0.6083984375 0.5302734375 0.6162109375 0.5703125 c 0xf680
 0.6396484375 0.6923828125 0.7275390625 0.8115234375 0.8515625 0.8798828125 c 1
 0.8837890625 0.896484375 0.9140625 0.9140625 0.9462890625 0.9296875 c 1
 0.93359375 0.9404296875 0.919921875 0.9521484375 0.908203125 0.9619140625 c 1
 0.8876953125 0.98046875 0.8642578125 1.0078125 0.8564453125 1.0263671875 c 0
 0.841796875 1.0537109375 0.8076171875 1.06640625 0.7421875 1.06640625 c 0
 0.7119140625 1.06640625 0.7119140625 1.072265625 0.7236328125 1.1357421875 c 0xfa
1.1298828125 0.7978515625 m 0
 1.1015625 0.81640625 1.0576171875 0.82421875 1.013671875 0.82421875 c 0
 0.9736328125 0.82421875 0.93359375 0.81640625 0.900390625 0.8017578125 c 0
 0.8076171875 0.763671875 0.744140625 0.662109375 0.7236328125 0.5615234375 c 0
 0.7080078125 0.48046875 0.7216796875 0.40234375 0.7744140625 0.353515625 c 0
 0.8076171875 0.32421875 0.8515625 0.3095703125 0.90234375 0.3095703125 c 0
 0.994140625 0.3095703125 1.099609375 0.3583984375 1.15625 0.4404296875 c 0
 1.1796875 0.4736328125 1.1923828125 0.513671875 1.2001953125 0.5537109375 c 0xf680
 1.2197265625 0.654296875 1.1943359375 0.7578125 1.1298828125 0.7978515625 c 0
1.1201171875 1.517578125 m 0
 1.1435546875 1.5244140625 1.150390625 1.5244140625 1.17578125 1.515625 c 0
 1.251953125 1.4921875 1.2998046875 1.4560546875 1.326171875 1.41015625 c 0
 1.34765625 1.3720703125 1.3779296875 1.3623046875 1.4443359375 1.3623046875 c 0
 1.484375 1.3623046875 1.486328125 1.3583984375 1.4755859375 1.3017578125 c 1
 1.4716796875 1.2822265625 1.4677734375 1.263671875 1.4638671875 1.244140625 c 1
 1.423828125 1.244140625 1.3837890625 1.244140625 1.34375 1.244140625 c 1
 1.232421875 1.244140625 1.2255859375 1.24609375 1.23046875 1.26953125 c 0
 1.244140625 1.34375 1.2001953125 1.40234375 1.1298828125 1.40234375 c 0
 1.0615234375 1.40234375 0.986328125 1.341796875 0.9736328125 1.2783203125 c 0
 0.9677734375 1.248046875 0.9501953125 1.244140625 0.8583984375 1.244140625 c 1
 0.8203125 1.244140625 0.7841796875 1.244140625 0.74609375 1.244140625 c 1
 0.75 1.263671875 0.75390625 1.2822265625 0.7578125 1.3017578125 c 1xfb
 0.767578125 1.3564453125 0.7763671875 1.3623046875 0.81640625 1.3623046875 c 0
 0.8740234375 1.3623046875 0.8984375 1.3740234375 0.931640625 1.41015625 c 0
 0.9736328125 1.4580078125 1.0341796875 1.4921875 1.1201171875 1.517578125 c 0
EndSplineSet
Validated: 33
EndChar

StartChar: S
Encoding: 83 83 36
Width: 1
Flags: HW
LayerCount: 2
Back
Fore
SplineSet
1.083984375 0.8681640625 m 0xefc0
 1.1240234375 0.8984375 1.15625 0.9140625 1.1904296875 0.9140625 c 0
 1.232421875 0.9140625 1.2724609375 0.8896484375 1.3076171875 0.83984375 c 0
 1.337890625 0.7978515625 1.3515625 0.76171875 1.345703125 0.7255859375 c 0
 1.33984375 0.6904296875 1.31640625 0.65625 1.26953125 0.6142578125 c 0
 1.25390625 0.59765625 1.24609375 0.587890625 1.244140625 0.580078125 c 0
 1.2421875 0.572265625 1.24609375 0.564453125 1.255859375 0.5498046875 c 0
 1.2861328125 0.505859375 1.2998046875 0.4638671875 1.2939453125 0.435546875 c 0
 1.2841796875 0.3837890625 1.171875 0.265625 1.1318359375 0.265625 c 0
 1.1181640625 0.265625 1.1064453125 0.251953125 1.1015625 0.236328125 c 0
 1.09765625 0.2119140625 1.1201171875 0.2041015625 1.181640625 0.2041015625 c 0
 1.23828125 0.2041015625 1.248046875 0.1962890625 1.2421875 0.162109375 c 0
 1.236328125 0.1279296875 1.2177734375 0.1201171875 1.1484375 0.1201171875 c 0
 1.0859375 0.1201171875 1.078125 0.1142578125 1.0703125 0.076171875 c 0
 1.0615234375 0.0322265625 1.0498046875 0.015625 1.01953125 0.015625 c 0
 0.990234375 0.015625 0.984375 0.0322265625 0.9921875 0.076171875 c 0
 1 0.1142578125 0.994140625 0.1201171875 0.9423828125 0.1201171875 c 0
 0.8798828125 0.1201171875 0.8681640625 0.1279296875 0.8740234375 0.162109375 c 0
 0.8798828125 0.1943359375 0.8935546875 0.2041015625 0.9423828125 0.2041015625 c 0
 0.994140625 0.2041015625 1.01953125 0.2138671875 1.0244140625 0.236328125 c 0
 1.0283203125 0.25390625 1.013671875 0.265625 0.99609375 0.265625 c 0
 0.9736328125 0.265625 0.9482421875 0.2861328125 0.935546875 0.3115234375 c 0
 0.921875 0.341796875 0.919921875 0.3916015625 0.927734375 0.4384765625 c 0
 0.935546875 0.48046875 0.9541015625 0.51953125 0.9736328125 0.5380859375 c 0
 0.98046875 0.5439453125 0.986328125 0.5498046875 0.98828125 0.5595703125 c 0
 0.990234375 0.5703125 0.990234375 0.583984375 0.986328125 0.6015625 c 0
 0.9775390625 0.6416015625 0.9736328125 0.6796875 0.98046875 0.7138671875 c 0
 0.9921875 0.7744140625 1.0283203125 0.82421875 1.083984375 0.8681640625 c 0xefc0
1.236328125 0.75 m 0
 1.240234375 0.7880859375 1.23046875 0.7978515625 1.1962890625 0.8017578125 c 0
 1.1884765625 0.8017578125 1.181640625 0.8017578125 1.17578125 0.8017578125 c 0
 1.1181640625 0.8017578125 1.078125 0.7744140625 1.0703125 0.732421875 c 0
 1.06640625 0.7138671875 1.0703125 0.6943359375 1.078125 0.671875 c 0
 1.091796875 0.6376953125 1.1162109375 0.6201171875 1.1396484375 0.6201171875 c 0
 1.1796875 0.6201171875 1.2197265625 0.662109375 1.232421875 0.7275390625 c 0
 1.234375 0.734375 1.234375 0.7421875 1.236328125 0.75 c 0
1.17578125 0.4501953125 m 0
 1.181640625 0.49609375 1.173828125 0.505859375 1.1357421875 0.509765625 c 0
 1.1279296875 0.509765625 1.1220703125 0.509765625 1.1162109375 0.509765625 c 0
 1.0595703125 0.509765625 1.0244140625 0.484375 1.015625 0.4423828125 c 0
 1.01171875 0.421875 1.013671875 0.3984375 1.0263671875 0.3720703125 c 0
 1.0380859375 0.341796875 1.0537109375 0.328125 1.07421875 0.328125 c 0
 1.087890625 0.328125 1.1015625 0.3359375 1.1220703125 0.34765625 c 0
 1.15234375 0.3681640625 1.16796875 0.3896484375 1.173828125 0.42578125 c 0
 1.17578125 0.431640625 1.173828125 0.4423828125 1.17578125 0.4501953125 c 0
1.078125 1.1943359375 m 0
 1.1279296875 1.232421875 1.1884765625 1.248046875 1.25 1.248046875 c 0
 1.3857421875 1.248046875 1.513671875 1.1640625 1.4921875 1.0478515625 c 0
 1.484375 1.00390625 1.501953125 0.99609375 1.595703125 0.99609375 c 0
 1.67578125 0.99609375 1.6943359375 1.001953125 1.7080078125 1.0341796875 c 0
 1.7216796875 1.06640625 1.74609375 1.080078125 1.7919921875 1.080078125 c 0
 1.8056640625 1.080078125 1.814453125 1.080078125 1.8115234375 1.0703125 c 0
 1.8095703125 1.064453125 1.8056640625 1.0517578125 1.7939453125 1.0322265625 c 0
 1.7099609375 0.8779296875 1.677734375 0.837890625 1.6298828125 0.830078125 c 0
 1.6064453125 0.826171875 1.603515625 0.833984375 1.6220703125 0.8701171875 c 0
 1.6259765625 0.8779296875 1.6259765625 0.8837890625 1.6279296875 0.8896484375 c 0
 1.6318359375 0.91015625 1.6103515625 0.912109375 1.513671875 0.912109375 c 0
 1.3935546875 0.912109375 1.3876953125 0.9140625 1.3935546875 0.9482421875 c 0
 1.40234375 0.9921875 1.40234375 1.015625 1.3896484375 1.015625 c 0
 1.3798828125 1.015625 1.3681640625 1.0361328125 1.3681640625 1.0537109375 c 0
 1.3662109375 1.08203125 1.33984375 1.1162109375 1.3076171875 1.1357421875 c 0
 1.2861328125 1.150390625 1.26171875 1.15625 1.236328125 1.15625 c 0
 1.169921875 1.15625 1.09765625 1.1123046875 1.0595703125 1.0380859375 c 0
 1.0439453125 1.0078125 1.0302734375 0.9677734375 1.0263671875 0.9482421875 c 0
 1.01953125 0.91796875 1.00390625 0.912109375 0.8896484375 0.912109375 c 0
 0.7744140625 0.912109375 0.748046875 0.90625 0.7255859375 0.8759765625 c 0
 0.7060546875 0.845703125 0.673828125 0.830078125 0.6357421875 0.830078125 c 0
 0.6337890625 0.830078125 0.6318359375 0.830078125 0.6298828125 0.830078125 c 0
 0.6279296875 0.830078125 0.6259765625 0.830078125 0.6240234375 0.830078125 c 0
 0.6162109375 0.830078125 0.6142578125 0.83203125 0.6142578125 0.8359375 c 0
 0.6142578125 0.83984375 0.6201171875 0.84765625 0.6279296875 0.8642578125 c 0
 0.6298828125 0.8681640625 0.6337890625 0.8720703125 0.6357421875 0.8759765625 c 0
 0.7275390625 1.0419921875 0.7578125 1.080078125 0.7958984375 1.080078125 c 0
 0.8095703125 1.080078125 0.81640625 1.076171875 0.8115234375 1.0595703125 c 0
 0.8095703125 1.0537109375 0.8076171875 1.0439453125 0.8037109375 1.0341796875 c 0
 0.7998046875 1.0263671875 0.7978515625 1.01953125 0.7978515625 1.015625 c 0
 0.7958984375 1.001953125 0.8017578125 0.998046875 0.826171875 0.998046875 c 0xdfc0
 0.8359375 0.998046875 0.84765625 0.998046875 0.8662109375 1 c 0
 0.9404296875 1.005859375 0.9521484375 1.009765625 0.9658203125 1.0458984375 c 0
 0.990234375 1.099609375 1.0322265625 1.158203125 1.078125 1.1943359375 c 0
EndSplineSet
Validated: 33
EndChar

StartChar: T
Encoding: 84 84 37
Width: 1
Flags: HW
LayerCount: 2
Back
Fore
SplineSet
0.59375 1.099609375 m 1xb8
 0.59765625 1.1201171875 0.6015625 1.1416015625 0.6064453125 1.162109375 c 1
 0.7119140625 1.162109375 0.8203125 1.162109375 0.92578125 1.162109375 c 1
 1.1142578125 1.162109375 1.244140625 1.15234375 1.2421875 1.1396484375 c 0
 1.240234375 1.1337890625 1.1923828125 1.078125 1.1376953125 1.01953125 c 1
 1.103515625 0.984375 1.07421875 0.9482421875 1.0400390625 0.912109375 c 1
 1.1484375 0.912109375 1.25390625 0.912109375 1.3623046875 0.912109375 c 1
 1.671875 0.912109375 1.685546875 0.9140625 1.7255859375 0.9560546875 c 0
 1.751953125 0.982421875 1.7783203125 1.01171875 1.7802734375 1.017578125 c 0
 1.7822265625 1.0283203125 1.6923828125 1.0380859375 1.572265625 1.0380859375 c 1
 1.501953125 1.0380859375 1.427734375 1.0380859375 1.3583984375 1.0380859375 c 1
 1.3623046875 1.0576171875 1.3662109375 1.080078125 1.3701171875 1.099609375 c 1
 1.3740234375 1.1201171875 1.3779296875 1.1416015625 1.3818359375 1.162109375 c 1
 1.48828125 1.162109375 1.595703125 1.162109375 1.7021484375 1.162109375 c 1
 1.8896484375 1.162109375 2.01953125 1.15234375 2.017578125 1.1396484375 c 0
 2.015625 1.1337890625 1.9677734375 1.078125 1.9140625 1.01953125 c 1
 1.8798828125 0.984375 1.845703125 0.9482421875 1.8115234375 0.912109375 c 1
 1.853515625 0.912109375 1.900390625 0.912109375 1.9423828125 0.912109375 c 1
 2.06640625 0.912109375 2.0703125 0.912109375 2.0595703125 0.8603515625 c 0
 2.0537109375 0.830078125 2.0478515625 0.8076171875 2.0458984375 0.8076171875 c 0
 1.74609375 0.8076171875 1.7197265625 0.8037109375 1.671875 0.7578125 c 1
 1.654296875 0.740234375 1.6357421875 0.7236328125 1.6181640625 0.7060546875 c 1
 1.6416015625 0.6982421875 1.66796875 0.6923828125 1.6923828125 0.68359375 c 1
 1.7978515625 0.65234375 1.8740234375 0.578125 1.8984375 0.48828125 c 0
 1.908203125 0.4462890625 1.931640625 0.412109375 1.9482421875 0.412109375 c 0
 1.9619140625 0.412109375 1.9677734375 0.3896484375 1.9619140625 0.3603515625 c 0
 1.9560546875 0.330078125 1.9404296875 0.3076171875 1.92578125 0.3076171875 c 0
 1.91015625 0.3076171875 1.8876953125 0.2822265625 1.8740234375 0.24609375 c 0
 1.83984375 0.162109375 1.7197265625 0.0419921875 1.6220703125 -0.001953125 c 0
 1.5576171875 -0.0302734375 1.4658203125 -0.0439453125 1.3740234375 -0.0439453125 c 0xb8
 1.2919921875 -0.0439453125 1.2158203125 -0.0322265625 1.166015625 -0.0078125 c 0
 1.1298828125 0.009765625 1.1220703125 0.0302734375 1.1337890625 0.091796875 c 0
 1.1396484375 0.1181640625 1.146484375 0.1298828125 1.16015625 0.1298828125 c 0x78
 1.171875 0.1298828125 1.1884765625 0.1240234375 1.2119140625 0.1123046875 c 0
 1.2822265625 0.078125 1.345703125 0.0595703125 1.412109375 0.0595703125 c 0
 1.48046875 0.0595703125 1.5458984375 0.080078125 1.6083984375 0.1201171875 c 0
 1.669921875 0.16015625 1.744140625 0.234375 1.75 0.26171875 c 0
 1.755859375 0.2939453125 1.666015625 0.3076171875 1.4404296875 0.3076171875 c 1
 1.333984375 0.3076171875 1.23046875 0.3076171875 1.1240234375 0.3076171875 c 1
 1.1123046875 0.2822265625 1.09765625 0.25390625 1.0859375 0.2275390625 c 1
 1.0458984375 0.1416015625 0.923828125 0.0302734375 0.83203125 -0.0078125 c 0
 0.7783203125 -0.0322265625 0.6943359375 -0.0439453125 0.6103515625 -0.0439453125 c 0xb8
 0.5224609375 -0.0439453125 0.4384765625 -0.0302734375 0.3876953125 -0.005859375 c 0
 0.353515625 0.01171875 0.34765625 0.0302734375 0.3603515625 0.08984375 c 0
 0.3662109375 0.1181640625 0.3720703125 0.1298828125 0.3876953125 0.1298828125 c 0x78
 0.400390625 0.1298828125 0.41796875 0.1240234375 0.4423828125 0.1123046875 c 0
 0.505859375 0.080078125 0.564453125 0.0615234375 0.6240234375 0.0615234375 c 0
 0.736328125 0.0615234375 0.841796875 0.1220703125 0.9716796875 0.25 c 0
 0.986328125 0.263671875 0.99609375 0.2763671875 0.998046875 0.2841796875 c 0
 1.001953125 0.3076171875 0.931640625 0.3076171875 0.671875 0.3076171875 c 1
 0.5703125 0.3076171875 0.4658203125 0.3076171875 0.3642578125 0.3076171875 c 1
 0.3681640625 0.326171875 0.3701171875 0.341796875 0.3740234375 0.3603515625 c 1
 0.3779296875 0.3779296875 0.3798828125 0.3935546875 0.3837890625 0.412109375 c 1
 0.484375 0.412109375 0.583984375 0.412109375 0.68359375 0.412109375 c 1
 0.8916015625 0.412109375 0.98828125 0.421875 0.9921875 0.4443359375 c 0
 0.99609375 0.4658203125 0.9296875 0.5400390625 0.8876953125 0.5576171875 c 0
 0.8583984375 0.5703125 0.7998046875 0.580078125 0.73828125 0.580078125 c 0
 0.67578125 0.580078125 0.650390625 0.58984375 0.65625 0.6162109375 c 0
 0.66015625 0.6357421875 0.68359375 0.666015625 0.7236328125 0.7119140625 c 0
 0.759765625 0.75 0.7861328125 0.7861328125 0.7880859375 0.7919921875 c 0
 0.7900390625 0.8037109375 0.6923828125 0.8076171875 0.4599609375 0.8076171875 c 0
 0.4599609375 0.8076171875 0.4716796875 0.8564453125 0.4716796875 0.8603515625 c 1
 0.4755859375 0.8779296875 0.4775390625 0.8935546875 0.482421875 0.912109375 c 1
 0.5517578125 0.912109375 0.6259765625 0.912109375 0.6962890625 0.912109375 c 1
 0.8935546875 0.912109375 0.912109375 0.916015625 0.9560546875 0.9599609375 c 0
 0.9775390625 0.982421875 1.001953125 1.01171875 1.00390625 1.017578125 c 0
 1.005859375 1.0283203125 0.916015625 1.0380859375 0.7958984375 1.0380859375 c 1
 0.7255859375 1.0380859375 0.65234375 1.0380859375 0.58203125 1.0380859375 c 1
 0.5859375 1.0576171875 0.58984375 1.080078125 0.59375 1.099609375 c 1xb8
1.5595703125 0.7900390625 m 0
 1.5615234375 0.8017578125 1.3916015625 0.8076171875 0.9580078125 0.8076171875 c 0
 0.9541015625 0.8076171875 0.927734375 0.7880859375 0.8984375 0.7578125 c 1
 0.8798828125 0.740234375 0.8603515625 0.7236328125 0.841796875 0.7060546875 c 1
 0.8662109375 0.6982421875 0.8916015625 0.6923828125 0.916015625 0.68359375 c 1
 1.017578125 0.654296875 1.095703125 0.58203125 1.1220703125 0.4921875 c 1
 1.1298828125 0.4658203125 1.1337890625 0.4384765625 1.1416015625 0.412109375 c 1
 1.244140625 0.412109375 1.349609375 0.412109375 1.4521484375 0.412109375 c 1
 1.654296875 0.412109375 1.76171875 0.423828125 1.765625 0.4462890625 c 0
 1.76953125 0.4677734375 1.7041015625 0.5400390625 1.6640625 0.5576171875 c 0
 1.6337890625 0.5703125 1.576171875 0.580078125 1.51171875 0.580078125 c 0
 1.4501953125 0.580078125 1.423828125 0.58984375 1.4296875 0.6162109375 c 0
 1.43359375 0.6357421875 1.4560546875 0.666015625 1.49609375 0.7119140625 c 0
 1.5302734375 0.75 1.5595703125 0.7861328125 1.5595703125 0.7900390625 c 0
EndSplineSet
Validated: 33
EndChar

StartChar: U
Encoding: 85 85 38
Width: 1
Flags: HW
LayerCount: 2
Back
Fore
SplineSet
0.9775390625 1.2783203125 m 0
 1.0419921875 1.2939453125 1.099609375 1.2998046875 1.158203125 1.2998046875 c 0
 1.3935546875 1.2998046875 1.56640625 1.16796875 1.6376953125 0.919921875 c 0
 1.66015625 0.841796875 1.658203125 0.8037109375 1.6142578125 0.576171875 c 0
 1.5703125 0.349609375 1.5576171875 0.3076171875 1.509765625 0.234375 c 0
 1.3359375 -0.0322265625 1.076171875 -0.177734375 0.84375 -0.177734375 c 0
 0.6884765625 -0.177734375 0.5419921875 -0.1142578125 0.4423828125 0.0224609375 c 0
 0.345703125 0.15234375 0.326171875 0.3076171875 0.3720703125 0.5439453125 c 0
 0.419921875 0.7880859375 0.50390625 0.9521484375 0.66796875 1.1064453125 c 0
 0.767578125 1.2021484375 0.853515625 1.248046875 0.9775390625 1.2783203125 c 0
1.3076171875 1.1064453125 m 0
 1.259765625 1.1337890625 1.1962890625 1.1484375 1.1279296875 1.1484375 c 0
 1.0263671875 1.1484375 0.912109375 1.1181640625 0.83203125 1.0615234375 c 0
 0.736328125 0.994140625 0.6220703125 0.837890625 0.572265625 0.7021484375 c 1
 0.5615234375 0.67578125 0.5517578125 0.650390625 0.5419921875 0.6240234375 c 1
 0.6982421875 0.6240234375 0.8515625 0.6240234375 1.0078125 0.6240234375 c 1
 1.0458984375 0.6240234375 1.080078125 0.6240234375 1.1123046875 0.6240234375 c 0
 1.1396484375 0.6240234375 1.166015625 0.6240234375 1.1904296875 0.6240234375 c 0
 1.427734375 0.6240234375 1.482421875 0.6259765625 1.490234375 0.66796875 c 0
 1.4921875 0.6796875 1.490234375 0.6962890625 1.48828125 0.7158203125 c 0
 1.48828125 0.7236328125 1.486328125 0.732421875 1.486328125 0.7421875 c 0
 1.4697265625 0.912109375 1.40234375 1.0478515625 1.3076171875 1.1064453125 c 0
1.423828125 0.400390625 m 1
 1.43359375 0.42578125 1.4443359375 0.4521484375 1.4541015625 0.4775390625 c 1
 1.2978515625 0.4775390625 1.1396484375 0.4775390625 0.984375 0.4775390625 c 1
 0.828125 0.4775390625 0.669921875 0.4775390625 0.513671875 0.4775390625 c 1
 0.513671875 0.4521484375 0.513671875 0.42578125 0.513671875 0.400390625 c 1
 0.517578125 0.1376953125 0.662109375 -0.0263671875 0.8779296875 -0.0263671875 c 0
 0.91015625 -0.0263671875 0.9384765625 -0.0244140625 0.9736328125 -0.015625 c 0
 1.0478515625 0 1.1396484375 0.0361328125 1.1884765625 0.068359375 c 0
 1.26953125 0.1240234375 1.3740234375 0.2724609375 1.423828125 0.400390625 c 1
EndSplineSet
Validated: 33
EndChar

StartChar: V
Encoding: 86 86 39
Width: 1
Flags: HW
LayerCount: 2
Back
Fore
SplineSet
1.064453125 1.0322265625 m 0
 1.1162109375 1.0439453125 1.1640625 1.0517578125 1.2099609375 1.0517578125 c 0
 1.341796875 1.0517578125 1.4482421875 0.998046875 1.5263671875 0.8916015625 c 0
 1.6064453125 0.7822265625 1.6181640625 0.669921875 1.57421875 0.4404296875 c 0
 1.5537109375 0.33203125 1.5361328125 0.2880859375 1.48828125 0.2138671875 c 0
 1.3837890625 0.0517578125 1.2744140625 -0.0380859375 1.1240234375 -0.083984375 c 0
 1.068359375 -0.099609375 1.013671875 -0.1103515625 0.9638671875 -0.1103515625 c 0
 0.759765625 -0.1103515625 0.6103515625 0.0263671875 0.572265625 0.263671875 c 0
 0.564453125 0.314453125 0.564453125 0.3515625 0.576171875 0.41015625 c 0
 0.580078125 0.431640625 0.5859375 0.4541015625 0.59375 0.484375 c 0
 0.6435546875 0.681640625 0.6943359375 0.7763671875 0.8076171875 0.8857421875 c 0
 0.896484375 0.9697265625 0.9619140625 1.0078125 1.064453125 1.0322265625 c 0
1.005859375 0.400390625 m 0
 1.087890625 0.818359375 1.1015625 0.919921875 1.08203125 0.919921875 c 0
 1.0703125 0.919921875 1.017578125 0.8935546875 0.9736328125 0.8681640625 c 0
 0.82421875 0.7783203125 0.759765625 0.66015625 0.7060546875 0.3818359375 c 0
 0.6904296875 0.2998046875 0.6923828125 0.2822265625 0.7119140625 0.232421875 c 0
 0.759765625 0.1162109375 0.841796875 0.0283203125 0.900390625 0.0283203125 c 0
 0.9296875 0.0283203125 0.9404296875 0.0595703125 1.005859375 0.400390625 c 0
1.3056640625 0.91015625 m 0
 1.3017578125 0.912109375 1.2978515625 0.916015625 1.2939453125 0.91796875 c 0
 1.2802734375 0.92578125 1.2744140625 0.931640625 1.263671875 0.931640625 c 0
 1.23828125 0.931640625 1.2236328125 0.8701171875 1.173828125 0.6103515625 c 0
 1.169921875 0.58984375 1.166015625 0.5703125 1.162109375 0.5478515625 c 0
 1.158203125 0.5244140625 1.15234375 0.5 1.146484375 0.4716796875 c 1
 1.1162109375 0.322265625 1.08984375 0.173828125 1.0595703125 0.0244140625 c 1
 1.080078125 0.0283203125 1.09765625 0.0302734375 1.1181640625 0.0341796875 c 1
 1.2099609375 0.0517578125 1.2958984375 0.1220703125 1.3798828125 0.251953125 c 0
 1.4140625 0.3017578125 1.42578125 0.330078125 1.435546875 0.3857421875 c 0
 1.4384765625 0.400390625 1.4404296875 0.416015625 1.4443359375 0.43359375 c 0
 1.486328125 0.7060546875 1.4521484375 0.822265625 1.3056640625 0.91015625 c 0
EndSplineSet
Validated: 33
EndChar

StartChar: W
Encoding: 87 87 40
Width: 1
Flags: HW
LayerCount: 2
Back
Fore
SplineSet
1.8359375 -0.0302734375 m 2xfd
 1.9384765625 0.087890625 1.994140625 0.1484375 1.998046875 0.1484375 c 0
 2.001953125 0.1484375 1.990234375 0.078125 1.9697265625 -0.0302734375 c 1
 1.9580078125 -0.08984375 1.9462890625 -0.1484375 1.93359375 -0.2080078125 c 1
 1.8916015625 -0.2080078125 1.849609375 -0.2080078125 1.8076171875 -0.2080078125 c 1
 1.765625 -0.2080078125 1.7236328125 -0.2080078125 1.681640625 -0.2080078125 c 1
 1.734375 -0.1484375 1.7841796875 -0.08984375 1.8359375 -0.0302734375 c 2xfd
2.091796875 1.3896484375 m 0
 2.087890625 1.400390625 2.0859375 1.408203125 2.087890625 1.4140625 c 0
 2.091796875 1.4296875 2.1142578125 1.435546875 2.1640625 1.435546875 c 1
 2.1943359375 1.435546875 2.2236328125 1.435546875 2.25390625 1.435546875 c 1
 2.244140625 1.3876953125 2.236328125 1.341796875 2.2255859375 1.2939453125 c 1
 2.2177734375 1.248046875 2.2080078125 1.2001953125 2.2001953125 1.154296875 c 1
 2.181640625 1.1904296875 2.16796875 1.2236328125 2.150390625 1.259765625 c 1
 2.1318359375 1.2958984375 2.1103515625 1.345703125 2.091796875 1.3896484375 c 0
1.3095703125 1.40234375 m 0
 1.3798828125 1.41796875 1.4462890625 1.42578125 1.509765625 1.42578125 c 0
 1.8095703125 1.42578125 2.0322265625 1.248046875 2.06640625 0.9619140625 c 0
 2.078125 0.8681640625 2.0703125 0.75390625 2.0478515625 0.6357421875 c 0xfe
 2.01171875 0.4521484375 1.9404296875 0.259765625 1.849609375 0.1259765625 c 0
 1.6982421875 -0.09765625 1.4482421875 -0.232421875 1.1884765625 -0.232421875 c 0
 1.1640625 -0.232421875 1.1396484375 -0.23046875 1.1142578125 -0.2275390625 c 0
 0.7275390625 -0.1904296875 0.5556640625 0.1259765625 0.6484375 0.603515625 c 0
 0.654296875 0.6376953125 0.662109375 0.671875 0.669921875 0.7080078125 c 0
 0.7255859375 0.91796875 0.7998046875 1.0439453125 0.9580078125 1.1962890625 c 0
 1.08203125 1.314453125 1.173828125 1.3681640625 1.3095703125 1.40234375 c 0
1.2119140625 0.40234375 m 0
 1.3564453125 1.1376953125 1.3681640625 1.244140625 1.318359375 1.244140625 c 0
 1.24609375 1.244140625 1.0283203125 1.0556640625 0.9384765625 0.916015625 c 0
 0.8818359375 0.828125 0.83984375 0.7158203125 0.818359375 0.6015625 c 0
 0.7880859375 0.4482421875 0.7919921875 0.2900390625 0.83984375 0.181640625 c 0
 0.8896484375 0.06640625 1.0078125 -0.0439453125 1.080078125 -0.0439453125 c 0
 1.1201171875 -0.0439453125 1.1298828125 -0.015625 1.2119140625 0.40234375 c 0
1.6142578125 1.255859375 m 0
 1.603515625 1.26171875 1.595703125 1.267578125 1.587890625 1.267578125 c 0
 1.5595703125 1.267578125 1.5458984375 1.2060546875 1.498046875 0.9560546875 c 1
 1.48046875 0.8603515625 1.4599609375 0.763671875 1.4423828125 0.66796875 c 1
 1.515625 0.66796875 1.58984375 0.66796875 1.6640625 0.66796875 c 1
 1.736328125 0.66796875 1.8115234375 0.66796875 1.8837890625 0.66796875 c 1
 1.8857421875 0.7080078125 1.8876953125 0.74609375 1.8896484375 0.7861328125 c 1
 1.8984375 0.98046875 1.8037109375 1.1396484375 1.6142578125 1.255859375 c 0
1.837890625 0.4697265625 m 0
 1.84375 0.50390625 1.833984375 0.50390625 1.6279296875 0.50390625 c 1
 1.5556640625 0.50390625 1.482421875 0.50390625 1.41015625 0.50390625 c 1
 1.3916015625 0.412109375 1.3740234375 0.3203125 1.3564453125 0.2275390625 c 1
 1.337890625 0.1357421875 1.3203125 0.0419921875 1.3017578125 -0.0498046875 c 1
 1.330078125 -0.0439453125 1.3583984375 -0.0380859375 1.3857421875 -0.0322265625 c 1
 1.4296875 -0.0224609375 1.5078125 0.009765625 1.5458984375 0.0361328125 c 0
 1.654296875 0.1083984375 1.814453125 0.34375 1.837890625 0.4697265625 c 0
EndSplineSet
Validated: 33
EndChar

StartChar: X
Encoding: 88 88 41
Width: 1
Flags: HW
LayerCount: 2
Back
Fore
SplineSet
1.08203125 1.5498046875 m 0
 1.1279296875 1.5615234375 1.181640625 1.568359375 1.240234375 1.568359375 c 0
 1.345703125 1.568359375 1.4580078125 1.5478515625 1.513671875 1.513671875 c 0
 1.59375 1.4638671875 1.67578125 1.3115234375 1.68359375 1.1923828125 c 0
 1.6884765625 1.1416015625 1.6796875 1.076171875 1.666015625 1.005859375 c 0
 1.6435546875 0.8876953125 1.599609375 0.76171875 1.5498046875 0.677734375 c 0
 1.4921875 0.58203125 1.3935546875 0.484375 1.3095703125 0.4404296875 c 0
 1.23828125 0.40234375 1.1376953125 0.3837890625 1.0419921875 0.3837890625 c 0
 0.93359375 0.3837890625 0.828125 0.408203125 0.759765625 0.4521484375 c 0
 0.6298828125 0.5380859375 0.578125 0.7275390625 0.6220703125 0.9521484375 c 0
 0.6318359375 1 0.6435546875 1.0517578125 0.6640625 1.1015625 c 0
 0.751953125 1.33984375 0.904296875 1.50390625 1.08203125 1.5498046875 c 0
1.1298828125 1.23828125 m 2
 1.1396484375 1.2822265625 1.146484375 1.31640625 1.15234375 1.34375 c 0
 1.16796875 1.4296875 1.1640625 1.4423828125 1.1376953125 1.4423828125 c 0
 1.0263671875 1.4423828125 0.818359375 1.2236328125 0.7900390625 1.076171875 c 1
 0.7861328125 1.0576171875 0.7841796875 1.0419921875 0.7802734375 1.0244140625 c 1
 0.830078125 1.0263671875 0.8818359375 1.0283203125 0.931640625 1.0302734375 c 1
 0.982421875 1.0322265625 1.0341796875 1.0341796875 1.083984375 1.0361328125 c 1
 1.099609375 1.103515625 1.1142578125 1.169921875 1.1298828125 1.23828125 c 2
1.353515625 1.431640625 m 0
 1.349609375 1.43359375 1.345703125 1.43359375 1.341796875 1.435546875 c 0
 1.333984375 1.4384765625 1.328125 1.4423828125 1.322265625 1.4423828125 c 0
 1.2861328125 1.4423828125 1.267578125 1.3603515625 1.162109375 0.814453125 c 0
 1.154296875 0.7744140625 1.146484375 0.732421875 1.1376953125 0.685546875 c 0
 1.1279296875 0.6337890625 1.1181640625 0.578125 1.1064453125 0.51953125 c 0
 1.103515625 0.513671875 1.1162109375 0.509765625 1.1318359375 0.509765625 c 0
 1.1982421875 0.509765625 1.3017578125 0.5595703125 1.3701171875 0.6240234375 c 0
 1.4482421875 0.6962890625 1.498046875 0.8076171875 1.5283203125 0.9638671875 c 0
 1.578125 1.2255859375 1.5224609375 1.3798828125 1.353515625 1.431640625 c 0
1.0302734375 0.7080078125 m 1
 1.0419921875 0.7744140625 1.0556640625 0.83984375 1.068359375 0.90625 c 1
 1.015625 0.90625 0.9638671875 0.90625 0.912109375 0.90625 c 1
 0.755859375 0.90625 0.755859375 0.90625 0.751953125 0.8876953125 c 0
 0.7197265625 0.7197265625 0.841796875 0.509765625 0.9716796875 0.509765625 c 0
 0.990234375 0.509765625 0.994140625 0.5224609375 1.0302734375 0.7080078125 c 1
EndSplineSet
Validated: 33
EndChar

StartChar: Y
Encoding: 89 89 42
Width: 1
Flags: HW
LayerCount: 2
Back
Fore
SplineSet
0.767578125 1.16015625 m 0xe8
 0.7939453125 1.2138671875 0.8017578125 1.2177734375 0.8681640625 1.2177734375 c 0
 0.912109375 1.2177734375 0.9296875 1.2138671875 0.92578125 1.1982421875 c 0
 0.923828125 1.1923828125 0.921875 1.18359375 0.916015625 1.173828125 c 0
 0.8935546875 1.1337890625 0.8759765625 1.083984375 0.8662109375 1.0341796875 c 0
 0.853515625 0.9677734375 0.853515625 0.904296875 0.8701171875 0.8623046875 c 0
 0.8984375 0.7919921875 0.9755859375 0.751953125 1.06640625 0.751953125 c 0
 1.1240234375 0.751953125 1.185546875 0.767578125 1.23828125 0.7998046875 c 0
 1.3095703125 0.84375 1.353515625 0.912109375 1.3720703125 1.001953125 c 0
 1.3798828125 1.0439453125 1.3798828125 1.091796875 1.3779296875 1.1435546875 c 0
 1.3779296875 1.16796875 1.3759765625 1.181640625 1.3779296875 1.1943359375 c 0
 1.3818359375 1.2138671875 1.3935546875 1.2177734375 1.419921875 1.2177734375 c 0
 1.501953125 1.2177734375 1.5244140625 1.1943359375 1.5224609375 1.1064453125 c 0
 1.5224609375 1.076171875 1.51953125 1.0439453125 1.513671875 1.015625 c 0xec
 1.4921875 0.900390625 1.42578125 0.8037109375 1.314453125 0.7138671875 c 0
 1.2802734375 0.685546875 1.2783203125 0.6796875 1.2998046875 0.671875 c 0
 1.3857421875 0.6396484375 1.4599609375 0.48046875 1.4521484375 0.33984375 c 0
 1.4501953125 0.322265625 1.4501953125 0.3056640625 1.4462890625 0.2900390625 c 0
 1.3984375 0.0439453125 1.1181640625 -0.1416015625 0.8720703125 -0.1416015625 c 0
 0.7763671875 -0.1416015625 0.6884765625 -0.1123046875 0.6181640625 -0.0458984375 c 0
 0.5263671875 0.0439453125 0.494140625 0.181640625 0.51953125 0.31640625 c 0xf2
 0.5458984375 0.4482421875 0.6259765625 0.576171875 0.748046875 0.6435546875 c 1
 0.76953125 0.65625 0.7919921875 0.66796875 0.814453125 0.6796875 c 1
 0.7978515625 0.7021484375 0.7802734375 0.7216796875 0.763671875 0.744140625 c 1
 0.7080078125 0.814453125 0.6884765625 0.8896484375 0.7080078125 0.98828125 c 0
 0.7177734375 1.0380859375 0.73828125 1.095703125 0.767578125 1.16015625 c 0xe8
1.2421875 0.5302734375 m 0
 1.1943359375 0.576171875 1.099609375 0.6015625 1.009765625 0.6015625 c 0
 0.9619140625 0.6015625 0.912109375 0.59375 0.8759765625 0.578125 c 0
 0.7998046875 0.5439453125 0.7060546875 0.4462890625 0.671875 0.3642578125 c 0
 0.6640625 0.345703125 0.66015625 0.330078125 0.65625 0.3115234375 c 0
 0.6298828125 0.173828125 0.7236328125 0.0361328125 0.8662109375 0.013671875 c 0
 0.8798828125 0.01171875 0.8935546875 0.009765625 0.908203125 0.009765625 c 0
 1.0244140625 0.009765625 1.16015625 0.072265625 1.232421875 0.162109375 c 0
 1.265625 0.2041015625 1.2880859375 0.255859375 1.2978515625 0.3056640625 c 0xf2
 1.31640625 0.3935546875 1.2958984375 0.48046875 1.2421875 0.5302734375 c 0
EndSplineSet
Validated: 33
EndChar

StartChar: Z
Encoding: 90 90 43
Width: 1
Flags: HW
LayerCount: 2
Back
Fore
SplineSet
0.8076171875 0.8037109375 m 0
 0.9541015625 0.9541015625 1.009765625 1.005859375 1.0361328125 1.005859375 c 0
 1.0400390625 1.005859375 1.0439453125 1.00390625 1.0478515625 1.001953125 c 0
 1.0595703125 0.990234375 1.1181640625 0.8984375 1.17578125 0.7998046875 c 1
 1.2099609375 0.740234375 1.248046875 0.681640625 1.2822265625 0.6220703125 c 1
 1.3642578125 0.6220703125 1.4462890625 0.6220703125 1.5283203125 0.6220703125 c 1
 1.75390625 0.6220703125 1.7724609375 0.6181640625 1.763671875 0.578125 c 0
 1.755859375 0.5380859375 1.7421875 0.5361328125 1.509765625 0.5361328125 c 1
 1.427734375 0.5361328125 1.34765625 0.5361328125 1.265625 0.5361328125 c 1
 1.2080078125 0.4755859375 1.1484375 0.41796875 1.08984375 0.3583984375 c 1
 1.00390625 0.26953125 0.90234375 0.169921875 0.8837890625 0.15625 c 0
 0.8798828125 0.15234375 0.8759765625 0.150390625 0.8701171875 0.150390625 c 0
 0.84375 0.150390625 0.8076171875 0.2001953125 0.7216796875 0.345703125 c 0
 0.65234375 0.4658203125 0.59375 0.572265625 0.595703125 0.580078125 c 0
 0.59765625 0.5859375 0.6884765625 0.681640625 0.8076171875 0.8037109375 c 0
1.095703125 0.7177734375 m 2
 1.0537109375 0.7939453125 1.0078125 0.853515625 0.99609375 0.853515625 c 0
 0.984375 0.853515625 0.92578125 0.7978515625 0.84375 0.7158203125 c 1
 0.7998046875 0.669921875 0.7578125 0.6240234375 0.7138671875 0.578125 c 1
 0.740234375 0.5322265625 0.765625 0.48828125 0.7919921875 0.4423828125 c 1
 0.837890625 0.3642578125 0.8798828125 0.3037109375 0.8916015625 0.3037109375 c 0
 0.904296875 0.3037109375 0.9755859375 0.3701171875 1.0439453125 0.4404296875 c 1
 1.087890625 0.486328125 1.1298828125 0.5322265625 1.173828125 0.578125 c 1
 1.1484375 0.6240234375 1.1220703125 0.671875 1.095703125 0.7177734375 c 2
EndSplineSet
Validated: 33
EndChar

StartChar: a
Encoding: 97 97 44
Width: 2
Flags: HW
HStem: -0.094 0.132<0.709514 0.99119>
VStem: 0.436 0.144<0.171925 0.450016>
LayerCount: 2
Back
Fore
SplineSet
1.2255859375 0.9755859375 m 0
 1.59375 1.173828125 1.8623046875 1.31640625 1.8837890625 1.318359375 c 0
 1.8916015625 1.318359375 1.90625 1.3095703125 1.90625 1.3037109375 c 0
 1.90625 1.265625 1.2001953125 0.08984375 1.1318359375 0.01171875 c 0
 1.0859375 -0.0400390625 0.93359375 -0.09375 0.830078125 -0.09375 c 0
 0.6083984375 -0.09375 0.435546875 0.1240234375 0.435546875 0.326171875 c 0
 0.435546875 0.396484375 0.4560546875 0.4658203125 0.501953125 0.5224609375 c 0
 0.57421875 0.6103515625 0.736328125 0.7099609375 1.2255859375 0.9755859375 c 0
1.416015625 0.7041015625 m 0
 1.5400390625 0.90234375 1.6181640625 1.0341796875 1.6181640625 1.0478515625 c 0
 1.6181640625 1.0478515625 1.6181640625 1.0498046875 1.6162109375 1.0498046875 c 0
 1.5859375 1.0498046875 1.015625 0.7255859375 1.015625 0.7060546875 c 0
 1.015625 0.6982421875 1.0439453125 0.671875 1.07421875 0.65625 c 0
 1.1220703125 0.6279296875 1.17578125 0.57421875 1.2119140625 0.51171875 c 0
 1.232421875 0.48046875 1.251953125 0.4521484375 1.2578125 0.4521484375 c 0
 1.259765625 0.4521484375 1.259765625 0.4560546875 1.330078125 0.568359375 c 0
 1.3564453125 0.6103515625 1.3876953125 0.658203125 1.416015625 0.7041015625 c 0
1.0498046875 0.5078125 m 0
 0.984375 0.57421875 0.9560546875 0.587890625 0.896484375 0.587890625 c 0
 0.7060546875 0.587890625 0.580078125 0.4521484375 0.580078125 0.3076171875 c 0
 0.580078125 0.244140625 0.603515625 0.177734375 0.66015625 0.1220703125 c 0
 0.7177734375 0.064453125 0.7841796875 0.0380859375 0.849609375 0.0380859375 c 0
 0.994140625 0.0380859375 1.1298828125 0.1640625 1.1298828125 0.353515625 c 0
 1.1298828125 0.4140625 1.1162109375 0.4423828125 1.0498046875 0.5078125 c 0
EndSplineSet
Validated: 1
EndChar

StartChar: b
Encoding: 98 98 45
Width: 2
Flags: HW
HStem: 0.228 0.094<1.58363 1.75882> 0.23 0.108<0.97417 1.37014> 0.238 0.068<0.634866 0.767596> 0.468 0.074<0.638524 0.703506 1.67828 1.74224> 1.068 0.114<1.09843 1.24578> 1.336 0.07<1.101 1.24803>
VStem: 0.542 0.076<0.321568 0.443632> 0.704 0.098<0.542742 0.848062> 1.016 0.07<1.19867 1.31979> 1.262 0.08<1.20106 1.32395> 1.546 0.124<0.542624 0.871032> 1.764 0.072<0.333834 0.44984>
LayerCount: 2
Back
Fore
SplineSet
1.0498046875 1.3564453125 m 0x3ff0
 1.083984375 1.3896484375 1.1279296875 1.40625 1.171875 1.40625 c 0
 1.2216796875 1.40625 1.2724609375 1.3857421875 1.3095703125 1.34375 c 0
 1.33203125 1.3203125 1.341796875 1.2978515625 1.341796875 1.2744140625 c 0
 1.341796875 1.255859375 1.337890625 1.236328125 1.326171875 1.2138671875 c 0
 1.318359375 1.1982421875 1.3115234375 1.1884765625 1.3115234375 1.177734375 c 0
 1.3115234375 1.158203125 1.330078125 1.146484375 1.3720703125 1.1259765625 c 0
 1.5859375 1.0283203125 1.669921875 0.896484375 1.669921875 0.666015625 c 0
 1.669921875 0.58203125 1.681640625 0.5419921875 1.7060546875 0.5419921875 c 0
 1.75 0.5419921875 1.8359375 0.43359375 1.8359375 0.3818359375 c 0
 1.8359375 0.3564453125 1.81640625 0.3095703125 1.7939453125 0.2841796875 c 0
 1.763671875 0.24609375 1.7099609375 0.2275390625 1.658203125 0.2275390625 c 0x9ff0
 1.6083984375 0.2275390625 1.5556640625 0.24609375 1.5283203125 0.2802734375 c 1
 1.513671875 0.2958984375 1.501953125 0.314453125 1.48828125 0.330078125 c 1
 1.4580078125 0.3115234375 1.4296875 0.2958984375 1.400390625 0.2783203125 c 1
 1.345703125 0.24609375 1.2783203125 0.23046875 1.2021484375 0.23046875 c 0x5ff0
 1.09765625 0.23046875 0.984375 0.259765625 0.8720703125 0.318359375 c 0
 0.8564453125 0.326171875 0.853515625 0.326171875 0.841796875 0.3115234375 c 0
 0.7998046875 0.26171875 0.7421875 0.23828125 0.6884765625 0.23828125 c 0
 0.6103515625 0.23828125 0.5419921875 0.2880859375 0.5419921875 0.3740234375 c 0
 0.5419921875 0.4541015625 0.6123046875 0.5419921875 0.67578125 0.5419921875 c 0
 0.6962890625 0.5419921875 0.7041015625 0.5498046875 0.7041015625 0.572265625 c 0
 0.7041015625 0.580078125 0.7021484375 0.591796875 0.7001953125 0.603515625 c 0
 0.6962890625 0.6279296875 0.6943359375 0.650390625 0.6943359375 0.673828125 c 0
 0.6943359375 0.8623046875 0.8095703125 1.0458984375 0.990234375 1.1318359375 c 0
 1.015625 1.1435546875 1.0263671875 1.154296875 1.0263671875 1.177734375 c 0
 1.0263671875 1.1884765625 1.0244140625 1.2001953125 1.0224609375 1.2158203125 c 0
 1.017578125 1.240234375 1.015625 1.2578125 1.015625 1.2744140625 c 0
 1.015625 1.3095703125 1.0283203125 1.333984375 1.0498046875 1.3564453125 c 0x3ff0
1.248046875 1.3017578125 m 0
 1.2275390625 1.326171875 1.2041015625 1.3359375 1.177734375 1.3359375 c 0
 1.1318359375 1.3359375 1.0859375 1.3037109375 1.0859375 1.26171875 c 0
 1.0859375 1.25 1.08984375 1.23828125 1.09765625 1.2236328125 c 0
 1.1162109375 1.1962890625 1.1435546875 1.181640625 1.169921875 1.181640625 c 0
 1.2021484375 1.181640625 1.236328125 1.2021484375 1.25390625 1.23828125 c 0
 1.259765625 1.25 1.26171875 1.2578125 1.26171875 1.267578125 c 0
 1.26171875 1.2802734375 1.2578125 1.2900390625 1.248046875 1.3017578125 c 0
1.3759765625 1.009765625 m 0
 1.3115234375 1.0498046875 1.232421875 1.068359375 1.15625 1.068359375 c 0
 1.078125 1.068359375 1.001953125 1.0478515625 0.9521484375 1.005859375 c 0
 0.8798828125 0.9462890625 0.8017578125 0.7841796875 0.8017578125 0.6923828125 c 0
 0.8017578125 0.6015625 0.8837890625 0.4423828125 0.9580078125 0.3896484375 c 0
 1.0078125 0.3564453125 1.0859375 0.337890625 1.16796875 0.337890625 c 0x5ff0
 1.240234375 0.337890625 1.314453125 0.3515625 1.3701171875 0.3798828125 c 0
 1.48828125 0.4404296875 1.5458984375 0.56640625 1.5458984375 0.6923828125 c 0
 1.5458984375 0.81640625 1.490234375 0.9423828125 1.3759765625 1.009765625 c 0
0.7763671875 0.427734375 m 0
 0.76171875 0.4541015625 0.734375 0.4677734375 0.7060546875 0.4677734375 c 0
 0.681640625 0.4677734375 0.65625 0.4580078125 0.6376953125 0.435546875 c 0
 0.6259765625 0.419921875 0.6181640625 0.404296875 0.6181640625 0.3857421875 c 0
 0.6181640625 0.349609375 0.6435546875 0.31640625 0.685546875 0.3076171875 c 0
 0.6923828125 0.3076171875 0.6962890625 0.3056640625 0.7021484375 0.3056640625 c 0x3ff0
 0.748046875 0.3056640625 0.7841796875 0.345703125 0.7841796875 0.3896484375 c 0
 0.7841796875 0.40234375 0.7822265625 0.416015625 0.7763671875 0.427734375 c 0
1.7421875 0.43359375 m 0
 1.7236328125 0.4560546875 1.7041015625 0.4677734375 1.6796875 0.4677734375 c 0
 1.650390625 0.4677734375 1.6162109375 0.4482421875 1.5859375 0.412109375 c 0
 1.568359375 0.3896484375 1.56640625 0.3818359375 1.583984375 0.3642578125 c 0
 1.6123046875 0.333984375 1.646484375 0.322265625 1.677734375 0.322265625 c 0x9ff0
 1.7236328125 0.322265625 1.763671875 0.345703125 1.763671875 0.3837890625 c 0
 1.763671875 0.400390625 1.755859375 0.416015625 1.7421875 0.43359375 c 0
EndSplineSet
Validated: 1
EndChar

StartChar: c
Encoding: 99 99 46
Width: 2
Flags: HW
HStem: -0.048 0.132<0.725434 1.04283> 0.722 0.122<0.729342 1.03983> 0.964 0.102<1.74222 1.90668> 1.12 0.04G<1.17367 1.19733> 1.272 0.096<1.73145 1.90884>
VStem: 0.432 0.13<0.246278 0.553016> 1.198 0.13<0.237976 0.558972> 1.506 0.102<0.743674 0.858888> 1.624 0.094<1.08928 1.26374> 1.924 0.1<1.08214 1.24277>
LayerCount: 2
Back
Fore
SplineSet
1.2216796875 1.09765625 m 1
 1.2021484375 1.1181640625 1.18359375 1.1396484375 1.1640625 1.16015625 c 1
 1.23046875 1.154296875 1.2978515625 1.1484375 1.3642578125 1.1416015625 c 1
 1.5576171875 1.1240234375 1.56640625 1.1240234375 1.568359375 1.1220703125 c 0
 1.5703125 1.1201171875 1.580078125 1.017578125 1.58984375 0.90625 c 1
 1.595703125 0.8359375 1.6015625 0.763671875 1.6083984375 0.6943359375 c 1
 1.58984375 0.7080078125 1.57421875 0.7236328125 1.5556640625 0.73828125 c 1
 1.5224609375 0.767578125 1.505859375 0.8095703125 1.505859375 0.8681640625 c 1
 1.505859375 0.896484375 1.505859375 0.923828125 1.505859375 0.9521484375 c 1
 1.4619140625 0.908203125 1.416015625 0.8623046875 1.3720703125 0.818359375 c 1
 1.328125 0.7724609375 1.2822265625 0.7275390625 1.23828125 0.681640625 c 1
 1.251953125 0.65625 1.267578125 0.6318359375 1.2822265625 0.6064453125 c 1
 1.314453125 0.5537109375 1.328125 0.48046875 1.328125 0.3740234375 c 0
 1.328125 0.2822265625 1.31640625 0.2421875 1.2724609375 0.1796875 c 0
 1.173828125 0.0419921875 1.01953125 -0.0478515625 0.8818359375 -0.0478515625 c 0
 0.748046875 -0.0478515625 0.591796875 0.0380859375 0.505859375 0.16015625 c 0
 0.4560546875 0.232421875 0.431640625 0.31640625 0.431640625 0.3984375 c 0
 0.431640625 0.5400390625 0.50390625 0.681640625 0.6376953125 0.76953125 c 0
 0.7099609375 0.818359375 0.7900390625 0.84375 0.8740234375 0.84375 c 0
 0.92578125 0.84375 0.98046875 0.833984375 1.0380859375 0.814453125 c 1
 1.078125 0.7998046875 1.1201171875 0.7880859375 1.16015625 0.7744140625 c 1
 1.2041015625 0.818359375 1.248046875 0.8603515625 1.2919921875 0.904296875 c 1
 1.3359375 0.9482421875 1.3798828125 0.9921875 1.423828125 1.0361328125 c 1
 1.400390625 1.0361328125 1.3740234375 1.0361328125 1.349609375 1.0361328125 c 1
 1.2998046875 1.0361328125 1.259765625 1.0556640625 1.2216796875 1.09765625 c 1
1.0498046875 0.671875 m 0
 0.99609375 0.7060546875 0.9404296875 0.7216796875 0.8857421875 0.7216796875 c 0
 0.7158203125 0.7216796875 0.5615234375 0.57421875 0.5615234375 0.400390625 c 0
 0.5615234375 0.3583984375 0.572265625 0.3115234375 0.591796875 0.267578125 c 0
 0.6484375 0.150390625 0.763671875 0.083984375 0.8837890625 0.083984375 c 0
 0.9521484375 0.083984375 1.01953125 0.103515625 1.078125 0.150390625 c 0
 1.158203125 0.2119140625 1.1982421875 0.3056640625 1.1982421875 0.3984375 c 0
 1.1982421875 0.501953125 1.1484375 0.6083984375 1.0498046875 0.671875 c 0
1.681640625 1.31640625 m 0
 1.7158203125 1.3515625 1.763671875 1.3681640625 1.8115234375 1.3681640625 c 0
 1.916015625 1.3681640625 2.0244140625 1.2958984375 2.0244140625 1.1923828125 c 0
 2.0244140625 1.08984375 1.916015625 0.9638671875 1.826171875 0.9638671875 c 0
 1.7763671875 0.9638671875 1.6962890625 1.005859375 1.66015625 1.0498046875 c 0
 1.6357421875 1.080078125 1.6240234375 1.1220703125 1.6240234375 1.1640625 c 0
 1.6240234375 1.2197265625 1.646484375 1.2783203125 1.681640625 1.31640625 c 0
1.908203125 1.234375 m 0
 1.8896484375 1.255859375 1.83203125 1.2724609375 1.7880859375 1.2724609375 c 0
 1.765625 1.2724609375 1.74609375 1.267578125 1.73828125 1.259765625 c 0
 1.7275390625 1.25 1.7177734375 1.2138671875 1.7177734375 1.181640625 c 0
 1.7177734375 1.1083984375 1.7763671875 1.06640625 1.830078125 1.06640625 c 0
 1.8701171875 1.06640625 1.908203125 1.08984375 1.919921875 1.1396484375 c 0
 1.921875 1.150390625 1.923828125 1.162109375 1.923828125 1.173828125 c 0
 1.923828125 1.1982421875 1.91796875 1.2197265625 1.908203125 1.234375 c 0
EndSplineSet
Validated: 1
EndChar

StartChar: d
Encoding: 100 100 47
Width: 2
Flags: HW
HStem: 0.088 0.094<0.649512 0.889738> 0.658 0.114<0.638834 0.890714> 0.832 0.126<0.556092 0.776108> 0.858 0.12<0.596868 0.971712> 1.232 0.092<1.30278 1.49669>
VStem: 0.432 0.128<0.272978 0.572466> 0.962 0.122<0.260656 0.582114> 1.19 0.14<0.242984 0.65836> 1.61 0.09<0.910932 1.152>
LayerCount: 2
Back
Fore
SplineSet
0.6337890625 0.740234375 m 0xcf80
 0.677734375 0.76171875 0.7255859375 0.7724609375 0.7724609375 0.7724609375 c 0
 0.8759765625 0.7724609375 0.9775390625 0.7197265625 1.0341796875 0.6279296875 c 0
 1.068359375 0.572265625 1.083984375 0.505859375 1.083984375 0.435546875 c 0
 1.083984375 0.3037109375 1.0283203125 0.16796875 0.931640625 0.1201171875 c 0
 0.8876953125 0.09765625 0.822265625 0.087890625 0.7578125 0.087890625 c 0
 0.6923828125 0.087890625 0.6259765625 0.099609375 0.58203125 0.1220703125 c 0
 0.48828125 0.169921875 0.431640625 0.2978515625 0.431640625 0.421875 c 0
 0.431640625 0.490234375 0.4501953125 0.5556640625 0.484375 0.6083984375 c 0
 0.517578125 0.658203125 0.578125 0.7119140625 0.6337890625 0.740234375 c 0xcf80
0.896484375 0.6103515625 m 0
 0.8642578125 0.6416015625 0.8115234375 0.658203125 0.76171875 0.658203125 c 0
 0.7216796875 0.658203125 0.68359375 0.6484375 0.65234375 0.6259765625 c 0
 0.59375 0.5859375 0.5595703125 0.5 0.5595703125 0.416015625 c 0
 0.5595703125 0.3857421875 0.56640625 0.3603515625 0.57421875 0.33203125 c 0
 0.603515625 0.23828125 0.6904296875 0.181640625 0.7744140625 0.181640625 c 0
 0.8203125 0.181640625 0.8681640625 0.1982421875 0.90234375 0.236328125 c 0
 0.9423828125 0.2802734375 0.9619140625 0.349609375 0.9619140625 0.419921875 c 0
 0.9619140625 0.494140625 0.9404296875 0.568359375 0.896484375 0.6103515625 c 0
1.2724609375 1.3056640625 m 0
 1.26171875 1.31640625 1.2578125 1.32421875 1.259765625 1.32421875 c 0
 1.6181640625 1.32421875 1.67578125 1.3203125 1.6884765625 1.2900390625 c 0
 1.6982421875 1.265625 1.7001953125 1.2197265625 1.7001953125 1.16796875 c 0
 1.7001953125 1.0537109375 1.681640625 0.91015625 1.658203125 0.91015625 c 0
 1.6337890625 0.91015625 1.6103515625 0.984375 1.6103515625 1.0595703125 c 1
 1.6103515625 1.08984375 1.6103515625 1.1220703125 1.6103515625 1.15234375 c 1
 1.5478515625 1.08984375 1.484375 1.0283203125 1.421875 0.9658203125 c 1
 1.3603515625 0.904296875 1.2978515625 0.841796875 1.236328125 0.7802734375 c 1
 1.25 0.759765625 1.26171875 0.740234375 1.2763671875 0.7197265625 c 1
 1.3095703125 0.66796875 1.330078125 0.5537109375 1.330078125 0.4443359375 c 0
 1.330078125 0.3818359375 1.322265625 0.322265625 1.3095703125 0.2763671875 c 0
 1.2919921875 0.2080078125 1.240234375 0.1103515625 1.162109375 -0.013671875 c 0
 1.15625 -0.0244140625 1.154296875 -0.0302734375 1.1484375 -0.0302734375 c 0
 1.1396484375 -0.0302734375 1.1279296875 -0.01953125 1.1015625 0.005859375 c 0
 1.072265625 0.0341796875 1.0615234375 0.0439453125 1.0615234375 0.0537109375 c 0
 1.0615234375 0.0595703125 1.064453125 0.064453125 1.068359375 0.072265625 c 0
 1.1484375 0.2119140625 1.1904296875 0.3564453125 1.1904296875 0.4755859375 c 0
 1.1904296875 0.5224609375 1.18359375 0.564453125 1.171875 0.6015625 c 0
 1.1220703125 0.75390625 0.9501953125 0.8583984375 0.7783203125 0.8583984375 c 0xdf80
 0.73828125 0.8583984375 0.6962890625 0.8515625 0.65625 0.83984375 c 0
 0.6376953125 0.833984375 0.6240234375 0.83203125 0.6123046875 0.83203125 c 0
 0.58984375 0.83203125 0.576171875 0.841796875 0.5615234375 0.8623046875 c 0
 0.5537109375 0.8740234375 0.5498046875 0.8837890625 0.5498046875 0.8935546875 c 0
 0.5498046875 0.921875 0.580078125 0.9404296875 0.646484375 0.9580078125 c 0xef80
 0.6962890625 0.9716796875 0.748046875 0.9775390625 0.7998046875 0.9775390625 c 0xdf80
 0.8818359375 0.9775390625 0.9638671875 0.9619140625 1.0400390625 0.9296875 c 1
 1.078125 0.9140625 1.1162109375 0.896484375 1.154296875 0.8798828125 c 1
 1.2119140625 0.9384765625 1.2724609375 0.998046875 1.330078125 1.0556640625 c 1
 1.3876953125 1.1142578125 1.4482421875 1.173828125 1.505859375 1.232421875 c 1
 1.4775390625 1.232421875 1.4501953125 1.232421875 1.421875 1.232421875 c 1
 1.3642578125 1.232421875 1.318359375 1.25390625 1.2724609375 1.3056640625 c 0
EndSplineSet
Validated: 1
EndChar

StartChar: e
Encoding: 101 101 48
Width: 2
Flags: HW
HStem: 0.474 0.078<0.738072 0.932 1.048 1.24192> 0.688 0.096<0.776026 0.931718 1.04829 1.20397> 1.074 0.04G<0.982 1.01367>
VStem: 0.932 0.116<0.554 0.687782 0.784186 0.919656>
LayerCount: 2
Back
Fore
SplineSet
0.90234375 1.017578125 m 1
 0.93359375 1.0498046875 0.9658203125 1.08203125 0.998046875 1.1142578125 c 1
 1.0302734375 1.083984375 1.0595703125 1.0517578125 1.091796875 1.0224609375 c 1
 1.1240234375 0.9921875 1.154296875 0.9599609375 1.185546875 0.9296875 c 1
 1.1640625 0.927734375 1.1396484375 0.92578125 1.1181640625 0.923828125 c 1
 1.0517578125 0.91796875 1.0478515625 0.912109375 1.0478515625 0.83203125 c 0
 1.0478515625 0.7841796875 1.0498046875 0.7841796875 1.1103515625 0.7841796875 c 0
 1.1962890625 0.7841796875 1.2041015625 0.7802734375 1.2041015625 0.736328125 c 0
 1.2041015625 0.6923828125 1.1962890625 0.6884765625 1.1103515625 0.6884765625 c 0
 1.0498046875 0.6884765625 1.0478515625 0.685546875 1.0478515625 0.6201171875 c 1
 1.0478515625 0.59765625 1.0478515625 0.576171875 1.0478515625 0.5537109375 c 1
 1.1123046875 0.5517578125 1.177734375 0.5498046875 1.2421875 0.5478515625 c 1
 1.3056640625 0.5458984375 1.3701171875 0.5439453125 1.43359375 0.5419921875 c 1
 1.396484375 0.490234375 1.3583984375 0.4384765625 1.3203125 0.3857421875 c 1
 1.26171875 0.3095703125 1.166015625 0.173828125 1.099609375 0.078125 c 1
 1.064453125 0.0283203125 1.0302734375 -0.0244140625 0.994140625 -0.07421875 c 1
 0.9599609375 -0.0263671875 0.927734375 0.01953125 0.8935546875 0.068359375 c 1
 0.84375 0.1396484375 0.7822265625 0.2236328125 0.759765625 0.251953125 c 0
 0.734375 0.2841796875 0.673828125 0.3662109375 0.6357421875 0.419921875 c 1
 0.6064453125 0.4638671875 0.576171875 0.5078125 0.5458984375 0.5517578125 c 1
 0.6103515625 0.5517578125 0.673828125 0.5517578125 0.73828125 0.5517578125 c 1
 0.8017578125 0.5517578125 0.8681640625 0.5517578125 0.931640625 0.5517578125 c 1
 0.931640625 0.57421875 0.931640625 0.59765625 0.931640625 0.6201171875 c 1
 0.931640625 0.685546875 0.9296875 0.6884765625 0.8701171875 0.6884765625 c 0
 0.7841796875 0.6884765625 0.7763671875 0.6923828125 0.7763671875 0.736328125 c 0
 0.7763671875 0.7802734375 0.7841796875 0.7841796875 0.8701171875 0.7841796875 c 0
 0.9296875 0.7841796875 0.931640625 0.7861328125 0.931640625 0.83984375 c 0
 0.931640625 0.916015625 0.927734375 0.919921875 0.8701171875 0.919921875 c 1
 0.849609375 0.919921875 0.828125 0.919921875 0.8076171875 0.919921875 c 1
 0.83984375 0.9521484375 0.8701171875 0.986328125 0.90234375 1.017578125 c 1
1.2421875 0.4541015625 m 0
 1.2421875 0.4658203125 1.1337890625 0.4736328125 0.98046875 0.4736328125 c 0
 0.8359375 0.4736328125 0.73828125 0.4677734375 0.73828125 0.4580078125 c 0
 0.73828125 0.4443359375 0.8623046875 0.2724609375 0.8984375 0.236328125 c 0
 0.916015625 0.2177734375 0.9423828125 0.185546875 0.9560546875 0.1640625 c 1
 0.9658203125 0.1484375 0.9775390625 0.1298828125 0.98828125 0.1142578125 c 1
 1 0.1279296875 1.01171875 0.1416015625 1.0244140625 0.15625 c 1
 1.099609375 0.24609375 1.2421875 0.4384765625 1.2421875 0.4541015625 c 0
EndSplineSet
Validated: 1
EndChar

StartChar: f
Encoding: 102 102 49
Width: 2
Flags: HW
HStem: 0.114 0.09<0.680904 0.843762 1.1194 1.28267> 0.33 0.082<0.73001 0.915574 1.04201 1.22232> 1.058 0.062<0.743564 1.35369> 1.142 0.042G<0.827 0.838 1.129 1.139> 1.308 0.104<0.627288 0.772642 0.888908 1.06016 1.18385 1.33246>
VStem: 0.45 0.14<-0.127434 0.0118801 0.904766 1.27361> 0.916 0.126<-0.128497 0.0192337 0.166013 0.33 0.412898 0.550028> 1.354 0.144<-0.124028 0.026262 0.88766 1.19017>
LayerCount: 2
Back
Fore
SplineSet
0.5478515625 1.3515625 m 0
 0.587890625 1.3916015625 0.6337890625 1.412109375 0.677734375 1.412109375 c 0
 0.7158203125 1.412109375 0.751953125 1.3984375 0.7841796875 1.3681640625 c 1
 0.7998046875 1.353515625 0.814453125 1.337890625 0.830078125 1.32421875 c 1
 0.84375 1.337890625 0.8583984375 1.353515625 0.8720703125 1.3681640625 c 1
 0.900390625 1.396484375 0.9384765625 1.412109375 0.9736328125 1.412109375 c 0
 1.009765625 1.412109375 1.0458984375 1.3984375 1.076171875 1.3701171875 c 1
 1.091796875 1.353515625 1.1064453125 1.33984375 1.1220703125 1.32421875 c 1
 1.1376953125 1.33984375 1.154296875 1.353515625 1.169921875 1.3701171875 c 1
 1.2021484375 1.400390625 1.2421875 1.4140625 1.2841796875 1.4140625 c 0
 1.3515625 1.4140625 1.423828125 1.3759765625 1.4580078125 1.3095703125 c 0
 1.484375 1.259765625 1.498046875 1.173828125 1.498046875 1.087890625 c 0
 1.498046875 1.017578125 1.48828125 0.9462890625 1.4697265625 0.8916015625 c 0
 1.419921875 0.74609375 1.26171875 0.59765625 1.1142578125 0.5595703125 c 0
 1.0615234375 0.5458984375 1.0517578125 0.5322265625 1.0439453125 0.4560546875 c 0
 1.0439453125 0.4482421875 1.0419921875 0.4423828125 1.0419921875 0.435546875 c 0
 1.0419921875 0.416015625 1.0517578125 0.412109375 1.08984375 0.41015625 c 0
 1.177734375 0.404296875 1.2255859375 0.396484375 1.2255859375 0.353515625 c 0
 1.2255859375 0.333984375 1.2060546875 0.330078125 1.1357421875 0.330078125 c 1
 1.103515625 0.330078125 1.07421875 0.330078125 1.0419921875 0.330078125 c 1
 1.0419921875 0.2978515625 1.0419921875 0.265625 1.0419921875 0.234375 c 1
 1.0419921875 0.2021484375 1.0419921875 0.171875 1.0419921875 0.1396484375 c 1
 1.0615234375 0.150390625 1.083984375 0.162109375 1.103515625 0.171875 c 1
 1.1435546875 0.1943359375 1.177734375 0.2041015625 1.2119140625 0.2041015625 c 0
 1.240234375 0.2041015625 1.267578125 0.1962890625 1.2998046875 0.1796875 c 0
 1.40234375 0.1298828125 1.4697265625 0.0400390625 1.4921875 -0.0859375 c 0
 1.494140625 -0.095703125 1.494140625 -0.1015625 1.494140625 -0.1083984375 c 0
 1.494140625 -0.1259765625 1.484375 -0.1298828125 1.4501953125 -0.1298828125 c 0
 1.3916015625 -0.1298828125 1.3759765625 -0.1220703125 1.3623046875 -0.076171875 c 0
 1.337890625 0 1.3017578125 0.0595703125 1.259765625 0.08984375 c 0
 1.240234375 0.1064453125 1.2177734375 0.1142578125 1.1982421875 0.1142578125 c 0
 1.1416015625 0.1142578125 1.087890625 0.0517578125 1.0537109375 -0.0576171875 c 0
 1.0361328125 -0.1181640625 1.0224609375 -0.1298828125 0.9755859375 -0.1298828125 c 0
 0.931640625 -0.1298828125 0.91796875 -0.1181640625 0.91015625 -0.072265625 c 0
 0.8935546875 0.017578125 0.841796875 0.091796875 0.7880859375 0.1083984375 c 0
 0.7802734375 0.1103515625 0.7724609375 0.1103515625 0.763671875 0.1103515625 c 0
 0.6962890625 0.1103515625 0.6259765625 0.0341796875 0.595703125 -0.076171875 c 0
 0.583984375 -0.1220703125 0.5703125 -0.1298828125 0.5 -0.1298828125 c 0
 0.4697265625 -0.1298828125 0.4580078125 -0.1279296875 0.4580078125 -0.1123046875 c 0
 0.4580078125 -0.1064453125 0.4599609375 -0.09765625 0.4619140625 -0.087890625 c 0
 0.501953125 0.095703125 0.6015625 0.1923828125 0.74609375 0.1923828125 c 0
 0.7841796875 0.1923828125 0.82421875 0.185546875 0.8681640625 0.171875 c 0
 0.8798828125 0.16796875 0.8876953125 0.166015625 0.8935546875 0.166015625 c 0
 0.9140625 0.166015625 0.916015625 0.18359375 0.916015625 0.244140625 c 1
 0.916015625 0.2724609375 0.916015625 0.3017578125 0.916015625 0.330078125 c 1
 0.8837890625 0.330078125 0.853515625 0.330078125 0.822265625 0.330078125 c 1
 0.740234375 0.330078125 0.73046875 0.333984375 0.73046875 0.3701171875 c 0
 0.73046875 0.40625 0.744140625 0.412109375 0.8359375 0.412109375 c 0
 0.912109375 0.412109375 0.916015625 0.416015625 0.916015625 0.4716796875 c 0
 0.916015625 0.5380859375 0.912109375 0.5458984375 0.8740234375 0.5537109375 c 0
 0.732421875 0.583984375 0.583984375 0.6962890625 0.51171875 0.826171875 c 0
 0.4697265625 0.900390625 0.4501953125 0.990234375 0.4501953125 1.07421875 c 0
 0.4501953125 1.18359375 0.484375 1.2880859375 0.5478515625 1.3515625 c 0
0.767578125 1.2802734375 m 0
 0.75390625 1.2958984375 0.7216796875 1.3076171875 0.6923828125 1.3076171875 c 0
 0.654296875 1.3076171875 0.6337890625 1.2900390625 0.6103515625 1.2275390625 c 0
 0.59765625 1.1982421875 0.583984375 1.154296875 0.583984375 1.1484375 c 0
 0.583984375 1.1298828125 0.7099609375 1.1201171875 0.98046875 1.1201171875 c 1
 1.1123046875 1.1201171875 1.244140625 1.1201171875 1.3759765625 1.1201171875 c 1
 1.3720703125 1.1396484375 1.3662109375 1.16015625 1.3623046875 1.1796875 c 1
 1.341796875 1.2724609375 1.314453125 1.3076171875 1.267578125 1.3076171875 c 0
 1.2060546875 1.3076171875 1.146484375 1.240234375 1.146484375 1.169921875 c 0
 1.146484375 1.150390625 1.1416015625 1.1416015625 1.1357421875 1.1416015625 c 0
 1.1220703125 1.1416015625 1.09765625 1.17578125 1.072265625 1.23828125 c 0
 1.0478515625 1.2958984375 1.0341796875 1.3076171875 0.986328125 1.3076171875 c 0
 0.916015625 1.3076171875 0.8837890625 1.2822265625 0.8662109375 1.2060546875 c 0
 0.8564453125 1.166015625 0.84375 1.146484375 0.83203125 1.146484375 c 0
 0.822265625 1.146484375 0.8095703125 1.162109375 0.8017578125 1.1962890625 c 0
 0.7939453125 1.23046875 0.7802734375 1.265625 0.767578125 1.2802734375 c 0
1.353515625 1.01953125 m 0
 1.353515625 1.0556640625 1.341796875 1.0576171875 1.1357421875 1.0576171875 c 0
 0.7802734375 1.0576171875 0.603515625 1.0517578125 0.591796875 1.0400390625 c 0
 0.58984375 1.0380859375 0.58984375 1.0341796875 0.58984375 1.0302734375 c 0
 0.58984375 0.99609375 0.6318359375 0.8935546875 0.673828125 0.833984375 c 0
 0.74609375 0.7275390625 0.8642578125 0.662109375 0.9755859375 0.662109375 c 0
 0.994140625 0.662109375 1.009765625 0.6640625 1.0263671875 0.66796875 c 0
 1.181640625 0.6982421875 1.353515625 0.8818359375 1.353515625 1.01953125 c 0
EndSplineSet
Validated: 1
EndChar

StartChar: g
Encoding: 103 103 50
Width: 2
Flags: HW
HStem: 0.164 0.074<1.10641 1.23705> 0.28 0.128<0.500866 0.701996 0.808002 1.02413> 0.43 0.086<1.08099 1.25314> 1.25 0.114<0.593686 0.89507>
VStem: 0.336 0.136<0.793216 1.12164> 0.702 0.106<0.090263 0.28 0.408092 0.563138> 1.044 0.112<0.801788 1.08072> 1.264 0.086<0.258526 0.402304>
LayerCount: 2
Back
Fore
SplineSet
0.6162109375 1.3359375 m 0
 0.662109375 1.3515625 0.7158203125 1.3642578125 0.751953125 1.3642578125 c 0
 0.75390625 1.3642578125 l 0
 0.8916015625 1.3642578125 1.072265625 1.236328125 1.1298828125 1.095703125 c 0
 1.1484375 1.0537109375 1.15625 1.009765625 1.15625 0.9677734375 c 0
 1.15625 0.8095703125 1.0458984375 0.654296875 0.8623046875 0.5703125 c 0
 0.81640625 0.5478515625 0.8076171875 0.5322265625 0.8076171875 0.4501953125 c 0
 0.8076171875 0.412109375 0.8095703125 0.408203125 0.8623046875 0.408203125 c 0
 0.9560546875 0.408203125 0.99609375 0.419921875 1.0302734375 0.4580078125 c 0
 1.068359375 0.5 1.1162109375 0.515625 1.162109375 0.515625 c 0
 1.2578125 0.515625 1.349609375 0.4423828125 1.349609375 0.34375 c 0
 1.349609375 0.326171875 1.345703125 0.3076171875 1.33984375 0.2880859375 c 0
 1.3115234375 0.2080078125 1.236328125 0.1640625 1.162109375 0.1640625 c 0
 1.1103515625 0.1640625 1.0595703125 0.185546875 1.0283203125 0.234375 c 0
 1.00390625 0.26953125 0.9755859375 0.2802734375 0.90234375 0.2802734375 c 1
 0.8701171875 0.2802734375 0.83984375 0.2802734375 0.8076171875 0.2802734375 c 1
 0.8076171875 0.248046875 0.8076171875 0.2177734375 0.8076171875 0.185546875 c 1
 0.8076171875 0.09765625 0.8037109375 0.08984375 0.755859375 0.08984375 c 0
 0.7080078125 0.08984375 0.7021484375 0.099609375 0.7021484375 0.185546875 c 1
 0.7021484375 0.2177734375 0.7021484375 0.248046875 0.7021484375 0.2802734375 c 1
 0.666015625 0.2802734375 0.6298828125 0.2802734375 0.59375 0.2802734375 c 1
 0.5078125 0.2802734375 0.4921875 0.2822265625 0.4921875 0.3076171875 c 0
 0.4921875 0.3115234375 0.4921875 0.31640625 0.4921875 0.322265625 c 0
 0.5 0.3916015625 0.5078125 0.3984375 0.6142578125 0.404296875 c 0
 0.6962890625 0.41015625 0.7021484375 0.412109375 0.7021484375 0.4521484375 c 0
 0.7021484375 0.5341796875 0.6962890625 0.5498046875 0.6484375 0.568359375 c 0
 0.5244140625 0.6123046875 0.404296875 0.7216796875 0.3603515625 0.828125 c 0
 0.34375 0.8662109375 0.3359375 0.908203125 0.3359375 0.9501953125 c 0
 0.3359375 1.1103515625 0.4482421875 1.2763671875 0.6162109375 1.3359375 c 0
0.82421875 1.23828125 m 0
 0.8115234375 1.23828125 0.7822265625 1.244140625 0.767578125 1.248046875 c 0
 0.76171875 1.25 0.75390625 1.25 0.74609375 1.25 c 0
 0.7080078125 1.25 0.646484375 1.232421875 0.6015625 1.2099609375 c 0
 0.517578125 1.166015625 0.4716796875 1.064453125 0.4716796875 0.9599609375 c 0
 0.4716796875 0.896484375 0.48828125 0.83203125 0.5244140625 0.7783203125 c 0
 0.576171875 0.7001953125 0.658203125 0.666015625 0.740234375 0.666015625 c 0
 0.8876953125 0.666015625 1.0439453125 0.7744140625 1.0439453125 0.931640625 c 0
 1.0439453125 0.9462890625 1.0419921875 0.9619140625 1.0400390625 0.9775390625 c 0
 1.017578125 1.09375 0.900390625 1.23828125 0.82421875 1.23828125 c 0
1.25390625 0.3876953125 m 0
 1.240234375 0.4140625 1.2099609375 0.4296875 1.169921875 0.4296875 c 0
 1.1083984375 0.4296875 1.072265625 0.396484375 1.072265625 0.3515625 c 0
 1.072265625 0.333984375 1.076171875 0.314453125 1.08984375 0.2939453125 c 0
 1.1123046875 0.259765625 1.1484375 0.23828125 1.17578125 0.23828125 c 0
 1.2236328125 0.23828125 1.263671875 0.2978515625 1.263671875 0.349609375 c 0
 1.263671875 0.3642578125 1.259765625 0.3759765625 1.25390625 0.3876953125 c 0
EndSplineSet
Validated: 1
EndChar

StartChar: h
Encoding: 104 104 51
Width: 2
Flags: HW
HStem: 0.174 0.086<0.486008 0.652 0.748 0.903994> 0.952 0.092<0.55321 0.835948> 1.006 0.072<1.298 1.42882> 1.06 0.148<1.0525 1.12976> 1.148 0.072<0.878006 1.052> 1.236 0.068<1.31184 1.41946>
VStem: 0.368 0.102<0.583324 0.866306> 0.658 0.09<0.0181105 0.166 0.267328 0.397666> 0.932 0.092<0.587 0.853126> 1.13 0.066<0.915014 1.05998> 1.222 0.068<1.08649 1.214> 1.438 0.072<1.08902 1.21799>
LayerCount: 2
Back
Fore
SplineSet
0.8779296875 1.18359375 m 1xcff0
 0.8681640625 1.1962890625 0.8564453125 1.2080078125 0.845703125 1.2197265625 c 1xcff0
 0.904296875 1.2177734375 0.9599609375 1.2158203125 1.017578125 1.2138671875 c 1
 1.076171875 1.2119140625 1.1337890625 1.2099609375 1.1923828125 1.2080078125 c 1
 1.1943359375 1.154296875 1.1943359375 1.09765625 1.1962890625 1.0439453125 c 1
 1.1982421875 0.990234375 1.2001953125 0.93359375 1.2021484375 0.8798828125 c 1
 1.1904296875 0.8896484375 1.177734375 0.90234375 1.166015625 0.912109375 c 1
 1.1435546875 0.931640625 1.1298828125 0.9677734375 1.1298828125 1.0078125 c 0
 1.1298828125 1.0380859375 1.1220703125 1.0595703125 1.1142578125 1.0595703125 c 0x97f0
 1.103515625 1.0595703125 1.064453125 1.0322265625 1.0263671875 0.998046875 c 1
 1.00390625 0.9775390625 0.98046875 0.9560546875 0.9580078125 0.935546875 c 1
 0.9697265625 0.9140625 0.98046875 0.8896484375 0.9921875 0.8681640625 c 1
 1.013671875 0.82421875 1.0244140625 0.767578125 1.0244140625 0.7138671875 c 0
 1.0244140625 0.66796875 1.015625 0.6220703125 1 0.5859375 c 0
 0.9638671875 0.5078125 0.8603515625 0.421875 0.7822265625 0.404296875 c 0
 0.751953125 0.3984375 0.748046875 0.3876953125 0.748046875 0.328125 c 1
 0.748046875 0.3056640625 0.748046875 0.2822265625 0.748046875 0.259765625 c 1
 0.7744140625 0.259765625 0.7998046875 0.259765625 0.826171875 0.259765625 c 1
 0.900390625 0.259765625 0.904296875 0.2578125 0.904296875 0.2177734375 c 0
 0.904296875 0.177734375 0.8984375 0.173828125 0.826171875 0.173828125 c 1
 0.7998046875 0.173828125 0.7744140625 0.173828125 0.748046875 0.173828125 c 1
 0.748046875 0.1484375 0.748046875 0.1220703125 0.748046875 0.095703125 c 1
 0.748046875 0.0244140625 0.744140625 0.017578125 0.7080078125 0.017578125 c 0
 0.66796875 0.017578125 0.662109375 0.0263671875 0.658203125 0.091796875 c 1
 0.65625 0.1162109375 0.654296875 0.1416015625 0.65234375 0.166015625 c 1
 0.6240234375 0.16796875 0.59765625 0.16796875 0.5703125 0.169921875 c 1
 0.49609375 0.173828125 0.486328125 0.1796875 0.486328125 0.2177734375 c 0
 0.486328125 0.255859375 0.494140625 0.259765625 0.572265625 0.263671875 c 0
 0.6484375 0.267578125 0.654296875 0.2724609375 0.658203125 0.318359375 c 0
 0.658203125 0.328125 0.658203125 0.333984375 0.658203125 0.341796875 c 0
 0.658203125 0.3740234375 0.650390625 0.3837890625 0.6201171875 0.3984375 c 0
 0.4560546875 0.4716796875 0.3681640625 0.6123046875 0.3681640625 0.744140625 c 0
 0.3681640625 0.837890625 0.4140625 0.92578125 0.5078125 0.986328125 c 0
 0.568359375 1.0244140625 0.6416015625 1.0439453125 0.7099609375 1.0439453125 c 0
 0.7578125 1.0439453125 0.8017578125 1.0361328125 0.837890625 1.015625 c 1
 0.8564453125 1.005859375 0.8740234375 0.998046875 0.8916015625 0.98828125 c 1
 0.91796875 1.013671875 0.9462890625 1.0419921875 0.9716796875 1.068359375 c 1
 0.998046875 1.09375 1.0263671875 1.1220703125 1.0517578125 1.1484375 c 1
 1.0283203125 1.1484375 1.00390625 1.1484375 0.98046875 1.1484375 c 1
 0.9296875 1.1484375 0.900390625 1.158203125 0.8779296875 1.18359375 c 1xcff0
0.853515625 0.8935546875 m 0
 0.814453125 0.931640625 0.7802734375 0.9462890625 0.7099609375 0.9521484375 c 0
 0.6982421875 0.9521484375 0.68359375 0.9521484375 0.673828125 0.9521484375 c 0
 0.603515625 0.9521484375 0.568359375 0.931640625 0.51953125 0.8740234375 c 0
 0.4775390625 0.82421875 0.4697265625 0.7978515625 0.4697265625 0.7080078125 c 0
 0.4697265625 0.6298828125 0.4755859375 0.6162109375 0.5361328125 0.5556640625 c 0
 0.595703125 0.49609375 0.6142578125 0.486328125 0.66796875 0.486328125 c 0
 0.7978515625 0.486328125 0.8740234375 0.5322265625 0.9140625 0.6357421875 c 0
 0.92578125 0.66796875 0.931640625 0.6982421875 0.931640625 0.7275390625 c 0
 0.931640625 0.7880859375 0.90625 0.84375 0.853515625 0.8935546875 c 0
1.2744140625 1.259765625 m 0
 1.3037109375 1.2900390625 1.333984375 1.3037109375 1.3662109375 1.3037109375 c 0
 1.3935546875 1.3037109375 1.419921875 1.2919921875 1.4482421875 1.26953125 c 0
 1.490234375 1.234375 1.509765625 1.1884765625 1.509765625 1.1435546875 c 0
 1.509765625 1.072265625 1.4580078125 1.0078125 1.3701171875 1.005859375 c 0
 1.3681640625 1.005859375 1.3662109375 1.005859375 1.3642578125 1.005859375 c 0xa7f0
 1.2763671875 1.005859375 1.2216796875 1.0703125 1.2216796875 1.1416015625 c 0
 1.2216796875 1.181640625 1.23828125 1.2236328125 1.2744140625 1.259765625 c 0
1.3896484375 1.2275390625 m 0
 1.3798828125 1.234375 1.3701171875 1.236328125 1.3623046875 1.236328125 c 0
 1.349609375 1.236328125 1.337890625 1.23046875 1.32421875 1.2158203125 c 0
 1.2998046875 1.1923828125 1.2900390625 1.166015625 1.2900390625 1.1416015625 c 0
 1.2900390625 1.1064453125 1.31640625 1.078125 1.3623046875 1.078125 c 0
 1.412109375 1.078125 1.4384765625 1.1123046875 1.4384765625 1.150390625 c 0
 1.4384765625 1.177734375 1.423828125 1.2099609375 1.3896484375 1.2275390625 c 0
EndSplineSet
Validated: 1
EndChar

StartChar: i
Encoding: 105 105 52
Width: 2
Flags: HW
HStem: 0.302 0.08<0.366286 0.599996 0.818006 1.05171> 1.34 0.09<0.57257 0.837698>
VStem: 0.36 0.106<0.94423 1.23033> 0.672 0.076<0.460012 0.7442> 0.946 0.112<0.950962 1.23127>
DStem2: 0.488 0.186 0.584 0.156 0.707107 0.707107<-0.0744084 0.159555 0.379032 0.600772> 0.662 0.454 0.61 0.382 0.711625 -0.70256<-0.223052 -0.000302426 0.222262 0.45344>
LayerCount: 2
Back
Fore
SplineSet
0.580078125 1.40625 m 0
 0.6220703125 1.421875 0.66796875 1.4296875 0.7119140625 1.4296875 c 0
 0.7255859375 1.4296875 0.740234375 1.4296875 0.75390625 1.427734375 c 0
 0.923828125 1.408203125 1.0576171875 1.259765625 1.0576171875 1.103515625 c 0
 1.0576171875 1.087890625 1.0576171875 1.0703125 1.0537109375 1.0537109375 c 0
 1.0302734375 0.92578125 0.91015625 0.7919921875 0.7841796875 0.75 c 0
 0.767578125 0.744140625 0.765625 0.73828125 0.7578125 0.654296875 c 0
 0.751953125 0.576171875 0.748046875 0.513671875 0.748046875 0.482421875 c 0
 0.748046875 0.4697265625 0.748046875 0.4619140625 0.75 0.4599609375 c 0
 0.751953125 0.4599609375 l 0
 0.763671875 0.4599609375 0.814453125 0.5078125 0.8876953125 0.587890625 c 0
 0.900390625 0.6015625 0.908203125 0.6083984375 0.916015625 0.6083984375 c 0
 0.92578125 0.6083984375 0.935546875 0.599609375 0.9560546875 0.58203125 c 0
 0.9658203125 0.57421875 0.9716796875 0.568359375 0.9716796875 0.5595703125 c 0
 0.9716796875 0.5458984375 0.9521484375 0.5263671875 0.8984375 0.4697265625 c 1
 0.8681640625 0.4404296875 0.83984375 0.412109375 0.8095703125 0.3818359375 c 1
 0.849609375 0.3818359375 0.8916015625 0.3818359375 0.931640625 0.3818359375 c 1
 1.0537109375 0.3818359375 1.0537109375 0.3818359375 1.0537109375 0.2861328125 c 0
 1.0537109375 0.2861328125 1.0224609375 0.2900390625 1.017578125 0.2900390625 c 0
 0.935546875 0.2978515625 0.8759765625 0.2998046875 0.84375 0.2998046875 c 0
 0.826171875 0.2998046875 0.818359375 0.2978515625 0.818359375 0.2958984375 c 0
 0.818359375 0.2900390625 0.8681640625 0.2421875 0.927734375 0.1884765625 c 0
 0.9638671875 0.15625 0.9775390625 0.1416015625 0.9775390625 0.1279296875 c 0
 0.9775390625 0.1201171875 0.9716796875 0.1103515625 0.9599609375 0.09765625 c 0
 0.9501953125 0.0859375 0.9423828125 0.080078125 0.931640625 0.080078125 c 0
 0.916015625 0.080078125 0.8916015625 0.099609375 0.833984375 0.15625 c 1
 0.8037109375 0.185546875 0.7724609375 0.2158203125 0.7421875 0.24609375 c 1
 0.744140625 0.2041015625 0.748046875 0.1640625 0.75 0.1220703125 c 1
 0.75390625 0.08203125 0.755859375 0.0400390625 0.759765625 0 c 1
 0.7421875 0 0.7255859375 0 0.7080078125 0 c 1
 0.6904296875 0 0.673828125 0 0.65625 0 c 1
 0.66015625 0.0400390625 0.662109375 0.08203125 0.666015625 0.1220703125 c 1
 0.669921875 0.1640625 0.671875 0.2041015625 0.67578125 0.24609375 c 1
 0.646484375 0.2158203125 0.6142578125 0.185546875 0.583984375 0.15625 c 1
 0.5263671875 0.1015625 0.50390625 0.080078125 0.48828125 0.080078125 c 0
 0.4775390625 0.080078125 0.4697265625 0.087890625 0.4599609375 0.09765625 c 0
 0.4482421875 0.1103515625 0.4404296875 0.1181640625 0.4404296875 0.1259765625 c 0
 0.4404296875 0.1376953125 0.4541015625 0.154296875 0.48828125 0.185546875 c 0
 0.5458984375 0.240234375 0.599609375 0.2939453125 0.599609375 0.2998046875 c 0
 0.599609375 0.3017578125 0.59375 0.3017578125 0.583984375 0.3017578125 c 0
 0.5576171875 0.3017578125 0.5 0.2978515625 0.41015625 0.2900390625 c 0
 0.3642578125 0.2861328125 l 0
 0.3642578125 0.3818359375 0.3642578125 0.3818359375 0.486328125 0.3818359375 c 1
 0.5283203125 0.3818359375 0.568359375 0.3818359375 0.6103515625 0.3818359375 c 1
 0.580078125 0.41015625 0.5498046875 0.4384765625 0.51953125 0.4658203125 c 1
 0.4658203125 0.515625 0.4462890625 0.5380859375 0.4462890625 0.5537109375 c 0
 0.4462890625 0.564453125 0.4541015625 0.572265625 0.4677734375 0.5859375 c 0
 0.484375 0.599609375 0.4921875 0.6103515625 0.501953125 0.6103515625 c 0
 0.513671875 0.6103515625 0.5263671875 0.595703125 0.5517578125 0.56640625 c 0
 0.6142578125 0.494140625 0.658203125 0.4580078125 0.662109375 0.4541015625 c 1
 0.66796875 0.4541015625 0.671875 0.484375 0.671875 0.5263671875 c 0
 0.671875 0.572265625 0.669921875 0.6318359375 0.662109375 0.677734375 c 0
 0.654296875 0.732421875 0.6416015625 0.74609375 0.6064453125 0.7578125 c 0
 0.5595703125 0.7724609375 0.505859375 0.8076171875 0.4638671875 0.84765625 c 0
 0.3935546875 0.91796875 0.3603515625 1.005859375 0.3603515625 1.091796875 c 0
 0.3603515625 1.2255859375 0.4384765625 1.353515625 0.580078125 1.40625 c 0
0.8095703125 1.314453125 m 0
 0.7744140625 1.33203125 0.736328125 1.33984375 0.7001953125 1.33984375 c 0
 0.6083984375 1.33984375 0.5224609375 1.2822265625 0.484375 1.181640625 c 0
 0.4716796875 1.1484375 0.4658203125 1.1162109375 0.4658203125 1.083984375 c 0
 0.4658203125 0.9501953125 0.572265625 0.841796875 0.7080078125 0.841796875 c 0
 0.736328125 0.841796875 0.765625 0.845703125 0.7958984375 0.8564453125 c 0
 0.8603515625 0.8759765625 0.896484375 0.912109375 0.921875 0.9736328125 c 0
 0.9384765625 1.01171875 0.9462890625 1.0517578125 0.9462890625 1.08984375 c 0
 0.9462890625 1.18359375 0.8984375 1.26953125 0.8095703125 1.314453125 c 0
EndSplineSet
Validated: 1
EndChar

StartChar: j
Encoding: 106 106 53
Width: 2
Flags: HW
HStem: 0.266 0.062<0.532124 0.719748> 0.636 0.074<0.67312 0.72804> 0.798 0.078<0.400012 0.596516 0.672006 0.853992> 0.964 0.074<0.673354 0.72735> 1.344 0.088<0.525764 0.737274>
VStem: 0.4 0.072<0.381688 0.582128 1.09338 1.28164> 0.598 0.074<0.713036 0.783524 0.889388 0.960146> 0.782 0.072<0.383134 0.579034 1.09883 1.28893>
LayerCount: 2
Back
Fore
SplineSet
0.5 1.3916015625 m 0
 0.5439453125 1.41796875 0.58984375 1.431640625 0.6337890625 1.431640625 c 0
 0.7001953125 1.431640625 0.763671875 1.40234375 0.8095703125 1.341796875 c 0
 0.84375 1.2978515625 0.853515625 1.2578125 0.853515625 1.166015625 c 0
 0.853515625 1.095703125 0.849609375 1.083984375 0.8076171875 1.0419921875 c 0
 0.759765625 0.994140625 0.7177734375 0.9638671875 0.6982421875 0.9638671875 c 0
 0.6796875 0.9638671875 0.671875 0.9443359375 0.671875 0.90625 c 0
 0.671875 0.8759765625 0.6796875 0.8720703125 0.759765625 0.8720703125 c 0
 0.841796875 0.8720703125 0.853515625 0.8681640625 0.853515625 0.8359375 c 0
 0.853515625 0.8037109375 0.841796875 0.7998046875 0.759765625 0.7998046875 c 0
 0.6796875 0.7998046875 0.671875 0.7958984375 0.671875 0.765625 c 0
 0.671875 0.73046875 0.681640625 0.7099609375 0.6982421875 0.7099609375 c 0
 0.7177734375 0.7099609375 0.7578125 0.681640625 0.8037109375 0.6357421875 c 0
 0.84765625 0.591796875 0.853515625 0.57421875 0.853515625 0.4921875 c 0
 0.853515625 0.396484375 0.845703125 0.3720703125 0.7900390625 0.3095703125 c 0
 0.75390625 0.26953125 0.7421875 0.265625 0.6279296875 0.265625 c 0
 0.51171875 0.265625 0.5 0.26953125 0.4599609375 0.31640625 c 0
 0.412109375 0.3720703125 0.400390625 0.396484375 0.400390625 0.4580078125 c 0
 0.400390625 0.58203125 0.4423828125 0.654296875 0.5380859375 0.7001953125 c 0
 0.578125 0.7177734375 0.59765625 0.73828125 0.59765625 0.75390625 c 0
 0.59765625 0.7763671875 0.5537109375 0.7939453125 0.4736328125 0.7978515625 c 0
 0.416015625 0.7998046875 0.400390625 0.8076171875 0.400390625 0.8359375 c 0
 0.400390625 0.8642578125 0.416015625 0.8720703125 0.4716796875 0.8759765625 c 0
 0.5556640625 0.8798828125 0.599609375 0.8984375 0.599609375 0.919921875 c 0
 0.599609375 0.93359375 0.58203125 0.9501953125 0.5439453125 0.9677734375 c 0
 0.4501953125 1.01171875 0.400390625 1.095703125 0.400390625 1.2060546875 c 0
 0.400390625 1.2939453125 0.4296875 1.34765625 0.5 1.3916015625 c 0
0.748046875 1.2900390625 m 0
 0.7177734375 1.328125 0.677734375 1.34375 0.6357421875 1.34375 c 0
 0.5537109375 1.34375 0.4716796875 1.2802734375 0.4716796875 1.181640625 c 0
 0.4716796875 1.1015625 0.5283203125 1.0537109375 0.6298828125 1.0400390625 c 0
 0.6396484375 1.0380859375 0.650390625 1.0380859375 0.658203125 1.0380859375 c 0
 0.68359375 1.0380859375 0.7001953125 1.0458984375 0.7197265625 1.06640625 c 0
 0.759765625 1.1064453125 0.7802734375 1.15234375 0.7802734375 1.1982421875 c 0
 0.7802734375 1.23046875 0.76953125 1.26171875 0.748046875 1.2900390625 c 0
0.734375 0.59375 m 0
 0.7041015625 0.6240234375 0.671875 0.6357421875 0.6298828125 0.6357421875 c 0
 0.5380859375 0.6357421875 0.4716796875 0.572265625 0.4716796875 0.482421875 c 0
 0.4716796875 0.3935546875 0.5380859375 0.328125 0.6259765625 0.328125 c 0
 0.7216796875 0.328125 0.7822265625 0.40234375 0.7822265625 0.482421875 c 0
 0.7822265625 0.51953125 0.767578125 0.5595703125 0.734375 0.59375 c 0
EndSplineSet
Validated: 1
EndChar

StartChar: k
Encoding: 107 107 54
Width: 2
Flags: HW
HStem: -0.01 0.12<0.698068 1.02312 1.71026 1.8769> 0.376 0.122<0.918 1.14 1.264 1.41789 1.55205 1.878> 0.762 0.126<0.700434 1.02467 1.7094 1.87591>
VStem: 0.43 0.146<0.244172 0.616564> 0.796 0.122<0.110101 0.376 0.498 0.7619>
LayerCount: 2
Back
Fore
SplineSet
0.6904296875 0.849609375 m 0
 0.74609375 0.8759765625 0.8037109375 0.8876953125 0.8603515625 0.8876953125 c 0
 1.0537109375 0.8876953125 1.23046875 0.74609375 1.263671875 0.5322265625 c 0
 1.267578125 0.505859375 1.2724609375 0.498046875 1.2939453125 0.498046875 c 0
 1.2998046875 0.498046875 1.3095703125 0.5 1.3203125 0.5 c 0
 1.404296875 0.5078125 1.41796875 0.513671875 1.4296875 0.5615234375 c 0
 1.4736328125 0.736328125 1.6201171875 0.8515625 1.845703125 0.8876953125 c 0
 1.8759765625 0.8916015625 1.8779296875 0.8896484375 1.8779296875 0.8515625 c 0
 1.8779296875 0.7802734375 1.8720703125 0.767578125 1.830078125 0.76171875 c 0
 1.7119140625 0.7421875 1.6142578125 0.671875 1.572265625 0.572265625 c 0
 1.564453125 0.5537109375 1.5517578125 0.515625 1.5517578125 0.51171875 c 0
 1.5517578125 0.50390625 1.6220703125 0.498046875 1.7138671875 0.498046875 c 1
 1.767578125 0.498046875 1.82421875 0.498046875 1.8779296875 0.498046875 c 1
 1.8779296875 0.4775390625 1.8779296875 0.4560546875 1.8779296875 0.435546875 c 1
 1.8779296875 0.416015625 1.8779296875 0.396484375 1.8779296875 0.3759765625 c 1
 1.82421875 0.3759765625 1.767578125 0.3759765625 1.7138671875 0.3759765625 c 1
 1.6220703125 0.3759765625 1.5517578125 0.3701171875 1.5517578125 0.3623046875 c 0
 1.5517578125 0.3583984375 1.564453125 0.3203125 1.572265625 0.3017578125 c 0
 1.6142578125 0.2041015625 1.7099609375 0.1318359375 1.826171875 0.1142578125 c 0
 1.8701171875 0.1064453125 1.8779296875 0.09765625 1.8779296875 0.0556640625 c 0
 1.8779296875 0.005859375 1.8662109375 -0.015625 1.833984375 -0.015625 c 0
 1.818359375 -0.015625 1.7958984375 -0.009765625 1.767578125 0 c 0
 1.58203125 0.064453125 1.4580078125 0.181640625 1.41796875 0.33203125 c 0
 1.408203125 0.3701171875 1.3984375 0.3759765625 1.337890625 0.3759765625 c 0
 1.2783203125 0.3759765625 1.26953125 0.3701171875 1.263671875 0.33203125 c 0
 1.251953125 0.255859375 1.2197265625 0.1884765625 1.171875 0.1318359375 c 0
 1.08984375 0.0361328125 0.9736328125 -0.009765625 0.8583984375 -0.009765625 c 0
 0.7138671875 -0.009765625 0.568359375 0.0615234375 0.490234375 0.1982421875 c 0
 0.4501953125 0.267578125 0.4296875 0.34765625 0.4296875 0.42578125 c 0
 0.4296875 0.6015625 0.5283203125 0.7763671875 0.6904296875 0.849609375 c 0
0.7958984375 0.435546875 m 0
 0.7958984375 0.6240234375 0.7880859375 0.76171875 0.7763671875 0.76171875 c 0
 0.7724609375 0.76171875 0.740234375 0.744140625 0.7216796875 0.734375 c 0
 0.6259765625 0.673828125 0.576171875 0.5517578125 0.576171875 0.4296875 c 0
 0.576171875 0.3115234375 0.6220703125 0.1962890625 0.7138671875 0.1396484375 c 0
 0.732421875 0.1279296875 0.76953125 0.1103515625 0.7763671875 0.1103515625 c 0
 0.7880859375 0.1103515625 0.7958984375 0.248046875 0.7958984375 0.435546875 c 0
0.986328125 0.7421875 m 0
 0.9677734375 0.751953125 0.935546875 0.763671875 0.931640625 0.763671875 c 0
 0.923828125 0.763671875 0.91796875 0.7060546875 0.91796875 0.6298828125 c 1
 0.91796875 0.5859375 0.91796875 0.5419921875 0.91796875 0.498046875 c 1
 0.9560546875 0.498046875 0.9921875 0.498046875 1.0302734375 0.498046875 c 1
 1.06640625 0.498046875 1.103515625 0.498046875 1.1396484375 0.498046875 c 1
 1.1337890625 0.517578125 1.1298828125 0.5361328125 1.1240234375 0.5556640625 c 1
 1.095703125 0.65625 1.0615234375 0.7021484375 0.986328125 0.7421875 c 0
1.1220703125 0.3115234375 m 1
 1.1279296875 0.333984375 1.1337890625 0.353515625 1.1396484375 0.3759765625 c 1
 1.103515625 0.3759765625 1.06640625 0.3759765625 1.0302734375 0.3759765625 c 1
 0.9921875 0.3759765625 0.9560546875 0.3759765625 0.91796875 0.3759765625 c 1
 0.91796875 0.33203125 0.91796875 0.2861328125 0.91796875 0.2421875 c 1
 0.91796875 0.16015625 0.921875 0.1103515625 0.9296875 0.1103515625 c 0
 0.93359375 0.1103515625 0.9599609375 0.1181640625 0.9716796875 0.1220703125 c 0
 1.0419921875 0.150390625 1.091796875 0.2138671875 1.1220703125 0.3115234375 c 1
EndSplineSet
Validated: 1
EndChar

